<svg version="1.1" viewBox="0.0 0.0 3153.3569553805773 1746.7742782152231" fill="none" stroke="none" stroke-linecap="square" stroke-miterlimit="10" xmlns:xlink="http://www.w3.org/1999/xlink" xmlns="http://www.w3.org/2000/svg"><clipPath id="p.0"><path d="m0 0l3153.357 0l0 1746.7743l-3153.357 0l0 -1746.7743z" clip-rule="nonzero"/></clipPath><g clip-path="url(#p.0)"><path fill="#000000" fill-opacity="0.0" d="m0 0l3153.357 0l0 1746.7743l-3153.357 0z" fill-rule="evenodd"/><path fill="#ffffff" d="m-1.6653544 -2.3372703l3153.7637 0l0 1750.1732l-3153.7637 0z" fill-rule="evenodd"/><path stroke="#000000" stroke-width="1.0" stroke-linejoin="round" stroke-linecap="butt" d="m-1.6653544 -2.3372703l3153.7637 0l0 1750.1732l-3153.7637 0z" fill-rule="evenodd"/><path fill="#000000" fill-opacity="0.0" d="m698.2874 232.88583l271.24408 0l0 127.24408l-271.24408 0z" fill-rule="evenodd"/><path stroke="#000000" stroke-width="1.0" stroke-linejoin="round" stroke-linecap="butt" d="m698.2874 232.88583l271.24408 0l0 127.24408l-271.24408 0z" fill-rule="evenodd"/><path fill="#000000" d="m783.4563 319.44788l0 -45.8125l6.0625 0l0 22.71875l22.75 -22.71875l8.21875 0l-19.21875 18.5625l20.0625 27.25l-8.0 0l-16.3125 -23.1875l-7.5 7.3125l0 15.875l-6.0625 0zm64.9375 -10.6875l5.8125 0.71875q-1.375 5.09375 -5.09375 7.90625q-3.71875 2.8125 -9.5 2.8125q-7.28125 0 -11.546875 -4.484375q-4.265625 -4.484375 -4.265625 -12.578125q0 -8.375 4.3125 -13.0q4.3125 -4.625 11.1875 -4.625q6.65625 0 10.875 4.53125q4.21875 4.53125 4.21875 12.75q0 0.5 -0.03125 1.5l-24.75 0q0.3125 5.46875 3.09375 8.375q2.78125 2.90625 6.9375 2.90625q3.09375 0 5.28125 -1.625q2.1875 -1.625 3.46875 -5.1875zm-18.46875 -9.09375l18.53125 0q-0.375 -4.1875 -2.125 -6.28125q-2.6875 -3.25 -6.96875 -3.25q-3.875 0 -6.515625 2.59375q-2.640625 2.59375 -2.921875 6.9375zm31.09375 32.5625l-0.625 -5.28125q1.84375 0.5 3.21875 0.5q1.875 0 3.0 -0.625q1.125 -0.625 1.84375 -1.75q0.53125 -0.84375 1.71875 -4.1875q0.15625 -0.46875 0.5 -1.375l-12.59375 -33.25l6.0625 0l6.90625 19.21875q1.34375 3.65625 2.40625 7.6875q0.96875 -3.875 2.3125 -7.5625l7.09375 -19.34375l5.625 0l-12.625 33.75q-2.03125 5.46875 -3.15625 7.53125q-1.5 2.78125 -3.4375 4.078125q-1.9375 1.296875 -4.625 1.296875q-1.625 0 -3.625 -0.6875z" fill-rule="nonzero"/><path fill="#000000" fill-opacity="0.0" d="m969.5315 232.88583l271.24414 0l0 127.24408l-271.24414 0z" fill-rule="evenodd"/><path stroke="#000000" stroke-width="1.0" stroke-linejoin="round" stroke-linecap="butt" d="m969.5315 232.88583l271.24414 0l0 127.24408l-271.24414 0z" fill-rule="evenodd"/><path fill="#000000" d="m1020.8567 304.72913l5.71875 -0.5q0.40625 3.4375 1.890625 5.640625q1.484375 2.203125 4.609375 3.5625q3.125 1.359375 7.03125 1.359375q3.46875 0 6.125 -1.03125q2.65625 -1.03125 3.953125 -2.828125q1.296875 -1.796875 1.296875 -3.921875q0 -2.15625 -1.25 -3.765625q-1.25 -1.609375 -4.125 -2.703125q-1.84375 -0.71875 -8.15625 -2.234375q-6.3125 -1.515625 -8.84375 -2.859375q-3.28125 -1.71875 -4.890625 -4.265625q-1.609375 -2.546875 -1.609375 -5.703125q0 -3.46875 1.96875 -6.484375q1.96875 -3.015625 5.75 -4.578125q3.78125 -1.5625 8.40625 -1.5625q5.09375 0 8.984375 1.640625q3.890625 1.640625 5.984375 4.828125q2.09375 3.1875 2.25 7.21875l-5.8125 0.4375q-0.46875 -4.34375 -3.171875 -6.5625q-2.703125 -2.21875 -7.984375 -2.21875q-5.5 0 -8.015625 2.015625q-2.515625 2.015625 -2.515625 4.859375q0 2.46875 1.78125 4.0625q1.75 1.59375 9.140625 3.265625q7.390625 1.671875 10.140625 2.921875q4.0 1.84375 5.90625 4.671875q1.90625 2.828125 1.90625 6.515625q0 3.65625 -2.09375 6.890625q-2.09375 3.234375 -6.015625 5.03125q-3.921875 1.796875 -8.828125 1.796875q-6.21875 0 -10.421875 -1.8125q-4.203125 -1.8125 -6.59375 -5.453125q-2.390625 -3.640625 -2.515625 -8.234375zm56.3125 9.6875l0.8125 4.96875q-2.375 0.5 -4.25 0.5q-3.0625 0 -4.75 -0.96875q-1.6875 -0.96875 -2.375 -2.546875q-0.6875 -1.578125 -0.6875 -6.640625l0 -19.09375l-4.125 0l0 -4.375l4.125 0l0 -8.21875l5.59375 -3.375l0 11.59375l5.65625 0l0 4.375l-5.65625 0l0 19.40625q0 2.40625 0.296875 3.09375q0.296875 0.6875 0.96875 1.09375q0.671875 0.40625 1.921875 0.40625q0.9375 0 2.46875 -0.21875zm27.15625 0.9375q-3.125 2.65625 -6.015625 3.75q-2.890625 1.09375 -6.203125 1.09375q-5.46875 0 -8.40625 -2.671875q-2.9375 -2.671875 -2.9375 -6.828125q0 -2.4375 1.109375 -4.453125q1.109375 -2.015625 2.90625 -3.234375q1.796875 -1.21875 4.046875 -1.84375q1.65625 -0.4375 5.0 -0.84375q6.8125 -0.8125 10.03125 -1.9375q0.03125 -1.15625 0.03125 -1.46875q0 -3.4375 -1.59375 -4.84375q-2.15625 -1.90625 -6.40625 -1.90625q-3.96875 0 -5.859375 1.390625q-1.890625 1.390625 -2.796875 4.921875l-5.5 -0.75q0.75 -3.53125 2.46875 -5.703125q1.71875 -2.171875 4.96875 -3.34375q3.25 -1.171875 7.53125 -1.171875q4.25 0 6.90625 1.0q2.65625 1.0 3.90625 2.515625q1.25 1.515625 1.75 3.828125q0.28125 1.4375 0.28125 5.1875l0 7.5q0 7.84375 0.359375 9.921875q0.359375 2.078125 1.421875 3.984375l-5.875 0q-0.875 -1.75 -1.125 -4.09375zm-0.46875 -12.5625q-3.0625 1.25 -9.1875 2.125q-3.46875 0.5 -4.90625 1.125q-1.4375 0.625 -2.21875 1.828125q-0.78125 1.203125 -0.78125 2.671875q0 2.25 1.703125 3.75q1.703125 1.5 4.984375 1.5q3.25 0 5.78125 -1.421875q2.53125 -1.421875 3.71875 -3.890625q0.90625 -1.90625 0.90625 -5.625l0 -2.0625zm26.6875 11.625l0.8125 4.96875q-2.375 0.5 -4.25 0.5q-3.0625 0 -4.75 -0.96875q-1.6875 -0.96875 -2.375 -2.546875q-0.6875 -1.578125 -0.6875 -6.640625l0 -19.09375l-4.125 0l0 -4.375l4.125 0l0 -8.21875l5.59375 -3.375l0 11.59375l5.65625 0l0 4.375l-5.65625 0l0 19.40625q0 2.40625 0.296875 3.09375q0.296875 0.6875 0.96875 1.09375q0.671875 0.40625 1.921875 0.40625q0.9375 0 2.46875 -0.21875zm28.21875 -5.65625l5.8125 0.71875q-1.375 5.09375 -5.09375 7.90625q-3.71875 2.8125 -9.5 2.8125q-7.28125 0 -11.546875 -4.484375q-4.265625 -4.484375 -4.265625 -12.578125q0 -8.375 4.3125 -13.0q4.3125 -4.625 11.1875 -4.625q6.65625 0 10.875 4.53125q4.21875 4.53125 4.21875 12.75q0 0.5 -0.03125 1.5l-24.75 0q0.3125 5.46875 3.09375 8.375q2.78125 2.90625 6.9375 2.90625q3.09375 0 5.28125 -1.625q2.1875 -1.625 3.46875 -5.1875zm-18.46875 -9.09375l18.53125 0q-0.375 -4.1875 -2.125 -6.28125q-2.6875 -3.25 -6.96875 -3.25q-3.875 0 -6.515625 2.59375q-2.640625 2.59375 -2.921875 6.9375zm29.125 -17.625l1.4375 -4.4375q4.96875 1.75 7.21875 3.03125q-0.59375 -5.65625 -0.625 -7.78125l4.53125 0q-0.09375 3.09375 -0.71875 7.75q3.21875 -1.625 7.375 -3.0l1.4375 4.4375q-3.96875 1.3125 -7.78125 1.75q1.90625 1.65625 5.375 5.90625l-3.75 2.65625q-1.8125 -2.46875 -4.28125 -6.71875q-2.3125 4.40625 -4.0625 6.71875l-3.6875 -2.65625q3.625 -4.46875 5.1875 -5.90625q-4.03125 -0.78125 -7.65625 -1.75z" fill-rule="nonzero"/><path fill="#000000" fill-opacity="0.0" d="m1240.7756 232.88583l271.24402 0l0 127.24408l-271.24402 0z" fill-rule="evenodd"/><path stroke="#000000" stroke-width="1.0" stroke-linejoin="round" stroke-linecap="butt" d="m1240.7756 232.88583l271.24402 0l0 127.24408l-271.24402 0z" fill-rule="evenodd"/><path fill="#000000" d="m1303.0226 319.44788l0 -45.8125l6.21875 0l24.0625 35.96875l0 -35.96875l5.8125 0l0 45.8125l-6.21875 0l-24.0625 -36.0l0 36.0l-5.8125 0zm68.28125 -10.6875l5.8125 0.71875q-1.375 5.09375 -5.09375 7.90625q-3.71875 2.8125 -9.5 2.8125q-7.28125 0 -11.546875 -4.484375q-4.265625 -4.484375 -4.265625 -12.578125q0 -8.375 4.3125 -13.0q4.3125 -4.625 11.1875 -4.625q6.65625 0 10.875 4.53125q4.21875 4.53125 4.21875 12.75q0 0.5 -0.03125 1.5l-24.75 0q0.3125 5.46875 3.09375 8.375q2.78125 2.90625 6.9375 2.90625q3.09375 0 5.28125 -1.625q2.1875 -1.625 3.46875 -5.1875zm-18.46875 -9.09375l18.53125 0q-0.375 -4.1875 -2.125 -6.28125q-2.6875 -3.25 -6.96875 -3.25q-3.875 0 -6.515625 2.59375q-2.640625 2.59375 -2.921875 6.9375zm27.59375 19.78125l12.125 -17.25l-11.21875 -15.9375l7.03125 0l5.09375 7.78125q1.4375 2.21875 2.3125 3.71875q1.375 -2.0625 2.53125 -3.65625l5.59375 -7.84375l6.71875 0l-11.46875 15.625l12.34375 17.5625l-6.90625 0l-6.8125 -10.3125l-1.8125 -2.78125l-8.71875 13.09375l-6.8125 0zm48.03125 -5.03125l0.8125 4.96875q-2.375 0.5 -4.25 0.5q-3.0625 0 -4.75 -0.96875q-1.6875 -0.96875 -2.375 -2.546875q-0.6875 -1.578125 -0.6875 -6.640625l0 -19.09375l-4.125 0l0 -4.375l4.125 0l0 -8.21875l5.59375 -3.375l0 11.59375l5.65625 0l0 4.375l-5.65625 0l0 19.40625q0 2.40625 0.296875 3.09375q0.296875 0.6875 0.96875 1.09375q0.671875 0.40625 1.921875 0.40625q0.9375 0 2.46875 -0.21875zm3.28125 -32.375l1.4375 -4.4375q4.96875 1.75 7.21875 3.03125q-0.59375 -5.65625 -0.625 -7.78125l4.53125 0q-0.09375 3.09375 -0.71875 7.75q3.21875 -1.625 7.375 -3.0l1.4375 4.4375q-3.96875 1.3125 -7.78125 1.75q1.90625 1.65625 5.375 5.90625l-3.75 2.65625q-1.8125 -2.46875 -4.28125 -6.71875q-2.3125 4.40625 -4.0625 6.71875l-3.6875 -2.65625q3.625 -4.46875 5.1875 -5.90625q-4.03125 -0.78125 -7.65625 -1.75z" fill-rule="nonzero"/><path fill="#b6d7a8" d="m1741.1221 755.57874l250.45667 0l0 93.921265l-250.45667 0z" fill-rule="evenodd"/><path stroke="#000000" stroke-width="1.0" stroke-linejoin="round" stroke-linecap="butt" d="m1741.1221 755.57874l250.45667 0l0 93.921265l-250.45667 0z" fill-rule="evenodd"/><path fill="#000000" d="m1824.7799 827.59937l-6.09375 0l0 -38.828125q-2.203125 2.09375 -5.78125 4.203125q-3.5625 2.09375 -6.40625 3.140625l0 -5.890625q5.109375 -2.40625 8.9375 -5.8125q3.828125 -3.421875 5.421875 -6.640625l3.921875 0l0 49.828125zm28.947632 14.59375q-5.046875 -6.375 -8.53125 -14.890625q-3.484375 -8.53125 -3.484375 -17.671875q0 -8.0625 2.59375 -15.4375q3.046875 -8.5625 9.421875 -17.0625l4.359375 0q-4.09375 7.03125 -5.40625 10.046875q-2.078125 4.671875 -3.25 9.75q-1.46875 6.328125 -1.46875 12.734375q0 16.28125 10.125 32.53125l-4.359375 0zm12.211792 -14.59375l0 -49.625l17.09375 0q5.796875 0 8.84375 0.703125q4.265625 0.984375 7.28125 3.5625q3.921875 3.3125 5.859375 8.484375q1.953125 5.15625 1.953125 11.796875q0 5.640625 -1.328125 10.015625q-1.3125 4.359375 -3.375 7.234375q-2.0625 2.859375 -4.515625 4.5q-2.453125 1.640625 -5.921875 2.484375q-3.46875 0.84375 -7.984375 0.84375l-17.90625 0zm6.578125 -5.859375l10.59375 0q4.90625 0 7.6875 -0.90625q2.796875 -0.921875 4.46875 -2.578125q2.328125 -2.328125 3.625 -6.265625q1.3125 -3.953125 1.3125 -9.578125q0 -7.78125 -2.5625 -11.953125q-2.546875 -4.1875 -6.203125 -5.609375q-2.640625 -1.015625 -8.5 -1.015625l-10.421875 0l0 37.90625zm46.707275 20.453125l-4.359375 0q10.109375 -16.25 10.109375 -32.53125q0 -6.375 -1.453125 -12.625q-1.140625 -5.078125 -3.21875 -9.75q-1.3125 -3.046875 -5.4375 -10.15625l4.359375 0q6.359375 8.5 9.40625 17.0625q2.609375 7.375 2.609375 15.4375q0 9.140625 -3.5 17.671875q-3.5 8.515625 -8.515625 14.890625z" fill-rule="nonzero"/><path fill="#000000" fill-opacity="0.0" d="m1991.5577 755.57874l109.7323 0l0 93.921265l-109.7323 0z" fill-rule="evenodd"/><path stroke="#000000" stroke-width="1.0" stroke-linejoin="round" stroke-linecap="butt" d="m1991.5577 755.57874l109.7323 0l0 93.921265l-109.7323 0z" fill-rule="evenodd"/><path fill="#b6d7a8" d="m1094.3083 755.57874l250.45679 0l0 93.921265l-250.45679 0z" fill-rule="evenodd"/><path stroke="#000000" stroke-width="1.0" stroke-linejoin="round" stroke-linecap="butt" d="m1094.3083 755.57874l250.45679 0l0 93.921265l-250.45679 0z" fill-rule="evenodd"/><path fill="#000000" d="m1187.0444 821.74l0 5.859375l-32.8125 0q-0.0625 -2.203125 0.71875 -4.234375q1.25 -3.34375 4.0 -6.59375q2.765625 -3.25 7.984375 -7.515625q8.09375 -6.640625 10.9375 -10.515625q2.84375 -3.875 2.84375 -7.328125q0 -3.625 -2.59375 -6.109375q-2.59375 -2.484375 -6.75 -2.484375q-4.40625 0 -7.046875 2.640625q-2.640625 2.640625 -2.671875 7.3125l-6.265625 -0.640625q0.640625 -7.015625 4.828125 -10.6875q4.203125 -3.671875 11.28125 -3.671875q7.140625 0 11.296875 3.96875q4.171875 3.953125 4.171875 9.8125q0 2.96875 -1.21875 5.859375q-1.21875 2.875 -4.046875 6.0625q-2.8125 3.171875 -9.390625 8.71875q-5.484375 4.609375 -7.046875 6.25q-1.546875 1.640625 -2.5625 3.296875l24.34375 0zm19.869507 20.453125q-5.046875 -6.375 -8.53125 -14.890625q-3.484375 -8.53125 -3.484375 -17.671875q0 -8.0625 2.59375 -15.4375q3.046875 -8.5625 9.421875 -17.0625l4.359375 0q-4.09375 7.03125 -5.40625 10.046875q-2.078125 4.671875 -3.25 9.75q-1.46875 6.328125 -1.46875 12.734375q0 16.28125 10.125 32.53125l-4.359375 0zm12.211792 -14.59375l0 -49.625l17.09375 0q5.796875 0 8.84375 0.703125q4.265625 0.984375 7.28125 3.5625q3.921875 3.3125 5.859375 8.484375q1.953125 5.15625 1.953125 11.796875q0 5.640625 -1.328125 10.015625q-1.3125 4.359375 -3.375 7.234375q-2.0625 2.859375 -4.515625 4.5q-2.453125 1.640625 -5.921875 2.484375q-3.46875 0.84375 -7.984375 0.84375l-17.90625 0zm6.578125 -5.859375l10.59375 0q4.90625 0 7.6875 -0.90625q2.796875 -0.921875 4.46875 -2.578125q2.328125 -2.328125 3.625 -6.265625q1.3125 -3.953125 1.3125 -9.578125q0 -7.78125 -2.5625 -11.953125q-2.546875 -4.1875 -6.203125 -5.609375q-2.640625 -1.015625 -8.5 -1.015625l-10.421875 0l0 37.90625zm46.707153 20.453125l-4.359375 0q10.109375 -16.25 10.109375 -32.53125q0 -6.375 -1.453125 -12.625q-1.140625 -5.078125 -3.21875 -9.75q-1.3125 -3.046875 -5.4375 -10.15625l4.359375 0q6.359375 8.5 9.40625 17.0625q2.609375 7.375 2.609375 15.4375q0 9.140625 -3.5 17.671875q-3.5 8.515625 -8.515625 14.890625z" fill-rule="nonzero"/><path fill="#000000" fill-opacity="0.0" d="m1344.7441 755.57874l109.73218 0l0 93.921265l-109.73218 0z" fill-rule="evenodd"/><path stroke="#000000" stroke-width="1.0" stroke-linejoin="round" stroke-linecap="butt" d="m1344.7441 755.57874l109.73218 0l0 93.921265l-109.73218 0z" fill-rule="evenodd"/><path fill="#000000" fill-opacity="0.0" d="m1387.4843 803.8622c88.409424 0 132.61414 -0.33068848 176.81885 -0.66137695c44.204834 -0.3307495 88.409546 -0.661438 176.81897 -0.661438" fill-rule="evenodd"/><path stroke="#000000" stroke-width="4.0" stroke-linejoin="round" stroke-linecap="butt" d="m1406.6044 803.85614l12.0477295 -0.0087890625c9.755981 -0.009643555 18.907715 -0.023864746 27.541504 -0.041992188c17.267578 -0.036193848 32.46289 -0.08782959 46.276855 -0.14984131c27.62793 -0.12402344 49.730347 -0.28936768 71.83264 -0.4547119c22.102417 -0.16534424 44.204834 -0.3307495 71.83276 -0.45477295c13.813965 -0.061950684 29.009277 -0.11364746 46.276855 -0.14984131c8.633667 -0.018127441 17.7854 -0.032287598 27.541504 -0.041992188l13.643188 -0.010009766" fill-rule="evenodd"/><path fill="#000000" stroke="#000000" stroke-width="4.0" stroke-linecap="butt" d="m1389.4843 803.8616c-0.0014648438 -4.727539 3.829712 -8.561218 8.557251 -8.562683c4.727661 -0.0015258789 8.561279 3.829712 8.562744 8.557312c0.0014648438 4.727539 -3.829712 8.561157 -8.557251 8.562683c-4.727661 0.0014648438 -8.561279 -3.829773 -8.562744 -8.557312z" fill-rule="nonzero"/><path fill="#000000" stroke="#000000" stroke-width="4.0" stroke-linecap="butt" d="m1723.5975 802.54425l-6.680298 6.68396l18.357178 -6.687195l-18.36084 -6.677063z" fill-rule="evenodd"/><path fill="#b6d7a8" d="m2387.9358 755.57874l250.45654 0l0 93.921265l-250.45654 0z" fill-rule="evenodd"/><path stroke="#000000" stroke-width="1.0" stroke-linejoin="round" stroke-linecap="butt" d="m2387.9358 755.57874l250.45654 0l0 93.921265l-250.45654 0z" fill-rule="evenodd"/><path fill="#000000" d="m2448.6716 814.5056l6.09375 -0.8125q1.046875 5.171875 3.5625 7.46875q2.53125 2.28125 6.15625 2.28125q4.296875 0 7.25 -2.984375q2.96875 -2.984375 2.96875 -7.375q0 -4.203125 -2.75 -6.921875q-2.734375 -2.734375 -6.953125 -2.734375q-1.734375 0 -4.3125 0.671875l0.6875 -5.34375q0.609375 0.0625 0.984375 0.0625q3.890625 0 7.0 -2.03125q3.109375 -2.03125 3.109375 -6.25q0 -3.359375 -2.265625 -5.546875q-2.265625 -2.203125 -5.859375 -2.203125q-3.546875 0 -5.921875 2.234375q-2.359375 2.234375 -3.046875 6.703125l-6.09375 -1.09375q1.125 -6.125 5.078125 -9.484375q3.96875 -3.375 9.859375 -3.375q4.0625 0 7.46875 1.75q3.421875 1.734375 5.234375 4.75q1.8125 3.015625 1.8125 6.390625q0 3.21875 -1.734375 5.859375q-1.71875 2.640625 -5.09375 4.203125q4.390625 1.015625 6.828125 4.21875q2.4375 3.1875 2.4375 8.0q0 6.5 -4.734375 11.015625q-4.734375 4.515625 -11.984375 4.515625q-6.53125 0 -10.859375 -3.890625q-4.3125 -3.890625 -4.921875 -10.078125zm51.86963 27.6875q-5.046875 -6.375 -8.53125 -14.890625q-3.484375 -8.53125 -3.484375 -17.671875q0 -8.0625 2.59375 -15.4375q3.046875 -8.5625 9.421875 -17.0625l4.359375 0q-4.09375 7.03125 -5.40625 10.046875q-2.078125 4.671875 -3.25 9.75q-1.46875 6.328125 -1.46875 12.734375q0 16.28125 10.125 32.53125l-4.359375 0zm12.21167 -14.59375l0 -49.625l17.09375 0q5.796875 0 8.84375 0.703125q4.265625 0.984375 7.28125 3.5625q3.921875 3.3125 5.859375 8.484375q1.953125 5.15625 1.953125 11.796875q0 5.640625 -1.328125 10.015625q-1.3125 4.359375 -3.375 7.234375q-2.0625 2.859375 -4.515625 4.5q-2.453125 1.640625 -5.921875 2.484375q-3.46875 0.84375 -7.984375 0.84375l-17.90625 0zm6.578125 -5.859375l10.59375 0q4.90625 0 7.6875 -0.90625q2.796875 -0.921875 4.46875 -2.578125q2.328125 -2.328125 3.625 -6.265625q1.3125 -3.953125 1.3125 -9.578125q0 -7.78125 -2.5625 -11.953125q-2.546875 -4.1875 -6.203125 -5.609375q-2.640625 -1.015625 -8.5 -1.015625l-10.421875 0l0 37.90625zm46.707275 20.453125l-4.359375 0q10.109375 -16.25 10.109375 -32.53125q0 -6.375 -1.453125 -12.625q-1.140625 -5.078125 -3.21875 -9.75q-1.3125 -3.046875 -5.4375 -10.15625l4.359375 0q6.359375 8.5 9.40625 17.0625q2.609375 7.375 2.609375 15.4375q0 9.140625 -3.5 17.671875q-3.5 8.515625 -8.515625 14.890625z" fill-rule="nonzero"/><path fill="#000000" fill-opacity="0.0" d="m2638.3713 755.57874l109.73242 0l0 93.921265l-109.73242 0z" fill-rule="evenodd"/><path stroke="#000000" stroke-width="1.0" stroke-linejoin="round" stroke-linecap="butt" d="m2638.3713 755.57874l109.73242 0l0 93.921265l-109.73242 0z" fill-rule="evenodd"/><path fill="#000000" fill-opacity="0.0" d="m2036.6317 803.2008c88.409546 0 132.61414 -0.3307495 176.81897 -0.661438c44.20459 -0.33068848 88.409424 -0.661438 176.81885 -0.661438" fill-rule="evenodd"/><path stroke="#000000" stroke-width="4.0" stroke-linejoin="round" stroke-linecap="butt" d="m2055.7517 803.1947l12.047852 -0.0087890625c9.7561035 -0.009643555 18.907715 -0.023864746 27.541748 -0.041992188c17.267334 -0.036132812 32.462646 -0.08782959 46.27661 -0.14984131c27.62793 -0.12402344 49.730225 -0.28936768 71.83276 -0.4547119c22.102295 -0.16534424 44.20459 -0.33068848 71.83252 -0.4547119c13.813965 -0.06201172 29.009521 -0.113708496 46.276855 -0.14984131c8.633789 -0.018127441 17.785645 -0.032348633 27.541748 -0.041992188l13.643066 -0.010009766" fill-rule="evenodd"/><path fill="#000000" stroke="#000000" stroke-width="4.0" stroke-linecap="butt" d="m2038.6317 803.20013c-0.0014648438 -4.727539 3.829712 -8.561157 8.557373 -8.562683c4.727417 -0.0014648438 8.561157 3.829773 8.562622 8.557312c0.0014648438 4.727539 -3.829834 8.561218 -8.557251 8.562683c-4.727539 0.0015258789 -8.561279 -3.829712 -8.562744 -8.557312z" fill-rule="nonzero"/><path fill="#000000" stroke="#000000" stroke-width="4.0" stroke-linecap="butt" d="m2372.745 801.8828l-6.68042 6.684021l18.357178 -6.687256l-18.36084 -6.677063z" fill-rule="evenodd"/><path fill="#000000" fill-opacity="0.0" d="m698.2874 755.57874l109.7323 0l0 93.921265l-109.7323 0z" fill-rule="evenodd"/><path stroke="#000000" stroke-width="1.0" stroke-linejoin="round" stroke-linecap="butt" d="m698.2874 755.57874l109.7323 0l0 93.921265l-109.7323 0z" fill-rule="evenodd"/><path fill="#000000" fill-opacity="0.0" d="m740.6655 803.2008c88.409485 0 132.6142 -0.3307495 176.81891 -0.661438c44.204712 -0.33068848 88.409485 -0.661438 176.81891 -0.661438" fill-rule="evenodd"/><path stroke="#000000" stroke-width="4.0" stroke-linejoin="round" stroke-linecap="butt" d="m759.7855 803.1947l12.047791 -0.0087890625c9.7561035 -0.009643555 18.907837 -0.023864746 27.541626 -0.041992188c17.267456 -0.036132812 32.46283 -0.08782959 46.276794 -0.14984131c27.62793 -0.12402344 49.730347 -0.28936768 71.8327 -0.4547119c22.102356 -0.16534424 44.204712 -0.33068848 71.83264 -0.4547119c13.813965 -0.06201172 29.009338 -0.113708496 46.276794 -0.14984131c8.633789 -0.018127441 17.785522 -0.032348633 27.541626 -0.041992188l13.643311 -0.010009766" fill-rule="evenodd"/><path fill="#000000" stroke="#000000" stroke-width="4.0" stroke-linecap="butt" d="m742.6655 803.20013c-0.0015258789 -4.727539 3.829712 -8.561157 8.557312 -8.562683c4.727539 -0.0014648438 8.561157 3.829773 8.562683 8.557312c0.0014648438 4.727539 -3.829773 8.561218 -8.557312 8.562683c-4.727539 0.0015258789 -8.561218 -3.829712 -8.562683 -8.557312z" fill-rule="nonzero"/><path fill="#000000" stroke="#000000" stroke-width="4.0" stroke-linecap="butt" d="m1076.7788 801.8828l-6.680298 6.684021l18.357178 -6.687256l-18.360962 -6.677063z" fill-rule="evenodd"/><path fill="#000000" fill-opacity="0.0" d="m92.52362 233.5l353.6378 0l0 155.1496l-353.6378 0z" fill-rule="evenodd"/><path fill="#000000" d="m172.74237 335.06l-8.28125 0l-23.90625 -45.09375l0 45.09375l-6.265625 0l0 -50.40625l10.390625 0l21.8125 41.171875l0 -41.171875l6.25 0l0 50.40625zm45.126312 -18.890625q0 9.25 -4.734375 14.59375q-4.734375 5.34375 -12.6875 5.34375q-8.03125 0 -12.75 -5.34375q-4.71875 -5.34375 -4.71875 -14.59375q0 -9.234375 4.71875 -14.59375q4.71875 -5.375 12.75 -5.375q7.953125 0 12.6875 5.375q4.734375 5.359375 4.734375 14.59375zm-6.5625 0q0 -7.34375 -2.875 -10.90625q-2.875 -3.578125 -7.984375 -3.578125q-5.1875 0 -8.046875 3.578125q-2.859375 3.5625 -2.859375 10.90625q0 7.109375 2.875 10.78125q2.875 3.671875 8.03125 3.671875q5.078125 0 7.96875 -3.640625q2.890625 -3.640625 2.890625 -10.8125zm47.0932 18.890625l-6.375 0l0 -3.953125q-2.734375 2.359375 -5.71875 3.6875q-2.96875 1.3125 -6.46875 1.3125q-6.765625 0 -10.75 -5.203125q-3.96875 -5.21875 -3.96875 -14.46875q0 -4.796875 1.359375 -8.546875q1.375 -3.765625 3.71875 -6.40625q2.296875 -2.578125 5.359375 -3.921875q3.0625 -1.359375 6.359375 -1.359375q2.96875 0 5.265625 0.625q2.3125 0.625 4.84375 1.953125l0 -16.390625l6.375 0l0 52.671875zm-6.375 -9.3125l0 -21.703125q-2.5625 -1.140625 -4.59375 -1.578125q-2.03125 -0.453125 -4.4375 -0.453125q-5.34375 0 -8.328125 3.734375q-2.984375 3.71875 -2.984375 10.5625q0 6.734375 2.296875 10.234375q2.3125 3.5 7.390625 3.5q2.703125 0 5.484375 -1.1875q2.78125 -1.203125 5.171875 -3.109375zm50.53842 -8.9375l-27.859375 0q0 3.484375 1.046875 6.078125q1.0625 2.59375 2.890625 4.25q1.75 1.625 4.171875 2.4375q2.421875 0.8125 5.34375 0.8125q3.859375 0 7.765625 -1.53125q3.90625 -1.546875 5.5625 -3.03125l0.34375 0l0 6.9375q-3.21875 1.34375 -6.578125 2.265625q-3.34375 0.90625 -7.03125 0.90625q-9.40625 0 -14.6875 -5.09375q-5.28125 -5.09375 -5.28125 -14.46875q0 -9.28125 5.046875 -14.71875q5.0625 -5.453125 13.328125 -5.453125q7.65625 0 11.796875 4.46875q4.140625 4.46875 4.140625 12.6875l0 3.453125zm-6.1875 -4.875q-0.03125 -5.0 -2.53125 -7.734375q-2.484375 -2.75 -7.5625 -2.75q-5.109375 0 -8.140625 3.015625q-3.03125 3.0 -3.4375 7.46875l21.671875 0z" fill-rule="nonzero"/><path fill="#000000" fill-opacity="0.0" d="m92.52362 739.51575l353.6378 0l0 155.1496l-353.6378 0z" fill-rule="evenodd"/><path fill="#000000" d="m166.17987 841.07574l-31.890625 0l0 -50.40625l6.703125 0l0 44.453125l25.1875 0l0 5.953125zm13.028351 -44.140625l-7.171875 0l0 -6.609375l7.171875 0l0 6.609375zm-0.40625 44.140625l-6.359375 0l0 -37.8125l6.359375 0l0 37.8125zm39.618362 -10.90625q0 5.1875 -4.28125 8.5q-4.28125 3.3125 -11.703125 3.3125q-4.203125 0 -7.703125 -0.984375q-3.5 -1.0 -5.875 -2.1875l0 -7.140625l0.34375 0q3.015625 2.265625 6.703125 3.609375q3.6875 1.328125 7.078125 1.328125q4.1875 0 6.5625 -1.34375q2.375 -1.359375 2.375 -4.28125q0 -2.234375 -1.296875 -3.375q-1.28125 -1.15625 -4.9375 -1.96875q-1.359375 -0.296875 -3.546875 -0.703125q-2.171875 -0.40625 -3.96875 -0.890625q-4.96875 -1.3125 -7.0625 -3.859375q-2.078125 -2.5625 -2.078125 -6.296875q0 -2.328125 0.96875 -4.390625q0.96875 -2.078125 2.921875 -3.6875q1.90625 -1.59375 4.828125 -2.515625q2.921875 -0.9375 6.546875 -0.9375q3.390625 0 6.859375 0.828125q3.46875 0.828125 5.765625 2.015625l0 6.796875l-0.328125 0q-2.4375 -1.796875 -5.9375 -3.03125q-3.484375 -1.234375 -6.828125 -1.234375q-3.484375 0 -5.890625 1.34375q-2.40625 1.328125 -2.40625 3.96875q0 2.34375 1.453125 3.515625q1.421875 1.1875 4.609375 1.9375q1.765625 0.40625 3.9375 0.8125q2.1875 0.40625 3.640625 0.75q4.4375 1.015625 6.84375 3.484375q2.40625 2.5 2.40625 6.625zm28.729065 10.5625q-1.78125 0.484375 -3.90625 0.78125q-2.109375 0.3125 -3.765625 0.3125q-5.796875 0 -8.8125 -3.109375q-3.015625 -3.125 -3.015625 -10.0l0 -20.109375l-4.296875 0l0 -5.34375l4.296875 0l0 -10.859375l6.375 0l0 10.859375l13.125 0l0 5.34375l-13.125 0l0 17.234375q0 2.984375 0.125 4.65625q0.140625 1.671875 0.953125 3.125q0.75 1.359375 2.046875 1.984375q1.3125 0.625 3.984375 0.625q1.546875 0 3.234375 -0.453125q1.703125 -0.453125 2.453125 -0.765625l0.328125 0l0 5.71875z" fill-rule="nonzero"/><path fill="#000000" fill-opacity="0.0" d="m609.21655 613.4685l287.87402 0l0 155.1496l-287.87402 0z" fill-rule="evenodd"/><path fill="#000000" d="m680.60205 715.0285l0 -49.625l6.09375 0l0 17.796875q4.265625 -4.9375 10.765625 -4.9375q4.0 0 6.9375 1.578125q2.953125 1.578125 4.21875 4.359375q1.28125 2.765625 1.28125 8.046875l0 22.78125l-6.09375 0l0 -22.78125q0 -4.578125 -1.984375 -6.65625q-1.984375 -2.078125 -5.609375 -2.078125q-2.703125 0 -5.09375 1.40625q-2.390625 1.40625 -3.40625 3.8125q-1.015625 2.390625 -1.015625 6.625l0 19.671875l-6.09375 0zm63.182007 -11.578125l6.28125 0.78125q-1.484375 5.515625 -5.515625 8.5625q-4.015625 3.046875 -10.28125 3.046875q-7.890625 0 -12.515625 -4.859375q-4.625 -4.859375 -4.625 -13.625q0 -9.078125 4.671875 -14.078125q4.671875 -5.015625 12.125 -5.015625q7.21875 0 11.78125 4.90625q4.5625 4.90625 4.5625 13.8125q0 0.546875 -0.03125 1.625l-26.8125 0q0.34375 5.921875 3.359375 9.078125q3.015625 3.140625 7.515625 3.140625q3.34375 0 5.71875 -1.75q2.375 -1.765625 3.765625 -5.625zm-20.015625 -9.84375l20.078125 0q-0.40625 -4.546875 -2.296875 -6.8125q-2.921875 -3.515625 -7.5625 -3.515625q-4.1875 0 -7.046875 2.8125q-2.859375 2.796875 -3.171875 7.515625zm57.41638 16.984375q-3.390625 2.875 -6.53125 4.0625q-3.125 1.1875 -6.703125 1.1875q-5.921875 0 -9.109375 -2.890625q-3.1875 -2.890625 -3.1875 -7.40625q0 -2.640625 1.203125 -4.8125q1.203125 -2.1875 3.140625 -3.5q1.953125 -1.328125 4.390625 -2.0q1.796875 -0.484375 5.421875 -0.921875q7.375 -0.875 10.859375 -2.09375q0.046875 -1.25 0.046875 -1.59375q0 -3.71875 -1.734375 -5.25q-2.328125 -2.0625 -6.9375 -2.0625q-4.296875 0 -6.34375 1.515625q-2.046875 1.5 -3.03125 5.328125l-5.96875 -0.8125q0.8125 -3.828125 2.671875 -6.171875q1.875 -2.359375 5.390625 -3.625q3.515625 -1.28125 8.15625 -1.28125q4.609375 0 7.484375 1.09375q2.875 1.078125 4.234375 2.71875q1.359375 1.640625 1.890625 4.140625q0.3125 1.5625 0.3125 5.625l0 8.125q0 8.5 0.390625 10.75q0.390625 2.25 1.53125 4.3125l-6.359375 0q-0.953125 -1.890625 -1.21875 -4.4375zm-0.515625 -13.609375q-3.3125 1.359375 -9.953125 2.3125q-3.75 0.53125 -5.3125 1.21875q-1.546875 0.671875 -2.40625 1.984375q-0.84375 1.296875 -0.84375 2.890625q0 2.4375 1.84375 4.0625q1.84375 1.625 5.40625 1.625q3.515625 0 6.25 -1.546875q2.75 -1.546875 4.046875 -4.21875q0.96875 -2.0625 0.96875 -6.09375l0 -2.234375zm38.932007 18.046875l0 -4.53125q-3.421875 5.34375 -10.046875 5.34375q-4.296875 0 -7.90625 -2.359375q-3.609375 -2.375 -5.59375 -6.625q-1.96875 -4.25 -1.96875 -9.765625q0 -5.390625 1.78125 -9.765625q1.796875 -4.390625 5.390625 -6.71875q3.59375 -2.34375 8.015625 -2.34375q3.25 0 5.78125 1.375q2.546875 1.375 4.140625 3.5625l0 -17.796875l6.0625 0l0 49.625l-5.65625 0zm-19.265625 -17.9375q0 6.90625 2.90625 10.328125q2.921875 3.40625 6.890625 3.40625q3.984375 0 6.78125 -3.265625q2.796875 -3.265625 2.796875 -9.96875q0 -7.375 -2.84375 -10.828125q-2.84375 -3.453125 -7.015625 -3.453125q-4.0625 0 -6.796875 3.328125q-2.71875 3.3125 -2.71875 10.453125z" fill-rule="nonzero"/><path fill="#000000" fill-opacity="0.0" d="m987.98816 103.232285l763.4646 0l0 135.74803l-763.4646 0z" fill-rule="evenodd"/><path fill="#000000" d="m1024.66 158.2604l1.1875 -3.6875q4.140625 1.453125 6.015625 2.515625q-0.484375 -4.703125 -0.515625 -6.484375l3.78125 0q-0.078125 2.578125 -0.609375 6.46875q2.6875 -1.359375 6.15625 -2.5l1.1875 3.6875q-3.296875 1.09375 -6.484375 1.46875q1.59375 1.375 4.484375 4.90625l-3.125 2.21875q-1.515625 -2.0625 -3.5625 -5.59375q-1.9375 3.671875 -3.390625 5.59375l-3.078125 -2.21875q3.03125 -3.71875 4.328125 -4.90625q-3.359375 -0.65625 -6.375 -1.46875zm37.444458 -1.609375l0 -5.390625l4.6875 0l0 5.390625l-4.6875 0zm0 32.78125l0 -27.65625l4.6875 0l0 27.65625l-4.6875 0zm11.816528 0l0 -27.65625l4.21875 0l0 3.9375q3.046875 -4.5625 8.796875 -4.5625q2.5 0 4.59375 0.90625q2.109375 0.890625 3.140625 2.359375q1.046875 1.453125 1.46875 3.453125q0.25 1.296875 0.25 4.5625l0 17.0l-4.6875 0l0 -16.828125q0 -2.859375 -0.546875 -4.28125q-0.546875 -1.421875 -1.9375 -2.265625q-1.390625 -0.84375 -3.265625 -0.84375q-3.0 0 -5.171875 1.90625q-2.171875 1.890625 -2.171875 7.203125l0 15.109375l-4.6875 0zm47.59607 0l0 -3.484375q-2.625 4.109375 -7.734375 4.109375q-3.296875 0 -6.078125 -1.8125q-2.765625 -1.828125 -4.296875 -5.09375q-1.515625 -3.28125 -1.515625 -7.515625q0 -4.140625 1.375 -7.515625q1.375 -3.375 4.140625 -5.171875q2.765625 -1.796875 6.171875 -1.796875q2.5 0 4.453125 1.0625q1.953125 1.046875 3.171875 2.734375l0 -13.6875l4.671875 0l0 38.171875l-4.359375 0zm-14.8125 -13.796875q0 5.3125 2.234375 7.9375q2.25 2.625 5.296875 2.625q3.0625 0 5.203125 -2.5q2.15625 -2.515625 2.15625 -7.671875q0 -5.6875 -2.1875 -8.34375q-2.1875 -2.65625 -5.390625 -2.65625q-3.125 0 -5.21875 2.5625q-2.09375 2.546875 -2.09375 8.046875zm26.56482 -18.984375l0 -5.390625l4.6875 0l0 5.390625l-4.6875 0zm0 32.78125l0 -27.65625l4.6875 0l0 27.65625l-4.6875 0zm29.863525 -10.125l4.609375 0.59375q-0.75 4.765625 -3.875 7.46875q-3.109375 2.6875 -7.640625 2.6875q-5.671875 0 -9.125 -3.703125q-3.453125 -3.71875 -3.453125 -10.640625q0 -4.484375 1.484375 -7.84375q1.484375 -3.359375 4.515625 -5.03125q3.046875 -1.6875 6.609375 -1.6875q4.5 0 7.359375 2.28125q2.875 2.28125 3.6875 6.46875l-4.5625 0.703125q-0.65625 -2.78125 -2.3125 -4.1875q-1.640625 -1.40625 -3.984375 -1.40625q-3.546875 0 -5.765625 2.546875q-2.203125 2.53125 -2.203125 8.015625q0 5.578125 2.125 8.109375q2.140625 2.515625 5.578125 2.515625q2.765625 0 4.609375 -1.6875q1.84375 -1.6875 2.34375 -5.203125zm26.664062 6.71875q-2.609375 2.203125 -5.015625 3.125q-2.40625 0.90625 -5.171875 0.90625q-4.546875 0 -7.0 -2.21875q-2.453125 -2.234375 -2.453125 -5.703125q0 -2.03125 0.921875 -3.703125q0.9375 -1.6875 2.421875 -2.703125q1.5 -1.015625 3.375 -1.53125q1.390625 -0.359375 4.171875 -0.703125q5.671875 -0.671875 8.359375 -1.609375q0.03125 -0.96875 0.03125 -1.234375q0 -2.859375 -1.328125 -4.03125q-1.796875 -1.59375 -5.34375 -1.59375q-3.3125 0 -4.890625 1.171875q-1.5625 1.15625 -2.328125 4.09375l-4.578125 -0.625q0.625 -2.9375 2.046875 -4.75q1.4375 -1.8125 4.140625 -2.78125q2.71875 -0.984375 6.28125 -0.984375q3.546875 0 5.75 0.84375q2.21875 0.828125 3.265625 2.09375q1.046875 1.25 1.453125 3.1875q0.234375 1.1875 0.234375 4.3125l0 6.25q0 6.546875 0.296875 8.28125q0.3125 1.71875 1.1875 3.3125l-4.890625 0q-0.734375 -1.453125 -0.9375 -3.40625zm-0.390625 -10.46875q-2.546875 1.03125 -7.65625 1.765625q-2.890625 0.421875 -4.09375 0.9375q-1.1875 0.515625 -1.84375 1.53125q-0.65625 1.0 -0.65625 2.21875q0 1.875 1.421875 3.125q1.421875 1.25 4.15625 1.25q2.703125 0 4.8125 -1.1875q2.109375 -1.1875 3.109375 -3.234375q0.75 -1.59375 0.75 -4.6875l0 -1.71875zm22.236694 9.6875l0.671875 4.140625q-1.96875 0.40625 -3.53125 0.40625q-2.5625 0 -3.96875 -0.796875q-1.40625 -0.8125 -1.984375 -2.125q-0.5625 -1.3125 -0.5625 -5.53125l0 -15.921875l-3.4375 0l0 -3.640625l3.4375 0l0 -6.84375l4.65625 -2.8125l0 9.65625l4.71875 0l0 3.640625l-4.71875 0l0 16.171875q0 2.015625 0.25 2.59375q0.25 0.5625 0.8125 0.90625q0.5625 0.328125 1.59375 0.328125q0.78125 0 2.0625 -0.171875zm23.51941 -4.71875l4.828125 0.59375q-1.140625 4.25 -4.234375 6.59375q-3.09375 2.34375 -7.921875 2.34375q-6.0625 0 -9.625 -3.734375q-3.546875 -3.734375 -3.546875 -10.484375q0 -6.984375 3.59375 -10.828125q3.59375 -3.859375 9.328125 -3.859375q5.546875 0 9.046875 3.78125q3.515625 3.765625 3.515625 10.625q0 0.40625 -0.015625 1.25l-20.625 0q0.265625 4.546875 2.578125 6.96875q2.3125 2.421875 5.78125 2.421875q2.578125 0 4.390625 -1.34375q1.828125 -1.359375 2.90625 -4.328125zm-15.390625 -7.578125l15.4375 0q-0.3125 -3.484375 -1.765625 -5.234375q-2.25 -2.703125 -5.8125 -2.703125q-3.234375 0 -5.4375 2.15625q-2.1875 2.15625 -2.421875 5.78125zm24.236694 8.234375l4.640625 -0.734375q0.390625 2.78125 2.171875 4.265625q1.78125 1.484375 4.984375 1.484375q3.234375 0 4.796875 -1.3125q1.5625 -1.3125 1.5625 -3.078125q0 -1.59375 -1.390625 -2.5q-0.953125 -0.625 -4.78125 -1.59375q-5.15625 -1.296875 -7.15625 -2.25q-1.984375 -0.953125 -3.015625 -2.625q-1.03125 -1.6875 -1.03125 -3.71875q0 -1.84375 0.84375 -3.421875q0.84375 -1.578125 2.3125 -2.625q1.09375 -0.796875 2.96875 -1.359375q1.890625 -0.5625 4.0625 -0.5625q3.25 0 5.703125 0.9375q2.46875 0.9375 3.640625 2.546875q1.171875 1.59375 1.609375 4.28125l-4.578125 0.625q-0.3125 -2.140625 -1.8125 -3.328125q-1.5 -1.203125 -4.234375 -1.203125q-3.21875 0 -4.609375 1.0625q-1.375 1.0625 -1.375 2.5q0 0.90625 0.578125 1.640625q0.5625 0.75 1.796875 1.25q0.703125 0.265625 4.140625 1.203125q4.96875 1.328125 6.9375 2.171875q1.96875 0.84375 3.078125 2.46875q1.125 1.609375 1.125 4.0q0 2.34375 -1.375 4.421875q-1.359375 2.0625 -3.9375 3.203125q-2.578125 1.125 -5.828125 1.125q-5.390625 0 -8.21875 -2.234375q-2.828125 -2.25 -3.609375 -6.640625zm61.4021 4.84375q-2.609375 2.203125 -5.015625 3.125q-2.40625 0.90625 -5.171875 0.90625q-4.546875 0 -7.0 -2.21875q-2.453125 -2.234375 -2.453125 -5.703125q0 -2.03125 0.921875 -3.703125q0.9375 -1.6875 2.421875 -2.703125q1.5 -1.015625 3.375 -1.53125q1.390625 -0.359375 4.171875 -0.703125q5.671875 -0.671875 8.359375 -1.609375q0.03125 -0.96875 0.03125 -1.234375q0 -2.859375 -1.328125 -4.03125q-1.796875 -1.59375 -5.34375 -1.59375q-3.3125 0 -4.890625 1.171875q-1.5625 1.15625 -2.328125 4.09375l-4.578125 -0.625q0.625 -2.9375 2.046875 -4.75q1.4375 -1.8125 4.140625 -2.78125q2.71875 -0.984375 6.28125 -0.984375q3.546875 0 5.75 0.84375q2.21875 0.828125 3.265625 2.09375q1.046875 1.25 1.453125 3.1875q0.234375 1.1875 0.234375 4.3125l0 6.25q0 6.546875 0.296875 8.28125q0.3125 1.71875 1.1875 3.3125l-4.890625 0q-0.734375 -1.453125 -0.9375 -3.40625zm-0.390625 -10.46875q-2.546875 1.03125 -7.65625 1.765625q-2.890625 0.421875 -4.09375 0.9375q-1.1875 0.515625 -1.84375 1.53125q-0.65625 1.0 -0.65625 2.21875q0 1.875 1.421875 3.125q1.421875 1.25 4.15625 1.25q2.703125 0 4.8125 -1.1875q2.109375 -1.1875 3.109375 -3.234375q0.75 -1.59375 0.75 -4.6875l0 -1.71875zm22.236694 9.6875l0.671875 4.140625q-1.96875 0.40625 -3.53125 0.40625q-2.5625 0 -3.96875 -0.796875q-1.40625 -0.8125 -1.984375 -2.125q-0.5625 -1.3125 -0.5625 -5.53125l0 -15.921875l-3.4375 0l0 -3.640625l3.4375 0l0 -6.84375l4.65625 -2.8125l0 9.65625l4.71875 0l0 3.640625l-4.71875 0l0 16.171875q0 2.015625 0.25 2.59375q0.25 0.5625 0.8125 0.90625q0.5625 0.328125 1.59375 0.328125q0.78125 0 2.0625 -0.171875zm2.8319092 -9.640625q0 -7.6875 4.28125 -11.375q3.5625 -3.078125 8.6875 -3.078125q5.703125 0 9.3125 3.734375q3.625 3.734375 3.625 10.328125q0 5.34375 -1.59375 8.40625q-1.59375 3.046875 -4.65625 4.75q-3.0625 1.6875 -6.6875 1.6875q-5.796875 0 -9.390625 -3.71875q-3.578125 -3.734375 -3.578125 -10.734375zm4.828125 0q0 5.3125 2.3125 7.953125q2.3125 2.640625 5.828125 2.640625q3.5 0 5.8125 -2.65625q2.3125 -2.65625 2.3125 -8.09375q0 -5.125 -2.328125 -7.765625q-2.328125 -2.65625 -5.796875 -2.65625q-3.515625 0 -5.828125 2.640625q-2.3125 2.625 -2.3125 7.9375zm26.580444 13.828125l0 -27.65625l4.1875 0l0 3.875q1.3125 -2.03125 3.46875 -3.265625q2.15625 -1.234375 4.921875 -1.234375q3.078125 0 5.03125 1.28125q1.96875 1.265625 2.78125 3.5625q3.28125 -4.84375 8.53125 -4.84375q4.125 0 6.328125 2.28125q2.21875 2.28125 2.21875 7.015625l0 18.984375l-4.65625 0l0 -17.421875q0 -2.8125 -0.46875 -4.046875q-0.453125 -1.234375 -1.65625 -1.984375q-1.1875 -0.765625 -2.796875 -0.765625q-2.921875 0 -4.84375 1.9375q-1.921875 1.9375 -1.921875 6.21875l0 16.0625l-4.6875 0l0 -17.96875q0 -3.125 -1.15625 -4.6875q-1.140625 -1.5625 -3.75 -1.5625q-1.96875 0 -3.65625 1.046875q-1.671875 1.03125 -2.4375 3.046875q-0.75 2.0 -0.75 5.78125l0 14.34375l-4.6875 0zm44.45398 -32.78125l0 -5.390625l4.6875 0l0 5.390625l-4.6875 0zm0 32.78125l0 -27.65625l4.6875 0l0 27.65625l-4.6875 0zm29.863403 -10.125l4.609375 0.59375q-0.75 4.765625 -3.875 7.46875q-3.109375 2.6875 -7.640625 2.6875q-5.671875 0 -9.125 -3.703125q-3.453125 -3.71875 -3.453125 -10.640625q0 -4.484375 1.484375 -7.84375q1.484375 -3.359375 4.515625 -5.03125q3.046875 -1.6875 6.609375 -1.6875q4.5 0 7.359375 2.28125q2.875 2.28125 3.6875 6.46875l-4.5625 0.703125q-0.65625 -2.78125 -2.3125 -4.1875q-1.640625 -1.40625 -3.984375 -1.40625q-3.546875 0 -5.765625 2.546875q-2.203125 2.53125 -2.203125 8.015625q0 5.578125 2.125 8.109375q2.140625 2.515625 5.578125 2.515625q2.765625 0 4.609375 -1.6875q1.84375 -1.6875 2.34375 -5.203125z" fill-rule="nonzero"/><path fill="#b6d7a8" d="m1997.1221 1243.0276l250.45679 0l0 93.921265l-250.45679 0z" fill-rule="evenodd"/><path stroke="#000000" stroke-width="1.0" stroke-linejoin="round" stroke-linecap="butt" d="m1997.1221 1243.0276l250.45679 0l0 93.921265l-250.45679 0z" fill-rule="evenodd"/><path fill="#000000" d="m2080.78 1315.0482l-6.09375 0l0 -38.828125q-2.203125 2.09375 -5.78125 4.203125q-3.5625 2.09375 -6.40625 3.140625l0 -5.890625q5.109375 -2.40625 8.9375 -5.8125q3.828125 -3.421875 5.421875 -6.640625l3.921875 0l0 49.828125zm28.94751 14.59375q-5.046875 -6.375 -8.53125 -14.890625q-3.484375 -8.53125 -3.484375 -17.671875q0 -8.0625 2.59375 -15.4375q3.046875 -8.5625 9.421875 -17.0625l4.359375 0q-4.09375 7.03125 -5.40625 10.046875q-2.078125 4.671875 -3.25 9.75q-1.46875 6.328125 -1.46875 12.734375q0 16.28125 10.125 32.53125l-4.359375 0zm12.211914 -14.59375l0 -49.625l17.09375 0q5.796875 0 8.84375 0.703125q4.265625 0.984375 7.28125 3.5625q3.921875 3.3125 5.859375 8.484375q1.953125 5.15625 1.953125 11.796875q0 5.640625 -1.328125 10.015625q-1.3125 4.359375 -3.375 7.234375q-2.0625 2.859375 -4.515625 4.5q-2.453125 1.640625 -5.921875 2.484375q-3.46875 0.84375 -7.984375 0.84375l-17.90625 0zm6.578125 -5.859375l10.59375 0q4.90625 0 7.6875 -0.90625q2.796875 -0.921875 4.46875 -2.578125q2.328125 -2.328125 3.625 -6.265625q1.3125 -3.953125 1.3125 -9.578125q0 -7.78125 -2.5625 -11.953125q-2.546875 -4.1875 -6.203125 -5.609375q-2.640625 -1.015625 -8.5 -1.015625l-10.421875 0l0 37.90625zm46.70703 20.453125l-4.359375 0q10.109375 -16.25 10.109375 -32.53125q0 -6.375 -1.453125 -12.625q-1.140625 -5.078125 -3.21875 -9.75q-1.3125 -3.046875 -5.4375 -10.15625l4.359375 0q6.359375 8.5 9.40625 17.0625q2.609375 7.375 2.609375 15.4375q0 9.140625 -3.5 17.671875q-3.5 8.515625 -8.515625 14.890625z" fill-rule="nonzero"/><path fill="#000000" fill-opacity="0.0" d="m2247.5579 1243.0276l109.73218 0l0 93.921265l-109.73218 0z" fill-rule="evenodd"/><path stroke="#000000" stroke-width="1.0" stroke-linejoin="round" stroke-linecap="butt" d="m2247.5579 1243.0276l109.73218 0l0 93.921265l-109.73218 0z" fill-rule="evenodd"/><path fill="#b6d7a8" d="m1350.3083 1243.0276l250.45679 0l0 93.921265l-250.45679 0z" fill-rule="evenodd"/><path stroke="#000000" stroke-width="1.0" stroke-linejoin="round" stroke-linecap="butt" d="m1350.3083 1243.0276l250.45679 0l0 93.921265l-250.45679 0z" fill-rule="evenodd"/><path fill="#000000" d="m1443.0444 1309.1888l0 5.859375l-32.8125 0q-0.0625 -2.203125 0.71875 -4.234375q1.25 -3.34375 4.0 -6.59375q2.765625 -3.25 7.984375 -7.515625q8.09375 -6.640625 10.9375 -10.515625q2.84375 -3.875 2.84375 -7.328125q0 -3.625 -2.59375 -6.109375q-2.59375 -2.484375 -6.75 -2.484375q-4.40625 0 -7.046875 2.640625q-2.640625 2.640625 -2.671875 7.3125l-6.265625 -0.640625q0.640625 -7.015625 4.828125 -10.6875q4.203125 -3.671875 11.28125 -3.671875q7.140625 0 11.296875 3.96875q4.171875 3.953125 4.171875 9.8125q0 2.96875 -1.21875 5.859375q-1.21875 2.875 -4.046875 6.0625q-2.8125 3.171875 -9.390625 8.71875q-5.484375 4.609375 -7.046875 6.25q-1.546875 1.640625 -2.5625 3.296875l24.34375 0zm19.869507 20.453125q-5.046875 -6.375 -8.53125 -14.890625q-3.484375 -8.53125 -3.484375 -17.671875q0 -8.0625 2.59375 -15.4375q3.046875 -8.5625 9.421875 -17.0625l4.359375 0q-4.09375 7.03125 -5.40625 10.046875q-2.078125 4.671875 -3.25 9.75q-1.46875 6.328125 -1.46875 12.734375q0 16.28125 10.125 32.53125l-4.359375 0zm12.211792 -14.59375l0 -49.625l17.09375 0q5.796875 0 8.84375 0.703125q4.265625 0.984375 7.28125 3.5625q3.921875 3.3125 5.859375 8.484375q1.953125 5.15625 1.953125 11.796875q0 5.640625 -1.328125 10.015625q-1.3125 4.359375 -3.375 7.234375q-2.0625 2.859375 -4.515625 4.5q-2.453125 1.640625 -5.921875 2.484375q-3.46875 0.84375 -7.984375 0.84375l-17.90625 0zm6.578125 -5.859375l10.59375 0q4.90625 0 7.6875 -0.90625q2.796875 -0.921875 4.46875 -2.578125q2.328125 -2.328125 3.625 -6.265625q1.3125 -3.953125 1.3125 -9.578125q0 -7.78125 -2.5625 -11.953125q-2.546875 -4.1875 -6.203125 -5.609375q-2.640625 -1.015625 -8.5 -1.015625l-10.421875 0l0 37.90625zm46.707153 20.453125l-4.359375 0q10.109375 -16.25 10.109375 -32.53125q0 -6.375 -1.453125 -12.625q-1.140625 -5.078125 -3.21875 -9.75q-1.3125 -3.046875 -5.4375 -10.15625l4.359375 0q6.359375 8.5 9.40625 17.0625q2.609375 7.375 2.609375 15.4375q0 9.140625 -3.5 17.671875q-3.5 8.515625 -8.515625 14.890625z" fill-rule="nonzero"/><path fill="#000000" fill-opacity="0.0" d="m1600.7441 1243.0276l109.73218 0l0 93.921265l-109.73218 0z" fill-rule="evenodd"/><path stroke="#000000" stroke-width="1.0" stroke-linejoin="round" stroke-linecap="butt" d="m1600.7441 1243.0276l109.73218 0l0 93.921265l-109.73218 0z" fill-rule="evenodd"/><path fill="#000000" fill-opacity="0.0" d="m1643.4843 1291.311c88.409424 0 132.61414 -0.33068848 176.81885 -0.66137695c44.204834 -0.33081055 88.409546 -0.661499 176.81897 -0.661499" fill-rule="evenodd"/><path stroke="#000000" stroke-width="4.0" stroke-linejoin="round" stroke-linecap="butt" d="m1662.6044 1291.3049l12.0477295 -0.0087890625c9.755981 -0.009643555 18.907715 -0.023803711 27.541504 -0.041992188c17.267578 -0.036132812 32.46289 -0.087768555 46.276855 -0.14978027c27.62793 -0.12402344 49.730347 -0.2894287 71.83264 -0.4547119c22.102417 -0.16540527 44.204834 -0.33081055 71.83276 -0.45483398c13.813965 -0.06188965 29.009277 -0.11364746 46.276855 -0.14978027c8.633667 -0.018188477 17.7854 -0.032348633 27.541504 -0.041992188l13.643188 -0.010009766" fill-rule="evenodd"/><path fill="#000000" stroke="#000000" stroke-width="4.0" stroke-linecap="butt" d="m1645.4843 1291.3104c-0.0014648438 -4.727539 3.829712 -8.561279 8.557251 -8.562744c4.727661 -0.0014648438 8.561279 3.829712 8.562744 8.557373c0.0014648438 4.727539 -3.829712 8.561157 -8.557251 8.562622c-4.727661 0.0014648438 -8.561279 -3.829712 -8.562744 -8.557251z" fill-rule="nonzero"/><path fill="#000000" stroke="#000000" stroke-width="4.0" stroke-linecap="butt" d="m1979.5975 1289.993l-6.680298 6.68396l18.357178 -6.687134l-18.36084 -6.677124z" fill-rule="evenodd"/><path fill="#b6d7a8" d="m2643.9358 1243.0276l250.45654 0l0 93.921265l-250.45654 0z" fill-rule="evenodd"/><path stroke="#000000" stroke-width="1.0" stroke-linejoin="round" stroke-linecap="butt" d="m2643.9358 1243.0276l250.45654 0l0 93.921265l-250.45654 0z" fill-rule="evenodd"/><path fill="#000000" d="m2704.6716 1301.9545l6.09375 -0.8125q1.046875 5.171875 3.5625 7.46875q2.53125 2.28125 6.15625 2.28125q4.296875 0 7.25 -2.984375q2.96875 -2.984375 2.96875 -7.375q0 -4.203125 -2.75 -6.921875q-2.734375 -2.734375 -6.953125 -2.734375q-1.734375 0 -4.3125 0.671875l0.6875 -5.34375q0.609375 0.0625 0.984375 0.0625q3.890625 0 7.0 -2.03125q3.109375 -2.03125 3.109375 -6.25q0 -3.359375 -2.265625 -5.546875q-2.265625 -2.203125 -5.859375 -2.203125q-3.546875 0 -5.921875 2.234375q-2.359375 2.234375 -3.046875 6.703125l-6.09375 -1.09375q1.125 -6.125 5.078125 -9.484375q3.96875 -3.375 9.859375 -3.375q4.0625 0 7.46875 1.75q3.421875 1.734375 5.234375 4.75q1.8125 3.015625 1.8125 6.390625q0 3.21875 -1.734375 5.859375q-1.71875 2.640625 -5.09375 4.203125q4.390625 1.015625 6.828125 4.21875q2.4375 3.1875 2.4375 8.0q0 6.5 -4.734375 11.015625q-4.734375 4.515625 -11.984375 4.515625q-6.53125 0 -10.859375 -3.890625q-4.3125 -3.890625 -4.921875 -10.078125zm51.86963 27.6875q-5.046875 -6.375 -8.53125 -14.890625q-3.484375 -8.53125 -3.484375 -17.671875q0 -8.0625 2.59375 -15.4375q3.046875 -8.5625 9.421875 -17.0625l4.359375 0q-4.09375 7.03125 -5.40625 10.046875q-2.078125 4.671875 -3.25 9.75q-1.46875 6.328125 -1.46875 12.734375q0 16.28125 10.125 32.53125l-4.359375 0zm12.21167 -14.59375l0 -49.625l17.09375 0q5.796875 0 8.84375 0.703125q4.265625 0.984375 7.28125 3.5625q3.921875 3.3125 5.859375 8.484375q1.953125 5.15625 1.953125 11.796875q0 5.640625 -1.328125 10.015625q-1.3125 4.359375 -3.375 7.234375q-2.0625 2.859375 -4.515625 4.5q-2.453125 1.640625 -5.921875 2.484375q-3.46875 0.84375 -7.984375 0.84375l-17.90625 0zm6.578125 -5.859375l10.59375 0q4.90625 0 7.6875 -0.90625q2.796875 -0.921875 4.46875 -2.578125q2.328125 -2.328125 3.625 -6.265625q1.3125 -3.953125 1.3125 -9.578125q0 -7.78125 -2.5625 -11.953125q-2.546875 -4.1875 -6.203125 -5.609375q-2.640625 -1.015625 -8.5 -1.015625l-10.421875 0l0 37.90625zm46.707275 20.453125l-4.359375 0q10.109375 -16.25 10.109375 -32.53125q0 -6.375 -1.453125 -12.625q-1.140625 -5.078125 -3.21875 -9.75q-1.3125 -3.046875 -5.4375 -10.15625l4.359375 0q6.359375 8.5 9.40625 17.0625q2.609375 7.375 2.609375 15.4375q0 9.140625 -3.5 17.671875q-3.5 8.515625 -8.515625 14.890625z" fill-rule="nonzero"/><path fill="#000000" fill-opacity="0.0" d="m2894.3713 1243.0276l109.73242 0l0 93.921265l-109.73242 0z" fill-rule="evenodd"/><path stroke="#000000" stroke-width="1.0" stroke-linejoin="round" stroke-linecap="butt" d="m2894.3713 1243.0276l109.73242 0l0 93.921265l-109.73242 0z" fill-rule="evenodd"/><path fill="#000000" fill-opacity="0.0" d="m2292.6318 1290.6497c88.409424 0 132.61401 -0.33081055 176.81885 -0.661499c44.20459 -0.33068848 88.409424 -0.66137695 176.81885 -0.66137695" fill-rule="evenodd"/><path stroke="#000000" stroke-width="4.0" stroke-linejoin="round" stroke-linecap="butt" d="m2311.7517 1290.6436l12.047852 -0.0087890625c9.7561035 -0.009643555 18.907715 -0.023925781 27.541748 -0.041992188c17.267334 -0.036132812 32.462646 -0.087890625 46.27661 -0.14990234c27.62793 -0.12402344 49.730225 -0.28930664 71.83276 -0.4547119c22.102295 -0.1652832 44.20459 -0.33068848 71.83252 -0.4547119c13.813965 -0.06201172 29.009521 -0.11364746 46.276855 -0.14978027c8.633789 -0.018188477 17.785645 -0.032348633 27.541748 -0.041992188l13.643066 -0.010009766" fill-rule="evenodd"/><path fill="#000000" stroke="#000000" stroke-width="4.0" stroke-linecap="butt" d="m2294.6318 1290.6489c-0.0017089844 -4.727539 3.8295898 -8.561157 8.557129 -8.562622c4.727539 -0.0014648438 8.561279 3.829712 8.562744 8.557251c0.0014648438 4.727539 -3.829834 8.561279 -8.557373 8.562744c-4.727539 0.0014648438 -8.561035 -3.829712 -8.5625 -8.557373z" fill-rule="nonzero"/><path fill="#000000" stroke="#000000" stroke-width="4.0" stroke-linecap="butt" d="m2628.745 1289.3317l-6.68042 6.68396l18.357178 -6.687256l-18.36084 -6.677002z" fill-rule="evenodd"/><path fill="#000000" fill-opacity="0.0" d="m698.2874 1243.0276l109.7323 0l0 93.921265l-109.7323 0z" fill-rule="evenodd"/><path stroke="#000000" stroke-width="1.0" stroke-linejoin="round" stroke-linecap="butt" d="m698.2874 1243.0276l109.7323 0l0 93.921265l-109.7323 0z" fill-rule="evenodd"/><path fill="#000000" fill-opacity="0.0" d="m740.6706 1290.6497c152.40948 0 228.6142 -0.16540527 304.8189 -0.33081055c76.20471 -0.1652832 152.40942 -0.33068848 304.81885 -0.33068848" fill-rule="evenodd"/><path stroke="#000000" stroke-width="4.0" stroke-linejoin="round" stroke-linecap="butt" d="m759.7906 1290.6483l8.582336 -6.1035156E-4c8.948853 -0.0012207031 17.618652 -0.0030517578 26.028015 -0.0056152344c16.818542 -0.004760742 32.595276 -0.01184082 47.479065 -0.020874023c29.767456 -0.018066406 55.96283 -0.043945312 79.776794 -0.07495117c47.62799 -0.06201172 85.73035 -0.14465332 123.8327 -0.22741699c38.102417 -0.0826416 76.20471 -0.1652832 123.83264 -0.22729492c23.813965 -0.03100586 50.0094 -0.056884766 79.776855 -0.07495117c14.883789 -0.009033203 30.660522 -0.016113281 47.479126 -0.020996094c8.409302 -0.0024414062 17.079102 -0.004272461 26.027954 -0.005493164l10.177856 -7.324219E-4" fill-rule="evenodd"/><path fill="#000000" stroke="#000000" stroke-width="4.0" stroke-linecap="butt" d="m742.6706 1290.6494c-3.0517578E-4 -4.727539 3.8318481 -8.560181 8.559448 -8.560547c4.727539 -3.6621094E-4 8.560242 3.8319092 8.560547 8.559448c3.6621094E-4 4.727539 -3.8318481 8.560303 -8.559387 8.560547c-4.727539 3.6621094E-4 -8.560303 -3.831787 -8.560608 -8.559448z" fill-rule="nonzero"/><path fill="#000000" stroke="#000000" stroke-width="4.0" stroke-linecap="butt" d="m1332.7838 1289.9894l-6.6816406 6.682617l18.358643 -6.6833496l-18.359497 -6.680908z" fill-rule="evenodd"/><path fill="#000000" fill-opacity="0.0" d="m609.21655 1100.9174l287.87402 0l0 155.14954l-287.87402 0z" fill-rule="evenodd"/><path fill="#000000" d="m680.60205 1202.4773l0 -49.625l6.09375 0l0 17.796875q4.265625 -4.9375 10.765625 -4.9375q4.0 0 6.9375 1.578125q2.953125 1.578125 4.21875 4.359375q1.28125 2.765625 1.28125 8.046875l0 22.78125l-6.09375 0l0 -22.78125q0 -4.578125 -1.984375 -6.65625q-1.984375 -2.078125 -5.609375 -2.078125q-2.703125 0 -5.09375 1.40625q-2.390625 1.40625 -3.40625 3.8125q-1.015625 2.390625 -1.015625 6.625l0 19.671875l-6.09375 0zm63.182007 -11.578125l6.28125 0.78125q-1.484375 5.515625 -5.515625 8.5625q-4.015625 3.046875 -10.28125 3.046875q-7.890625 0 -12.515625 -4.859375q-4.625 -4.859375 -4.625 -13.625q0 -9.078125 4.671875 -14.078125q4.671875 -5.015625 12.125 -5.015625q7.21875 0 11.78125 4.90625q4.5625 4.90625 4.5625 13.8125q0 0.546875 -0.03125 1.625l-26.8125 0q0.34375 5.921875 3.359375 9.078125q3.015625 3.140625 7.515625 3.140625q3.34375 0 5.71875 -1.75q2.375 -1.765625 3.765625 -5.625zm-20.015625 -9.84375l20.078125 0q-0.40625 -4.546875 -2.296875 -6.8125q-2.921875 -3.515625 -7.5625 -3.515625q-4.1875 0 -7.046875 2.8125q-2.859375 2.796875 -3.171875 7.515625zm57.41638 16.984375q-3.390625 2.875 -6.53125 4.0625q-3.125 1.1875 -6.703125 1.1875q-5.921875 0 -9.109375 -2.890625q-3.1875 -2.890625 -3.1875 -7.40625q0 -2.640625 1.203125 -4.8125q1.203125 -2.1875 3.140625 -3.5q1.953125 -1.328125 4.390625 -2.0q1.796875 -0.484375 5.421875 -0.921875q7.375 -0.875 10.859375 -2.09375q0.046875 -1.25 0.046875 -1.59375q0 -3.71875 -1.734375 -5.25q-2.328125 -2.0625 -6.9375 -2.0625q-4.296875 0 -6.34375 1.515625q-2.046875 1.5 -3.03125 5.328125l-5.96875 -0.8125q0.8125 -3.828125 2.671875 -6.171875q1.875 -2.359375 5.390625 -3.625q3.515625 -1.28125 8.15625 -1.28125q4.609375 0 7.484375 1.09375q2.875 1.078125 4.234375 2.71875q1.359375 1.640625 1.890625 4.140625q0.3125 1.5625 0.3125 5.625l0 8.125q0 8.5 0.390625 10.75q0.390625 2.25 1.53125 4.3125l-6.359375 0q-0.953125 -1.890625 -1.21875 -4.4375zm-0.515625 -13.609375q-3.3125 1.359375 -9.953125 2.3125q-3.75 0.53125 -5.3125 1.21875q-1.546875 0.671875 -2.40625 1.984375q-0.84375 1.296875 -0.84375 2.890625q0 2.4375 1.84375 4.0625q1.84375 1.625 5.40625 1.625q3.515625 0 6.25 -1.546875q2.75 -1.546875 4.046875 -4.21875q0.96875 -2.0625 0.96875 -6.09375l0 -2.234375zm38.932007 18.046875l0 -4.53125q-3.421875 5.34375 -10.046875 5.34375q-4.296875 0 -7.90625 -2.359375q-3.609375 -2.375 -5.59375 -6.625q-1.96875 -4.25 -1.96875 -9.765625q0 -5.390625 1.78125 -9.765625q1.796875 -4.390625 5.390625 -6.71875q3.59375 -2.34375 8.015625 -2.34375q3.25 0 5.78125 1.375q2.546875 1.375 4.140625 3.5625l0 -17.796875l6.0625 0l0 49.625l-5.65625 0zm-19.265625 -17.9375q0 6.90625 2.90625 10.328125q2.921875 3.40625 6.890625 3.40625q3.984375 0 6.78125 -3.265625q2.796875 -3.265625 2.796875 -9.96875q0 -7.375 -2.84375 -10.828125q-2.84375 -3.453125 -7.015625 -3.453125q-4.0625 0 -6.796875 3.328125q-2.71875 3.3125 -2.71875 10.453125z" fill-rule="nonzero"/><path fill="#ffe599" d="m939.2428 1539.4448l250.45667 0l0 93.921265l-250.45667 0z" fill-rule="evenodd"/><path stroke="#000000" stroke-width="1.0" stroke-linejoin="round" stroke-linecap="butt" d="m939.2428 1539.4448l250.45667 0l0 93.921265l-250.45667 0z" fill-rule="evenodd"/><path fill="#000000" d="m1034.8812 1611.4655l0 -11.875l-21.531189 0l0 -5.59375l22.656189 -32.15625l4.96875 0l0 32.15625l6.703125 0l0 5.59375l-6.703125 0l0 11.875l-6.09375 0zm0 -17.46875l0 -22.375l-15.531189 22.375l15.531189 0zm32.369507 32.0625q-5.046875 -6.375 -8.53125 -14.890625q-3.484375 -8.53125 -3.484375 -17.671875q0 -8.0625 2.59375 -15.4375q3.046875 -8.5625 9.421875 -17.0625l4.359375 0q-4.09375 7.03125 -5.40625 10.046875q-2.078125 4.671875 -3.25 9.75q-1.46875 6.328125 -1.46875 12.734375q0 16.28125 10.125 32.53125l-4.359375 0zm13.336914 -14.59375l0 -49.625l6.5625 0l0 49.625l-6.5625 0zm21.355225 14.59375l-4.359375 0q10.109375 -16.25 10.109375 -32.53125q0 -6.375 -1.453125 -12.625q-1.140625 -5.078125 -3.21875 -9.75q-1.3125 -3.046875 -5.4375 -10.15625l4.359375 0q6.359375 8.5 9.40625 17.0625q2.609375 7.375 2.609375 15.4375q0 9.140625 -3.5 17.671875q-3.5 8.515625 -8.515625 14.890625z" fill-rule="nonzero"/><path fill="#000000" fill-opacity="0.0" d="m1189.6785 1539.4448l109.7323 0l0 93.921265l-109.7323 0z" fill-rule="evenodd"/><path stroke="#000000" stroke-width="1.0" stroke-linejoin="round" stroke-linecap="butt" d="m1189.6785 1539.4448l109.7323 0l0 93.921265l-109.7323 0z" fill-rule="evenodd"/><path fill="#000000" fill-opacity="0.0" d="m1243.9777 1595.7205c0 -64.69287 57.88977 -97.03931 115.77954 -129.38586c57.88977 -32.346436 115.77954 -64.69287 115.77954 -129.38574" fill-rule="evenodd"/><path stroke="#000000" stroke-width="4.0" stroke-linejoin="round" stroke-linecap="butt" d="m1245.7654 1576.6842l0.076293945 -0.39160156c0.045166016 -0.22729492 0.09106445 -0.4543457 0.13781738 -0.6809082c0.18713379 -0.9063721 0.38671875 -1.805542 0.5987549 -2.697998c1.6959229 -7.138916 4.1833496 -13.835571 7.349243 -20.15332c6.331665 -12.635376 15.376953 -23.754517 26.231323 -33.862793c21.708618 -20.21643 50.653564 -36.38965 79.59839 -52.56299c28.944946 -16.173218 57.88977 -32.346436 79.59839 -52.56299c10.85437 -10.108276 19.899658 -21.227295 26.231323 -33.86267c3.1658936 -6.317627 5.6531982 -13.014404 7.349243 -20.15332c0.2121582 -0.89245605 0.41174316 -1.791748 0.5987549 -2.697998c0.09350586 -0.453125 0.18395996 -0.90808105 0.2709961 -1.3647461c0.043701172 -0.22827148 0.08642578 -0.45715332 0.12841797 -0.68640137l0.107177734 -0.5970459" fill-rule="evenodd"/><path fill="#000000" stroke="#000000" stroke-width="4.0" stroke-linecap="butt" d="m1244.1647 1593.7292c-4.706787 -0.4420166 -8.164185 -4.615967 -7.722168 -9.322876c0.4420166 -4.706787 4.615967 -8.164185 9.322876 -7.722168c4.706787 0.4420166 8.164185 4.615967 7.722168 9.322876c-0.4420166 4.706787 -4.615967 8.164185 -9.322876 7.722168z" fill-rule="nonzero"/><path fill="#000000" stroke="#000000" stroke-width="4.0" stroke-linecap="butt" d="m1474.0415 1354.4094l6.0877686 7.2279053l-5.0914307 -18.862183l-8.224243 17.721924z" fill-rule="evenodd"/><path fill="#000000" fill-opacity="0.0" d="m753.15356 1336.9489c0 50.631958 77.82672 75.94885 155.6535 101.263916c77.82678 25.314941 155.6535 50.627808 155.6535 101.25574" fill-rule="evenodd"/><path stroke="#000000" stroke-width="4.0" stroke-linejoin="round" stroke-linecap="butt" stroke-dasharray="16.0,12.0" d="m753.15356 1336.9489c0 50.631836 77.82672 75.948975 155.6535 101.263916c38.91339 12.657471 77.82678 25.314453 107.01184 41.135498c14.592468 7.9106445 26.75299 16.61206 35.265198 26.500366c4.2562256 4.9439697 7.6002197 10.184692 9.880371 15.771606c0.07128906 0.17456055 0.14147949 0.34960938 0.21069336 0.5247803l0.03967285 0.10217285" fill-rule="evenodd"/><path fill="#000000" stroke="#000000" stroke-width="4.0" stroke-linecap="butt" d="m1061.2148 1522.2472l-7.804199 -5.3288574l9.966919 16.80371l3.1661377 -19.279053z" fill-rule="evenodd"/><path fill="#000000" fill-opacity="0.0" d="m353.75198 1375.1771l959.874 0l0 155.14966l-959.874 0z" fill-rule="evenodd"/><path fill="#000000" d="m423.65823 1470.8778l0 5.859375l-32.8125 0q-0.0625 -2.203125 0.71875 -4.234375q1.25 -3.34375 4.0 -6.59375q2.765625 -3.25 7.984375 -7.515625q8.09375 -6.640625 10.9375 -10.515625q2.84375 -3.875 2.84375 -7.328125q0 -3.625 -2.59375 -6.109375q-2.59375 -2.484375 -6.75 -2.484375q-4.40625 0 -7.046875 2.640625q-2.640625 2.640625 -2.671875 7.3125l-6.265625 -0.640625q0.640625 -7.015625 4.828125 -10.6875q4.203125 -3.671875 11.28125 -3.671875q7.140625 0 11.296875 3.96875q4.171875 3.953125 4.171875 9.8125q0 2.96875 -1.21875 5.859375q-1.21875 2.875 -4.046875 6.0625q-2.8125 3.171875 -9.390625 8.71875q-5.484375 4.609375 -7.046875 6.25q-1.546875 1.640625 -2.5625 3.296875l24.34375 0zm9.947632 5.859375l0 -6.9375l6.9375 0l0 6.9375l-6.9375 0zm72.97629 -17.40625l6.578125 1.671875q-2.0625 8.078125 -7.4375 12.328125q-5.359375 4.25 -13.109375 4.25q-8.03125 0 -13.0625 -3.265625q-5.015625 -3.265625 -7.640625 -9.453125q-2.625 -6.203125 -2.625 -13.3125q0 -7.75 2.953125 -13.515625q2.96875 -5.78125 8.4375 -8.765625q5.46875 -3.0 12.03125 -3.0q7.453125 0 12.53125 3.796875q5.078125 3.78125 7.078125 10.65625l-6.46875 1.515625q-1.734375 -5.40625 -5.015625 -7.875q-3.28125 -2.484375 -8.25 -2.484375q-5.734375 0 -9.578125 2.75q-3.828125 2.734375 -5.390625 7.359375q-1.5625 4.625 -1.5625 9.53125q0 6.328125 1.84375 11.0625q1.84375 4.71875 5.734375 7.0625q3.90625 2.328125 8.4375 2.328125q5.515625 0 9.34375 -3.1875q3.828125 -3.1875 5.171875 -9.453125zm9.222778 17.40625l19.046875 -49.625l7.078125 0l20.3125 49.625l-7.484375 0l-5.78125 -15.03125l-20.75 0l-5.453125 15.03125l-6.96875 0zm14.3125 -20.375l16.828125 0l-5.1875 -13.75q-2.359375 -6.265625 -3.515625 -10.28125q-0.953125 4.765625 -2.671875 9.46875l-5.453125 14.5625zm35.131958 4.4375l6.203125 -0.546875q0.4375 3.71875 2.046875 6.109375q1.609375 2.390625 4.984375 3.859375q3.390625 1.46875 7.625 1.46875q3.75 0 6.625 -1.109375q2.890625 -1.125 4.28125 -3.0625q1.40625 -1.953125 1.40625 -4.25q0 -2.34375 -1.359375 -4.078125q-1.34375 -1.75 -4.453125 -2.9375q-2.0 -0.78125 -8.84375 -2.421875q-6.828125 -1.640625 -9.578125 -3.09375q-3.546875 -1.859375 -5.296875 -4.609375q-1.734375 -2.765625 -1.734375 -6.1875q0 -3.75 2.125 -7.015625q2.140625 -3.28125 6.234375 -4.96875q4.09375 -1.6875 9.109375 -1.6875q5.515625 0 9.71875 1.78125q4.21875 1.765625 6.484375 5.21875q2.265625 3.453125 2.4375 7.828125l-6.296875 0.46875q-0.5 -4.703125 -3.4375 -7.109375q-2.921875 -2.40625 -8.640625 -2.40625q-5.953125 0 -8.6875 2.1875q-2.71875 2.1875 -2.71875 5.265625q0 2.671875 1.921875 4.390625q1.90625 1.734375 9.90625 3.546875q8.0 1.8125 10.984375 3.15625q4.328125 2.0 6.390625 5.0625q2.078125 3.0625 2.078125 7.0625q0 3.96875 -2.28125 7.46875q-2.265625 3.5 -6.515625 5.453125q-4.234375 1.9375 -9.5625 1.9375q-6.734375 0 -11.296875 -1.953125q-4.546875 -1.96875 -7.140625 -5.90625q-2.578125 -3.953125 -2.71875 -8.921875zm59.350708 30.53125q-5.046875 -6.375 -8.53125 -14.890625q-3.484375 -8.53125 -3.484375 -17.671875q0 -8.0625 2.59375 -15.4375q3.046875 -8.5625 9.421875 -17.0625l4.359375 0q-4.09375 7.03125 -5.40625 10.046875q-2.078125 4.671875 -3.25 9.75q-1.46875 6.328125 -1.46875 12.734375q0 16.28125 10.125 32.53125l-4.359375 0zm11.430542 -14.59375l0 -49.625l6.09375 0l0 17.796875q4.265625 -4.9375 10.765625 -4.9375q4.0 0 6.9375 1.578125q2.953125 1.578125 4.21875 4.359375q1.28125 2.765625 1.28125 8.046875l0 22.78125l-6.09375 0l0 -22.78125q0 -4.578125 -1.984375 -6.65625q-1.984375 -2.078125 -5.609375 -2.078125q-2.703125 0 -5.09375 1.40625q-2.390625 1.40625 -3.40625 3.8125q-1.015625 2.390625 -1.015625 6.625l0 19.671875l-6.09375 0zm63.182007 -11.578125l6.28125 0.78125q-1.484375 5.515625 -5.515625 8.5625q-4.015625 3.046875 -10.28125 3.046875q-7.890625 0 -12.515625 -4.859375q-4.625 -4.859375 -4.625 -13.625q0 -9.078125 4.671875 -14.078125q4.671875 -5.015625 12.125 -5.015625q7.21875 0 11.78125 4.90625q4.5625 4.90625 4.5625 13.8125q0 0.546875 -0.03125 1.625l-26.8125 0q0.34375 5.921875 3.359375 9.078125q3.015625 3.140625 7.515625 3.140625q3.34375 0 5.71875 -1.75q2.375 -1.765625 3.765625 -5.625zm-20.015625 -9.84375l20.078125 0q-0.40625 -4.546875 -2.296875 -6.8125q-2.921875 -3.515625 -7.5625 -3.515625q-4.1875 0 -7.046875 2.8125q-2.859375 2.796875 -3.171875 7.515625zm57.41638 16.984375q-3.390625 2.875 -6.53125 4.0625q-3.125 1.1875 -6.703125 1.1875q-5.921875 0 -9.109375 -2.890625q-3.1875 -2.890625 -3.1875 -7.40625q0 -2.640625 1.203125 -4.8125q1.203125 -2.1875 3.140625 -3.5q1.953125 -1.328125 4.390625 -2.0q1.796875 -0.484375 5.421875 -0.921875q7.375 -0.875 10.859375 -2.09375q0.046875 -1.25 0.046875 -1.59375q0 -3.71875 -1.734375 -5.25q-2.328125 -2.0625 -6.9375 -2.0625q-4.296875 0 -6.34375 1.515625q-2.046875 1.5 -3.03125 5.328125l-5.96875 -0.8125q0.8125 -3.828125 2.671875 -6.171875q1.875 -2.359375 5.390625 -3.625q3.515625 -1.28125 8.15625 -1.28125q4.609375 0 7.484375 1.09375q2.875 1.078125 4.234375 2.71875q1.359375 1.640625 1.890625 4.140625q0.3125 1.5625 0.3125 5.625l0 8.125q0 8.5 0.390625 10.75q0.390625 2.25 1.53125 4.3125l-6.359375 0q-0.953125 -1.890625 -1.21875 -4.4375zm-0.515625 -13.609375q-3.3125 1.359375 -9.953125 2.3125q-3.75 0.53125 -5.3125 1.21875q-1.546875 0.671875 -2.40625 1.984375q-0.84375 1.296875 -0.84375 2.890625q0 2.4375 1.84375 4.0625q1.84375 1.625 5.40625 1.625q3.515625 0 6.25 -1.546875q2.75 -1.546875 4.046875 -4.21875q0.96875 -2.0625 0.96875 -6.09375l0 -2.234375zm38.932007 18.046875l0 -4.53125q-3.421875 5.34375 -10.046875 5.34375q-4.296875 0 -7.90625 -2.359375q-3.609375 -2.375 -5.59375 -6.625q-1.96875 -4.25 -1.96875 -9.765625q0 -5.390625 1.78125 -9.765625q1.796875 -4.390625 5.390625 -6.71875q3.59375 -2.34375 8.015625 -2.34375q3.25 0 5.78125 1.375q2.546875 1.375 4.140625 3.5625l0 -17.796875l6.0625 0l0 49.625l-5.65625 0zm-19.265625 -17.9375q0 6.90625 2.90625 10.328125q2.921875 3.40625 6.890625 3.40625q3.984375 0 6.78125 -3.265625q2.796875 -3.265625 2.796875 -9.96875q0 -7.375 -2.84375 -10.828125q-2.84375 -3.453125 -7.015625 -3.453125q-4.0625 0 -6.796875 3.328125q-2.71875 3.3125 -2.71875 10.453125zm36.088257 17.9375l0 -6.9375l6.9375 0l0 6.9375q0 3.828125 -1.359375 6.171875q-1.34375 2.359375 -4.28125 3.640625l-1.703125 -2.609375q1.9375 -0.84375 2.84375 -2.484375q0.921875 -1.640625 1.015625 -4.71875l-3.453125 0zm36.929443 0l0 -35.953125l5.484375 0l0 5.109375q3.96875 -5.921875 11.453125 -5.921875q3.25 0 5.96875 1.171875q2.734375 1.171875 4.078125 3.0625q1.359375 1.890625 1.90625 4.5q0.328125 1.6875 0.328125 5.921875l0 22.109375l-6.09375 0l0 -21.875q0 -3.71875 -0.71875 -5.5625q-0.703125 -1.84375 -2.515625 -2.9375q-1.8125 -1.109375 -4.25 -1.109375q-3.890625 0 -6.71875 2.46875q-2.828125 2.46875 -2.828125 9.375l0 19.640625l-6.09375 0zm36.29138 -17.96875q0 -10.0 5.5625 -14.796875q4.625 -4.0 11.296875 -4.0q7.421875 0 12.125 4.859375q4.703125 4.859375 4.703125 13.421875q0 6.9375 -2.078125 10.921875q-2.078125 3.96875 -6.0625 6.171875q-3.984375 2.203125 -8.6875 2.203125q-7.546875 0 -12.203125 -4.84375q-4.65625 -4.84375 -4.65625 -13.9375zm6.265625 0q0 6.90625 3.015625 10.34375q3.015625 3.421875 7.578125 3.421875q4.546875 0 7.546875 -3.453125q3.015625 -3.453125 3.015625 -10.515625q0 -6.671875 -3.03125 -10.109375q-3.03125 -3.4375 -7.53125 -3.4375q-4.5625 0 -7.578125 3.421875q-3.015625 3.421875 -3.015625 10.328125zm57.88513 17.96875l0 -4.53125q-3.421875 5.34375 -10.046875 5.34375q-4.296875 0 -7.90625 -2.359375q-3.609375 -2.375 -5.59375 -6.625q-1.96875 -4.25 -1.96875 -9.765625q0 -5.390625 1.78125 -9.765625q1.796875 -4.390625 5.390625 -6.71875q3.59375 -2.34375 8.015625 -2.34375q3.25 0 5.78125 1.375q2.546875 1.375 4.140625 3.5625l0 -17.796875l6.0625 0l0 49.625l-5.65625 0zm-19.265625 -17.9375q0 6.90625 2.90625 10.328125q2.921875 3.40625 6.890625 3.40625q3.984375 0 6.78125 -3.265625q2.796875 -3.265625 2.796875 -9.96875q0 -7.375 -2.84375 -10.828125q-2.84375 -3.453125 -7.015625 -3.453125q-4.0625 0 -6.796875 3.328125q-2.71875 3.3125 -2.71875 10.453125zm59.119507 6.359375l6.28125 0.78125q-1.484375 5.515625 -5.515625 8.5625q-4.015625 3.046875 -10.28125 3.046875q-7.890625 0 -12.515625 -4.859375q-4.625 -4.859375 -4.625 -13.625q0 -9.078125 4.671875 -14.078125q4.671875 -5.015625 12.125 -5.015625q7.21875 0 11.78125 4.90625q4.5625 4.90625 4.5625 13.8125q0 0.546875 -0.03125 1.625l-26.8125 0q0.34375 5.921875 3.359375 9.078125q3.015625 3.140625 7.515625 3.140625q3.34375 0 5.71875 -1.75q2.375 -1.765625 3.765625 -5.625zm-20.015625 -9.84375l20.078125 0q-0.40625 -4.546875 -2.296875 -6.8125q-2.921875 -3.515625 -7.5625 -3.515625q-4.1875 0 -7.046875 2.8125q-2.859375 2.796875 -3.171875 7.515625zm28.338257 35.203125l0 -4.40625l40.375 0l0 4.40625l-40.375 0zm44.16638 0l0 -49.734375l5.5625 0l0 4.671875q1.953125 -2.734375 4.421875 -4.109375q2.484375 -1.375 6.0 -1.375q4.609375 0 8.125 2.375q3.515625 2.359375 5.3125 6.6875q1.796875 4.3125 1.796875 9.453125q0 5.515625 -1.984375 9.9375q-1.96875 4.421875 -5.75 6.78125q-3.78125 2.34375 -7.9375 2.34375q-3.046875 0 -5.46875 -1.28125q-2.421875 -1.296875 -3.984375 -3.25l0 17.5l-6.09375 0zm5.53125 -31.546875q0 6.9375 2.796875 10.25q2.8125 3.3125 6.8125 3.3125q4.0625 0 6.953125 -3.421875q2.890625 -3.4375 2.890625 -10.65625q0 -6.875 -2.828125 -10.28125q-2.8125 -3.421875 -6.75 -3.421875q-3.890625 0 -6.890625 3.640625q-2.984375 3.625 -2.984375 10.578125zm46.338257 12.3125l0.875 5.390625q-2.5625 0.53125 -4.59375 0.53125q-3.328125 0 -5.15625 -1.046875q-1.828125 -1.046875 -2.578125 -2.75q-0.734375 -1.71875 -0.734375 -7.203125l0 -20.6875l-4.46875 0l0 -4.734375l4.46875 0l0 -8.90625l6.0625 -3.65625l0 12.5625l6.125 0l0 4.734375l-6.125 0l0 21.03125q0 2.609375 0.3125 3.359375q0.328125 0.734375 1.046875 1.171875q0.734375 0.4375 2.09375 0.4375q1.015625 0 2.671875 -0.234375zm5.8865967 5.453125l0 -35.953125l5.484375 0l0 5.453125q2.09375 -3.828125 3.875 -5.046875q1.78125 -1.21875 3.90625 -1.21875q3.09375 0 6.265625 1.96875l-2.09375 5.65625q-2.234375 -1.328125 -4.46875 -1.328125q-2.0 0 -3.59375 1.203125q-1.59375 1.203125 -2.265625 3.328125q-1.015625 3.25 -1.015625 7.109375l0 18.828125l-6.09375 0zm27.149292 14.59375l-4.359375 0q10.109375 -16.25 10.109375 -32.53125q0 -6.375 -1.453125 -12.625q-1.140625 -5.078125 -3.21875 -9.75q-1.3125 -3.046875 -5.4375 -10.15625l4.359375 0q6.359375 8.5 9.40625 17.0625q2.609375 7.375 2.609375 15.4375q0 9.140625 -3.5 17.671875q-3.5 8.515625 -8.515625 14.890625z" fill-rule="nonzero"/><path fill="#000000" fill-opacity="0.0" d="m1345.332 1403.3268l892.72437 0l0 155.14954l-892.72437 0z" fill-rule="evenodd"/><path fill="#000000" d="m1452.3416 1504.8867l-6.09375 0l0 -38.828125q-2.203125 2.09375 -5.78125 4.203125q-3.5625 2.09375 -6.40625 3.140625l0 -5.890625q5.109375 -2.40625 8.9375 -5.8125q3.828125 -3.421875 5.421875 -6.640625l3.921875 0l0 49.828125zm19.025757 0l0 -6.9375l6.9375 0l0 6.9375l-6.9375 0z" fill-rule="nonzero"/><path fill="#000000" d="m1508.1561 1504.8867l0 -35.953125l5.484375 0l0 5.109375q3.96875 -5.921875 11.453125 -5.921875q3.25 0 5.96875 1.171875q2.734375 1.171875 4.078125 3.0625q1.359375 1.890625 1.90625 4.5q0.328125 1.6875 0.328125 5.921875l0 22.109375l-6.09375 0l0 -21.875q0 -3.71875 -0.71875 -5.5625q-0.703125 -1.84375 -2.515625 -2.9375q-1.8125 -1.109375 -4.25 -1.109375q-3.890625 0 -6.71875 2.46875q-2.828125 2.46875 -2.828125 9.375l0 19.640625l-6.09375 0zm36.29138 -17.96875q0 -10.0 5.5625 -14.796875q4.625 -4.0 11.296875 -4.0q7.421875 0 12.125 4.859375q4.703125 4.859375 4.703125 13.421875q0 6.9375 -2.078125 10.921875q-2.078125 3.96875 -6.0625 6.171875q-3.984375 2.203125 -8.6875 2.203125q-7.546875 0 -12.203125 -4.84375q-4.65625 -4.84375 -4.65625 -13.9375zm6.265625 0q0 6.90625 3.015625 10.34375q3.015625 3.421875 7.578125 3.421875q4.546875 0 7.546875 -3.453125q3.015625 -3.453125 3.015625 -10.515625q0 -6.671875 -3.03125 -10.109375q-3.03125 -3.4375 -7.53125 -3.4375q-4.5625 0 -7.578125 3.421875q-3.015625 3.421875 -3.015625 10.328125zm57.88513 17.96875l0 -4.53125q-3.421875 5.34375 -10.046875 5.34375q-4.296875 0 -7.90625 -2.359375q-3.609375 -2.375 -5.59375 -6.625q-1.96875 -4.25 -1.96875 -9.765625q0 -5.390625 1.78125 -9.765625q1.796875 -4.390625 5.390625 -6.71875q3.59375 -2.34375 8.015625 -2.34375q3.25 0 5.78125 1.375q2.546875 1.375 4.140625 3.5625l0 -17.796875l6.0625 0l0 49.625l-5.65625 0zm-19.265625 -17.9375q0 6.90625 2.90625 10.328125q2.921875 3.40625 6.890625 3.40625q3.984375 0 6.78125 -3.265625q2.796875 -3.265625 2.796875 -9.96875q0 -7.375 -2.84375 -10.828125q-2.84375 -3.453125 -7.015625 -3.453125q-4.0625 0 -6.796875 3.328125q-2.71875 3.3125 -2.71875 10.453125zm59.119507 6.359375l6.28125 0.78125q-1.484375 5.515625 -5.515625 8.5625q-4.015625 3.046875 -10.28125 3.046875q-7.890625 0 -12.515625 -4.859375q-4.625 -4.859375 -4.625 -13.625q0 -9.078125 4.671875 -14.078125q4.671875 -5.015625 12.125 -5.015625q7.21875 0 11.78125 4.90625q4.5625 4.90625 4.5625 13.8125q0 0.546875 -0.03125 1.625l-26.8125 0q0.34375 5.921875 3.359375 9.078125q3.015625 3.140625 7.515625 3.140625q3.34375 0 5.71875 -1.75q2.375 -1.765625 3.765625 -5.625zm-20.015625 -9.84375l20.078125 0q-0.40625 -4.546875 -2.296875 -6.8125q-2.921875 -3.515625 -7.5625 -3.515625q-4.1875 0 -7.046875 2.8125q-2.859375 2.796875 -3.171875 7.515625zm35.682007 21.421875l0 -6.9375l6.9375 0l0 6.9375l-6.9375 0zm17.527222 0l0 -35.953125l5.484375 0l0 5.109375q3.96875 -5.921875 11.453125 -5.921875q3.25 0 5.96875 1.171875q2.734375 1.171875 4.078125 3.0625q1.359375 1.890625 1.90625 4.5q0.328125 1.6875 0.328125 5.921875l0 22.109375l-6.09375 0l0 -21.875q0 -3.71875 -0.71875 -5.5625q-0.703125 -1.84375 -2.515625 -2.9375q-1.8125 -1.109375 -4.25 -1.109375q-3.890625 0 -6.71875 2.46875q-2.828125 2.46875 -2.828125 9.375l0 19.640625l-6.09375 0zm63.182007 -11.578125l6.28125 0.78125q-1.484375 5.515625 -5.515625 8.5625q-4.015625 3.046875 -10.28125 3.046875q-7.890625 0 -12.515625 -4.859375q-4.625 -4.859375 -4.625 -13.625q0 -9.078125 4.671875 -14.078125q4.671875 -5.015625 12.125 -5.015625q7.21875 0 11.78125 4.90625q4.5625 4.90625 4.5625 13.8125q0 0.546875 -0.03125 1.625l-26.8125 0q0.34375 5.921875 3.359375 9.078125q3.015625 3.140625 7.515625 3.140625q3.34375 0 5.71875 -1.75q2.375 -1.765625 3.765625 -5.625zm-20.015625 -9.84375l20.078125 0q-0.40625 -4.546875 -2.296875 -6.8125q-2.921875 -3.515625 -7.5625 -3.515625q-4.1875 0 -7.046875 2.8125q-2.859375 2.796875 -3.171875 7.515625zm29.885132 21.421875l13.140625 -18.6875l-12.15625 -17.265625l7.625 0l5.515625 8.4375q1.5625 2.390625 2.5 4.015625q1.5 -2.234375 2.75 -3.953125l6.0625 -8.5l7.265625 0l-12.421875 16.921875l13.375 19.03125l-7.484375 0l-7.375 -11.171875l-1.96875 -3.015625l-9.4375 14.1875l-7.390625 0zm52.039062 -5.453125l0.875 5.390625q-2.5625 0.53125 -4.59375 0.53125q-3.328125 0 -5.15625 -1.046875q-1.828125 -1.046875 -2.578125 -2.75q-0.734375 -1.71875 -0.734375 -7.203125l0 -20.6875l-4.46875 0l0 -4.734375l4.46875 0l0 -8.90625l6.0625 -3.65625l0 12.5625l6.125 0l0 4.734375l-6.125 0l0 21.03125q0 2.609375 0.3125 3.359375q0.328125 0.734375 1.046875 1.171875q0.734375 0.4375 2.09375 0.4375q1.015625 0 2.671875 -0.234375zm57.27307 -23.734375l-32.765625 0l0 -5.671875l32.765625 0l0 5.671875zm0 15.078125l-32.765625 0l0 -5.6875l32.765625 0l0 5.6875zm27.685669 14.109375l0 -49.625l6.09375 0l0 17.796875q4.265625 -4.9375 10.765625 -4.9375q4.0 0 6.9375 1.578125q2.953125 1.578125 4.21875 4.359375q1.28125 2.765625 1.28125 8.046875l0 22.78125l-6.09375 0l0 -22.78125q0 -4.578125 -1.984375 -6.65625q-1.984375 -2.078125 -5.609375 -2.078125q-2.703125 0 -5.09375 1.40625q-2.390625 1.40625 -3.40625 3.8125q-1.015625 2.390625 -1.015625 6.625l0 19.671875l-6.09375 0zm63.182007 -11.578125l6.28125 0.78125q-1.484375 5.515625 -5.515625 8.5625q-4.015625 3.046875 -10.28125 3.046875q-7.890625 0 -12.515625 -4.859375q-4.625 -4.859375 -4.625 -13.625q0 -9.078125 4.671875 -14.078125q4.671875 -5.015625 12.125 -5.015625q7.21875 0 11.78125 4.90625q4.5625 4.90625 4.5625 13.8125q0 0.546875 -0.03125 1.625l-26.8125 0q0.34375 5.921875 3.359375 9.078125q3.015625 3.140625 7.515625 3.140625q3.34375 0 5.71875 -1.75q2.375 -1.765625 3.765625 -5.625zm-20.015625 -9.84375l20.078125 0q-0.40625 -4.546875 -2.296875 -6.8125q-2.921875 -3.515625 -7.5625 -3.515625q-4.1875 0 -7.046875 2.8125q-2.859375 2.796875 -3.171875 7.515625zm57.41638 16.984375q-3.390625 2.875 -6.53125 4.0625q-3.125 1.1875 -6.703125 1.1875q-5.921875 0 -9.109375 -2.890625q-3.1875 -2.890625 -3.1875 -7.40625q0 -2.640625 1.203125 -4.8125q1.203125 -2.1875 3.140625 -3.5q1.953125 -1.328125 4.390625 -2.0q1.796875 -0.484375 5.421875 -0.921875q7.375 -0.875 10.859375 -2.09375q0.046875 -1.25 0.046875 -1.59375q0 -3.71875 -1.734375 -5.25q-2.328125 -2.0625 -6.9375 -2.0625q-4.296875 0 -6.34375 1.515625q-2.046875 1.5 -3.03125 5.328125l-5.96875 -0.8125q0.8125 -3.828125 2.671875 -6.171875q1.875 -2.359375 5.390625 -3.625q3.515625 -1.28125 8.15625 -1.28125q4.609375 0 7.484375 1.09375q2.875 1.078125 4.234375 2.71875q1.359375 1.640625 1.890625 4.140625q0.3125 1.5625 0.3125 5.625l0 8.125q0 8.5 0.390625 10.75q0.390625 2.25 1.53125 4.3125l-6.359375 0q-0.953125 -1.890625 -1.21875 -4.4375zm-0.515625 -13.609375q-3.3125 1.359375 -9.953125 2.3125q-3.75 0.53125 -5.3125 1.21875q-1.546875 0.671875 -2.40625 1.984375q-0.84375 1.296875 -0.84375 2.890625q0 2.4375 1.84375 4.0625q1.84375 1.625 5.40625 1.625q3.515625 0 6.25 -1.546875q2.75 -1.546875 4.046875 -4.21875q0.96875 -2.0625 0.96875 -6.09375l0 -2.234375zm38.932007 18.046875l0 -4.53125q-3.421875 5.34375 -10.046875 5.34375q-4.296875 0 -7.90625 -2.359375q-3.609375 -2.375 -5.59375 -6.625q-1.96875 -4.25 -1.96875 -9.765625q0 -5.390625 1.78125 -9.765625q1.796875 -4.390625 5.390625 -6.71875q3.59375 -2.34375 8.015625 -2.34375q3.25 0 5.78125 1.375q2.546875 1.375 4.140625 3.5625l0 -17.796875l6.0625 0l0 49.625l-5.65625 0zm-19.265625 -17.9375q0 6.90625 2.90625 10.328125q2.921875 3.40625 6.890625 3.40625q3.984375 0 6.78125 -3.265625q2.796875 -3.265625 2.796875 -9.96875q0 -7.375 -2.84375 -10.828125q-2.84375 -3.453125 -7.015625 -3.453125q-4.0625 0 -6.796875 3.328125q-2.71875 3.3125 -2.71875 10.453125z" fill-rule="nonzero"/><path fill="#000000" fill-opacity="0.0" d="m92.52362 1229.1693l353.6378 0l0 155.14954l-353.6378 0z" fill-rule="evenodd"/><path fill="#000000" d="m167.508 1330.7292l-33.21875 0l0 -50.40625l33.21875 0l0 5.953125l-26.515625 0l0 13.8125l26.515625 0l0 5.96875l-26.515625 0l0 18.71875l26.515625 0l0 5.953125zm41.728485 0l-6.359375 0l0 -21.53125q0 -2.609375 -0.3125 -4.890625q-0.296875 -2.28125 -1.109375 -3.578125q-0.84375 -1.421875 -2.4375 -2.109375q-1.59375 -0.6875 -4.125 -0.6875q-2.609375 0 -5.453125 1.28125q-2.84375 1.28125 -5.453125 3.28125l0 28.234375l-6.359375 0l0 -37.8125l6.359375 0l0 4.203125q2.984375 -2.46875 6.15625 -3.859375q3.1875 -1.390625 6.546875 -1.390625q6.125 0 9.328125 3.6875q3.21875 3.6875 3.21875 10.625l0 24.546875zm18.684204 0l-6.359375 0l0 -52.671875l6.359375 0l0 52.671875zm19.430862 -44.140625l-7.171875 0l0 -6.609375l7.171875 0l0 6.609375zm-0.40625 44.140625l-6.359375 0l0 -37.8125l6.359375 0l0 37.8125zm39.618362 -10.90625q0 5.1875 -4.28125 8.5q-4.28125 3.3125 -11.703125 3.3125q-4.203125 0 -7.703125 -0.984375q-3.5 -1.0 -5.875 -2.1875l0 -7.140625l0.34375 0q3.015625 2.265625 6.703125 3.609375q3.6875 1.328125 7.078125 1.328125q4.1875 0 6.5625 -1.34375q2.375 -1.359375 2.375 -4.28125q0 -2.234375 -1.296875 -3.375q-1.28125 -1.15625 -4.9375 -1.96875q-1.359375 -0.296875 -3.546875 -0.703125q-2.171875 -0.40625 -3.96875 -0.890625q-4.96875 -1.3125 -7.0625 -3.859375q-2.078125 -2.5625 -2.078125 -6.296875q0 -2.328125 0.96875 -4.390625q0.96875 -2.078125 2.921875 -3.6875q1.90625 -1.59375 4.828125 -2.515625q2.921875 -0.9375 6.546875 -0.9375q3.390625 0 6.859375 0.828125q3.46875 0.828125 5.765625 2.015625l0 6.796875l-0.328125 0q-2.4375 -1.796875 -5.9375 -3.03125q-3.484375 -1.234375 -6.828125 -1.234375q-3.484375 0 -5.890625 1.34375q-2.40625 1.328125 -2.40625 3.96875q0 2.34375 1.453125 3.515625q1.421875 1.1875 4.609375 1.9375q1.765625 0.40625 3.9375 0.8125q2.1875 0.40625 3.640625 0.75q4.4375 1.015625 6.84375 3.484375q2.40625 2.5 2.40625 6.625zm28.729065 10.5625q-1.78125 0.484375 -3.90625 0.78125q-2.109375 0.3125 -3.765625 0.3125q-5.796875 0 -8.8125 -3.109375q-3.015625 -3.125 -3.015625 -10.0l0 -20.109375l-4.296875 0l0 -5.34375l4.296875 0l0 -10.859375l6.375 0l0 10.859375l13.125 0l0 5.34375l-13.125 0l0 17.234375q0 2.984375 0.125 4.65625q0.140625 1.671875 0.953125 3.125q0.75 1.359375 2.046875 1.984375q1.3125 0.625 3.984375 0.625q1.546875 0 3.234375 -0.453125q1.703125 -0.453125 2.453125 -0.765625l0.328125 0l0 5.71875z" fill-rule="nonzero"/></g></svg>