<svg id="SvgjsSvg1006" width="916" height="807" xmlns="http://www.w3.org/2000/svg" version="1.1" xmlns:xlink="http://www.w3.org/1999/xlink" xmlns:svgjs="http://svgjs.com/svgjs"><defs id="SvgjsDefs1007"><pattern id="SvgjsPattern1050" x="0" y="0" width="100" height="100" patternUnits="userSpaceOnUse"><image id="SvgjsImage1051" xlink:href="https://iconsapi.com/5ee262cde4b0b788a932aba0.svg" width="100" height="100" preserveAspectRatio="none" crossOrigin="anonymous" x="0" y="0"></image></pattern><pattern id="SvgjsPattern1054" x="0" y="0" width="100" height="100" patternUnits="userSpaceOnUse"><image id="SvgjsImage1055" xlink:href="https://iconsapi.com/5ee262cde4b0b788a932aba0.svg" width="100" height="100" preserveAspectRatio="none" crossOrigin="anonymous" x="0" y="0"></image></pattern><pattern id="SvgjsPattern1070" x="0" y="0" width="100" height="100" patternUnits="userSpaceOnUse"><image id="SvgjsImage1071" xlink:href="https://iconsapi.com/5ee262cde4b0b788a932aba0.svg" width="100" height="100" preserveAspectRatio="none" crossOrigin="anonymous" x="0" y="0"></image></pattern><marker id="SvgjsMarker1080" markerWidth="16" markerHeight="12" refX="0" refY="6" viewBox="0 0 16 12" orient="auto" markerUnits="userSpaceOnUse" stroke-dasharray="0,0"><path id="SvgjsPath1081" d="M15,1.5 L2,6 L15,10.5" fill="#323232" stroke="#323232" stroke-width="2"></path></marker><marker id="SvgjsMarker1082" markerWidth="16" markerHeight="12" refX="16" refY="6" viewBox="0 0 16 12" orient="auto" markerUnits="userSpaceOnUse" stroke-dasharray="0,0"><path id="SvgjsPath1083" d="M0,2 L14,6 L0,11 L0,2" fill="#323232" stroke="#323232" stroke-width="2"></path></marker><marker id="SvgjsMarker1086" markerWidth="16" markerHeight="12" refX="16" refY="6" viewBox="0 0 16 12" orient="auto" markerUnits="userSpaceOnUse" stroke-dasharray="0,0"><path id="SvgjsPath1087" d="M0,2 L14,6 L0,11 L0,2" fill="#323232" stroke="#323232" stroke-width="2"></path></marker><marker id="SvgjsMarker1104" markerWidth="16" markerHeight="12" refX="16" refY="6" viewBox="0 0 16 12" orient="auto" markerUnits="userSpaceOnUse" stroke-dasharray="0,0"><path id="SvgjsPath1105" d="M0,2 L14,6 L0,11 L0,2" fill="#323232" stroke="#323232" stroke-width="2"></path></marker><marker id="SvgjsMarker1108" markerWidth="16" markerHeight="12" refX="16" refY="6" viewBox="0 0 16 12" orient="auto" markerUnits="userSpaceOnUse" stroke-dasharray="0,0"><path id="SvgjsPath1109" d="M0,2 L14,6 L0,11 L0,2" fill="#323232" stroke="#323232" stroke-width="2"></path></marker><marker id="SvgjsMarker1112" markerWidth="16" markerHeight="12" refX="16" refY="6" viewBox="0 0 16 12" orient="auto" markerUnits="userSpaceOnUse" stroke-dasharray="0,0"><path id="SvgjsPath1113" d="M0,2 L14,6 L0,11 L0,2" fill="#323232" stroke="#323232" stroke-width="2"></path></marker><marker id="SvgjsMarker1116" markerWidth="16" markerHeight="12" refX="16" refY="6" viewBox="0 0 16 12" orient="auto" markerUnits="userSpaceOnUse" stroke-dasharray="0,0"><path id="SvgjsPath1117" d="M0,2 L14,6 L0,11 L0,2" fill="#323232" stroke="#323232" stroke-width="2"></path></marker><marker id="SvgjsMarker1124" markerWidth="16" markerHeight="12" refX="0" refY="6" viewBox="0 0 16 12" orient="auto" markerUnits="userSpaceOnUse" stroke-dasharray="0,0"><path id="SvgjsPath1125" d="M15,1.5 L2,6 L15,10.5" fill="#323232" stroke="#323232" stroke-width="2"></path></marker><marker id="SvgjsMarker1128" markerWidth="16" markerHeight="12" refX="0" refY="6" viewBox="0 0 16 12" orient="auto" markerUnits="userSpaceOnUse" stroke-dasharray="0,0"><path id="SvgjsPath1129" d="M15,1.5 L2,6 L15,10.5" fill="#323232" stroke="#323232" stroke-width="2"></path></marker><marker id="SvgjsMarker1132" markerWidth="16" markerHeight="12" refX="0" refY="6" viewBox="0 0 16 12" orient="auto" markerUnits="userSpaceOnUse" stroke-dasharray="0,0"><path id="SvgjsPath1133" d="M15,1.5 L2,6 L15,10.5" fill="#323232" stroke="#323232" stroke-width="2"></path></marker><marker id="SvgjsMarker1136" markerWidth="16" markerHeight="12" refX="16" refY="6" viewBox="0 0 16 12" orient="auto" markerUnits="userSpaceOnUse" stroke-dasharray="0,0"><path id="SvgjsPath1137" d="M0,2 L14,6 L0,11 L0,2" fill="#ff3333" stroke="#ff3333" stroke-width="2"></path></marker><marker id="SvgjsMarker1140" markerWidth="16" markerHeight="12" refX="16" refY="6" viewBox="0 0 16 12" orient="auto" markerUnits="userSpaceOnUse" stroke-dasharray="0,0"><path id="SvgjsPath1141" d="M0,2 L14,6 L0,11 L0,2" fill="#ff3333" stroke="#ff3333" stroke-width="2"></path></marker><marker id="SvgjsMarker1156" markerWidth="16" markerHeight="12" refX="16" refY="6" viewBox="0 0 16 12" orient="auto" markerUnits="userSpaceOnUse" stroke-dasharray="0,0"><path id="SvgjsPath1157" d="M0,2 L14,6 L0,11 L0,2" fill="#ff66b3" stroke="#ff66b3" stroke-width="2"></path></marker><marker id="SvgjsMarker1160" markerWidth="16" markerHeight="12" refX="16" refY="6" viewBox="0 0 16 12" orient="auto" markerUnits="userSpaceOnUse" stroke-dasharray="0,0"><path id="SvgjsPath1161" d="M0,2 L14,6 L0,11 L0,2" fill="#ff66b3" stroke="#ff66b3" stroke-width="2"></path></marker><marker id="SvgjsMarker1164" markerWidth="16" markerHeight="12" refX="16" refY="6" viewBox="0 0 16 12" orient="auto" markerUnits="userSpaceOnUse" stroke-dasharray="0,0"><path id="SvgjsPath1165" d="M0,2 L14,6 L0,11 L0,2" fill="#ff66b3" stroke="#ff66b3" stroke-width="2"></path></marker><marker id="SvgjsMarker1174" markerWidth="16" markerHeight="12" refX="16" refY="6" viewBox="0 0 16 12" orient="auto" markerUnits="userSpaceOnUse" stroke-dasharray="0,0"><path id="SvgjsPath1175" d="M0,2 L14,6 L0,11 L0,2" fill="#737373" stroke="#737373" stroke-width="2"></path></marker><marker id="SvgjsMarker1308" markerWidth="16" markerHeight="12" refX="16" refY="6" viewBox="0 0 16 12" orient="auto" markerUnits="userSpaceOnUse" stroke-dasharray="0,0"><path id="SvgjsPath1309" d="M0,2 L14,6 L0,11 L0,2" fill="#ff3333" stroke="#ff3333" stroke-width="2"></path></marker><marker id="SvgjsMarker1320" markerWidth="16" markerHeight="12" refX="16" refY="6" viewBox="0 0 16 12" orient="auto" markerUnits="userSpaceOnUse" stroke-dasharray="0,0"><path id="SvgjsPath1321" d="M0,2 L14,6 L0,11 L0,2" fill="#323232" stroke="#323232" stroke-width="2"></path></marker></defs><g id="SvgjsG1008" transform="translate(630.8125,193)"><path id="SvgjsPath1009" d="M 0 0L 165 0L 165 263L 0 263Z" stroke="rgba(50,50,50,1)" stroke-width="2" fill-opacity="1" fill="#ffffff"></path><g id="SvgjsG1010"><text id="SvgjsText1011" font-family="微软雅黑" text-anchor="middle" font-size="13px" width="145px" fill="#323232" font-weight="400" align="middle" lineHeight="125%" anchor="middle" family="微软雅黑" size="13px" weight="400" font-style="" opacity="1" y="121.875" transform="rotate(0)"></text></g></g><g id="SvgjsG1012" transform="translate(198.8125,250)"><path id="SvgjsPath1013" d="M 0 0L 208 0L 208 130L 0 130Z" stroke="rgba(50,50,50,1)" stroke-width="2" fill-opacity="1" fill="#ffffff"></path><g id="SvgjsG1014"><text id="SvgjsText1015" font-family="微软雅黑" text-anchor="middle" font-size="13px" width="188px" fill="#323232" font-weight="400" align="middle" lineHeight="125%" anchor="middle" family="微软雅黑" size="13px" weight="400" font-style="" opacity="1" y="55.375" transform="rotate(0)"></text></g></g><g id="SvgjsG1016" transform="translate(231.8125,280)"><path id="SvgjsPath1017" d="M 0 4Q 0 0 4 0L 96 0Q 100 0 100 4L 100 66Q 100 70 96 70L 4 70Q 0 70 0 66Z" stroke="rgba(50,50,50,1)" stroke-width="2" fill-opacity="1" fill="#ffcccc"></path><g id="SvgjsG1018"><text id="SvgjsText1019" font-family="微软雅黑" text-anchor="middle" font-size="13px" width="80px" fill="#323232" font-weight="400" align="middle" lineHeight="125%" anchor="middle" family="微软雅黑" size="13px" weight="400" font-style="" opacity="1" y="25.375" transform="rotate(0)"></text></g></g><g id="SvgjsG1020" transform="translate(248.8125,271)"><path id="SvgjsPath1021" d="M 0 4Q 0 0 4 0L 96 0Q 100 0 100 4L 100 66Q 100 70 96 70L 4 70Q 0 70 0 66Z" stroke="rgba(50,50,50,1)" stroke-width="2" fill-opacity="1" fill="#ffcccc"></path><g id="SvgjsG1022"><text id="SvgjsText1023" font-family="微软雅黑" text-anchor="middle" font-size="13px" width="80px" fill="#323232" font-weight="400" align="middle" lineHeight="125%" anchor="middle" family="微软雅黑" size="13px" weight="400" font-style="" opacity="1" y="25.375" transform="rotate(0)"></text></g></g><g id="SvgjsG1024" transform="translate(267.8125,262)"><path id="SvgjsPath1025" d="M 0 4Q 0 0 4 0L 109 0Q 113 0 113 4L 113 66Q 113 70 109 70L 4 70Q 0 70 0 66Z" stroke="rgba(50,50,50,1)" stroke-width="2" fill-opacity="1" fill="#ffcccc"></path><g id="SvgjsG1026"><text id="SvgjsText1027" font-family="微软雅黑" text-anchor="middle" font-size="13px" width="93px" fill="#323232" font-weight="400" align="middle" lineHeight="125%" anchor="middle" family="微软雅黑" size="13px" weight="400" font-style="" opacity="1" y="25.375" transform="rotate(0)"></text></g></g><g id="SvgjsG1028" transform="translate(235.8125,344)"><path id="SvgjsPath1029" d="M 0 0L 120 0L 120 40L 0 40Z" stroke="none" fill="none"></path><g id="SvgjsG1030"><text id="SvgjsText1031" font-family="微软雅黑" text-anchor="middle" font-size="13px" width="120px" fill="#323232" font-weight="700" align="middle" lineHeight="125%" anchor="middle" family="微软雅黑" size="13px" weight="700" font-style="" opacity="1" y="2.375" transform="rotate(0)"><tspan id="SvgjsTspan1032" dy="16" x="60"><tspan id="SvgjsTspan1033" style="text-decoration:;">delicate-scheduler </tspan></tspan><tspan id="SvgjsTspan1034" dy="16" x="60"><tspan id="SvgjsTspan1035" style="text-decoration:;">clusters</tspan></tspan></text></g></g><g id="SvgjsG1036" transform="translate(263.8125,257)"><path id="SvgjsPath1037" d="M 0 0L 120 0L 120 40L 0 40Z" stroke="none" fill="none"></path><g id="SvgjsG1038"><text id="SvgjsText1039" font-family="微软雅黑" text-anchor="middle" font-size="13px" width="120px" fill="#323232" font-weight="700" align="middle" lineHeight="125%" anchor="middle" family="微软雅黑" size="13px" weight="700" font-style="" opacity="1" y="10.375" transform="rotate(0)"><tspan id="SvgjsTspan1040" dy="16" x="60"><tspan id="SvgjsTspan1041" style="text-decoration:;">api-server</tspan></tspan></text></g></g><g id="SvgjsG1042" transform="translate(113.3125,25)"><path id="SvgjsPath1043" d="M 0 0L 671.5 0L 671.5 32L 0 32Z" stroke="rgba(50,50,50,1)" stroke-width="2" fill-opacity="1" fill="#ffe6cc"></path><g id="SvgjsG1044"><text id="SvgjsText1045" font-family="微软雅黑" text-anchor="middle" font-size="13px" width="652px" fill="#323232" font-weight="700" align="middle" lineHeight="125%" anchor="middle" family="微软雅黑" size="13px" weight="700" font-style="" opacity="1" y="6.375" transform="rotate(0)"><tspan id="SvgjsTspan1046" dy="16" x="336"><tspan id="SvgjsTspan1047" style="text-decoration:;">web page (resource management)</tspan></tspan></text></g></g><g id="SvgjsG1048" transform="translate(458.8125,265)"><path id="SvgjsPath1049" d="M 0 0L 100 0L 100 100L 0 100Z" stroke="none" fill="url(#SvgjsPattern1050)"></path></g><g id="SvgjsG1052" transform="translate(630.8125,206)"><path id="SvgjsPath1053" d="M 0 0L 100 0L 100 100L 0 100Z" stroke="none" fill="url(#SvgjsPattern1054)"></path></g><g id="SvgjsG1056" transform="translate(477.8125,356)"><path id="SvgjsPath1057" d="M 0 0L 120 0L 120 40L 0 40Z" stroke="none" fill="none"></path><g id="SvgjsG1058"><text id="SvgjsText1059" font-family="微软雅黑" text-anchor="middle" font-size="13px" width="120px" fill="#323232" font-weight="700" align="middle" lineHeight="125%" anchor="middle" family="微软雅黑" size="13px" weight="700" font-style="" opacity="1" y="10.375" transform="rotate(0)"><tspan id="SvgjsTspan1060" dy="16" x="60"><tspan id="SvgjsTspan1061" style="text-decoration:;">Master Database</tspan></tspan></text></g></g><g id="SvgjsG1062" transform="translate(684.8125,277)"><path id="SvgjsPath1063" d="M 0 0L 120 0L 120 40L 0 40Z" stroke="none" fill="none"></path><g id="SvgjsG1064"><text id="SvgjsText1065" font-family="微软雅黑" text-anchor="middle" font-size="13px" width="120px" fill="#323232" font-weight="700" align="middle" lineHeight="125%" anchor="middle" family="微软雅黑" size="13px" weight="700" font-style="" opacity="1" y="10.375" transform="rotate(0)"><tspan id="SvgjsTspan1066" dy="16" x="60"><tspan id="SvgjsTspan1067" style="text-decoration:;">Slave Database</tspan></tspan></text></g></g><g id="SvgjsG1068" transform="translate(630.8125,329)"><path id="SvgjsPath1069" d="M 0 0L 100 0L 100 100L 0 100Z" stroke="none" fill="url(#SvgjsPattern1070)"></path></g><g id="SvgjsG1072" transform="translate(679.8125,416)"><path id="SvgjsPath1073" d="M 0 0L 120 0L 120 40L 0 40Z" stroke="none" fill="none"></path><g id="SvgjsG1074"><text id="SvgjsText1075" font-family="微软雅黑" text-anchor="middle" font-size="13px" width="120px" fill="#323232" font-weight="700" align="middle" lineHeight="125%" anchor="middle" family="微软雅黑" size="13px" weight="700" font-style="" opacity="1" y="10.375" transform="rotate(0)"><tspan id="SvgjsTspan1076" dy="16" x="60"><tspan id="SvgjsTspan1077" style="text-decoration:;">Slave Database</tspan></tspan></text></g></g><g id="SvgjsG1078"><path id="SvgjsPath1079" d="M406.8125 315L432.8125 315L432.8125 315L458.8125 315" stroke="#323232" stroke-width="2" fill="none" marker-start="url(#SvgjsMarker1080)" marker-end="url(#SvgjsMarker1082)"></path></g><g id="SvgjsG1084"><path id="SvgjsPath1085" d="M558.8125 315L594.8125 315L594.8125 315L630.8125 315" stroke="#323232" stroke-width="2" fill="none" marker-end="url(#SvgjsMarker1086)"></path></g><g id="SvgjsG1088" transform="translate(123.8125,595)"><path id="SvgjsPath1089" d="M 0 4Q 0 0 4 0L 222.0028533935547 0Q 226.0028533935547 0 226.0028533935547 4L 226.0028533935547 132Q 226.0028533935547 136 222.0028533935547 136L 4 136Q 0 136 0 132Z" stroke="rgba(50,50,50,1)" stroke-width="2" fill-opacity="1" fill="#ffffff"></path><g id="SvgjsG1090"><text id="SvgjsText1091" font-family="微软雅黑" text-anchor="middle" font-size="13px" width="207px" fill="#323232" font-weight="400" align="middle" lineHeight="125%" anchor="middle" family="微软雅黑" size="13px" weight="400" font-style="" opacity="1" y="58.375" transform="rotate(0)"></text></g></g><g id="SvgjsG1092" transform="translate(209.3125,95.45999526977539)"><path id="SvgjsPath1093" d="M 0 0L 480 0L 480 62.08000946044922L 0 62.08000946044922Z" stroke="rgba(50,50,50,1)" stroke-width="2" fill-opacity="1" fill="#6666ff"></path><g id="SvgjsG1094"><text id="SvgjsText1095" font-family="微软雅黑" text-anchor="middle" font-size="13px" width="460px" fill="#323232" font-weight="400" align="middle" lineHeight="125%" anchor="middle" family="微软雅黑" size="13px" weight="400" font-style="" opacity="1" y="21.41500473022461" transform="rotate(0)"></text></g></g><g id="SvgjsG1096" transform="translate(246.7124786376953,112)"><path id="SvgjsPath1097" d="M 0 4Q 0 0 4 0L 105.10002136230469 0Q 109.10002136230469 0 109.10002136230469 4L 109.10002136230469 25Q 109.10002136230469 29 105.10002136230469 29L 4 29Q 0 29 0 25Z" stroke="rgba(50,50,50,1)" stroke-width="2" fill-opacity="1" fill="#00ffff"></path><g id="SvgjsG1098"><text id="SvgjsText1099" font-family="微软雅黑" text-anchor="middle" font-size="13px" width="90px" fill="#323232" font-weight="400" align="middle" lineHeight="125%" anchor="middle" family="微软雅黑" size="13px" weight="400" font-style="" opacity="1" y="4.875" transform="rotate(0)"><tspan id="SvgjsTspan1100" dy="16" x="55"><tspan id="SvgjsTspan1101" style="text-decoration:;">nginx clusters</tspan></tspan></text></g></g><g id="SvgjsG1102"><path id="SvgjsPath1103" d="M313.8125 55L313.8125 75.5L313.8125 75.5L313.8125 96" stroke="#323232" stroke-width="2" fill="none" marker-end="url(#SvgjsMarker1104)"></path></g><g id="SvgjsG1106"><path id="SvgjsPath1107" d="M449.3125 157.5400047302246L449.3125 203.7700023651123L288.8125 203.7700023651123L288.8125 250" stroke="#323232" stroke-width="2" fill="none" marker-end="url(#SvgjsMarker1108)"></path></g><g id="SvgjsG1110"><path id="SvgjsPath1111" d="M598.8125 157L598.8125 203.5L288.8125 203.5L288.8125 250" stroke="#323232" stroke-width="2" fill="none" marker-end="url(#SvgjsMarker1112)"></path></g><g id="SvgjsG1114"><path id="SvgjsPath1115" d="M291.8125 157L291.8125 203.5L290.8125 203.5L290.8125 250" stroke="#323232" stroke-width="2" fill="none" marker-end="url(#SvgjsMarker1116)"></path></g><g id="SvgjsG1118" transform="translate(149.01248931884766,613)"><path id="SvgjsPath1119" d="M 0 4Q 0 0 4 0L 217.80286407470703 0Q 221.80286407470703 0 221.80286407470703 4L 221.80286407470703 126.74430847167969Q 221.80286407470703 130.7443084716797 217.80286407470703 130.7443084716797L 4 130.7443084716797Q 0 130.7443084716797 0 126.74430847167969Z" stroke="rgba(50,50,50,1)" stroke-width="2" fill-opacity="1" fill="#ffffff"></path><g id="SvgjsG1120"><text id="SvgjsText1121" font-family="微软雅黑" text-anchor="middle" font-size="13px" width="202px" fill="#323232" font-weight="400" align="middle" lineHeight="125%" anchor="middle" family="微软雅黑" size="13px" weight="400" font-style="" opacity="1" y="55.747154235839844" transform="rotate(0)"></text></g></g><g id="SvgjsG1122"><path id="SvgjsPath1123" d="M236.81392669677734 595L236.81392669677734 554.5L295.8125 554.5L295.8125 384" stroke="#323232" stroke-width="2" fill="none" marker-start="url(#SvgjsMarker1124)"></path></g><g id="SvgjsG1126"><path id="SvgjsPath1127" d="M516.8153533935547 595.7443084716797L516.8153533935547 555.8721542358398L295.8125 555.8721542358398L295.8125 384" stroke="#323232" stroke-width="2" fill="none" marker-start="url(#SvgjsMarker1128)"></path></g><g id="SvgjsG1130"><path id="SvgjsPath1131" d="M756.8139266967773 595L756.8139266967773 554.5L295.8125 554.5L295.8125 384" stroke="#323232" stroke-width="2" fill="none" marker-start="url(#SvgjsMarker1132)"></path></g><g id="SvgjsG1134"><path id="SvgjsPath1135" d="M123.8125 663L93.8125 663L93.8125 315L198.8125 315" stroke-dasharray="8,5" stroke="#ff3333" stroke-width="2" fill="none" marker-end="url(#SvgjsMarker1136)"></path></g><g id="SvgjsG1138"><path id="SvgjsPath1139" d="M724.8125 692L724.8125 782L67.8125 782L67.8125 315L198.8125 315" stroke-dasharray="8,5" stroke="#ff3333" stroke-width="2" fill="none" marker-end="url(#SvgjsMarker1140)"></path></g><g id="SvgjsG1142" transform="translate(293.8125,517)"><path id="SvgjsPath1143" d="M 0 0L 184 0L 184 44L 0 44Z" stroke="none" fill="none"></path><g id="SvgjsG1144"><text id="SvgjsText1145" font-family="微软雅黑" text-anchor="middle" font-size="15px" width="184px" fill="#000000" font-weight="700" align="middle" lineHeight="125%" anchor="middle" family="微软雅黑" size="15px" weight="700" font-style="" opacity="1" y="11.125" transform="rotate(0)"><tspan id="SvgjsTspan1146" dy="18" x="92"><tspan id="SvgjsTspan1147" style="text-decoration:;">Binding Registration</tspan></tspan></text></g></g><g id="SvgjsG1148" transform="translate(139.8125,610)"><path id="SvgjsPath1149" d="M 0 0L 120 0L 120 40L 0 40Z" stroke="none" fill="none"></path><g id="SvgjsG1150"><text id="SvgjsText1151" font-family="微软雅黑" text-anchor="middle" font-size="13px" width="120px" fill="#323232" font-weight="700" align="middle" lineHeight="125%" anchor="middle" family="微软雅黑" size="13px" weight="700" font-style="" opacity="1" y="10.375" transform="rotate(0)"><tspan id="SvgjsTspan1152" dy="16" x="60"><tspan id="SvgjsTspan1153" style="text-decoration:;">executor Clusters</tspan></tspan></text></g></g><g id="SvgjsG1154"><path id="SvgjsPath1155" d="M284.8125 384L284.8125 560.5L214.21364135742186 560.5L214.21364135742186 595" stroke-dasharray="3,3" stroke="#ff66b3" stroke-width="2" fill="none" marker-end="url(#SvgjsMarker1156)"></path></g><g id="SvgjsG1158"><path id="SvgjsPath1159" d="M283.8125 384L283.8125 558.5L496.81392669677734 558.5L496.81392669677734 595" stroke-dasharray="3,3" stroke="#ff66b3" stroke-width="2" fill="none" marker-end="url(#SvgjsMarker1160)"></path></g><g id="SvgjsG1162"><path id="SvgjsPath1163" d="M284.8125 384L284.8125 559.8721542358398L731.8153533935547 559.8721542358398L731.8153533935547 595.7443084716797" stroke-dasharray="3,3" stroke="#ff66b3" stroke-width="2" fill="none" marker-end="url(#SvgjsMarker1164)"></path></g><g id="SvgjsG1166" transform="translate(173.8125,498)"><path id="SvgjsPath1167" d="M 0 0L 120 0L 120 40L 0 40Z" stroke="none" fill="none"></path><g id="SvgjsG1168"><text id="SvgjsText1169" font-family="微软雅黑" text-anchor="middle" font-size="13px" width="120px" fill="#ff66b3" font-weight="700" align="middle" lineHeight="125%" anchor="middle" family="微软雅黑" size="13px" weight="700" font-style="" opacity="1" y="10.375" transform="rotate(0)"><tspan id="SvgjsTspan1170" dy="16" x="60"><tspan id="SvgjsTspan1171" style="text-decoration:;">retry</tspan></tspan></text></g></g><g id="SvgjsG1172"><path id="SvgjsPath1173" d="M116.29241893706876 512.8123885254645L116.29241893706876 474L296.8125 474" stroke="#737373" stroke-width="2" fill="none" marker-end="url(#SvgjsMarker1174)"></path></g><g id="SvgjsG1176" transform="translate(155.8153533935547,661.9090881347656)"><path id="SvgjsPath1177" d="M 0 0L 200 0L 200 32.92613220214844L 0 32.92613220214844Z" stroke="rgba(50,50,50,1)" stroke-width="2" fill-opacity="1" fill="#ffffff"></path><g id="SvgjsG1178"><text id="SvgjsText1179" font-family="微软雅黑" text-anchor="middle" font-size="13px" width="180px" fill="#323232" font-weight="400" align="middle" lineHeight="125%" anchor="middle" family="微软雅黑" size="13px" weight="400" font-style="" opacity="1" y="6.838066101074219" transform="rotate(0)"></text></g></g><g id="SvgjsG1180" transform="translate(134.8125,654.8352203369141)"><path id="SvgjsPath1181" d="M 0 0L 120 0L 120 40L 0 40Z" stroke="none" fill="none"></path><g id="SvgjsG1182"><text id="SvgjsText1183" font-family="微软雅黑" text-anchor="middle" font-size="13px" width="120px" fill="#323232" font-weight="700" align="middle" lineHeight="125%" anchor="middle" family="微软雅黑" size="13px" weight="700" font-style="" opacity="1" y="10.375" transform="rotate(0)"><tspan id="SvgjsTspan1184" dy="16" x="60"><tspan id="SvgjsTspan1185" style="text-decoration:;">Task Instance</tspan></tspan></text></g></g><g id="SvgjsG1186" transform="translate(234.8153533935547,670)"><path id="SvgjsPath1187" d="M 0 0L 105 0L 105 21L 0 21Z" stroke="rgba(50,50,50,1)" stroke-width="2" fill-opacity="1" fill="#ffb74d"></path><g id="SvgjsG1188"><text id="SvgjsText1189" font-family="微软雅黑" text-anchor="middle" font-size="13px" width="85px" fill="#323232" font-weight="700" align="middle" lineHeight="125%" anchor="middle" family="微软雅黑" size="13px" weight="700" font-style="" opacity="1" y="0.875" transform="rotate(0)"><tspan id="SvgjsTspan1190" dy="16" x="52.5"><tspan id="SvgjsTspan1191" style="text-decoration:;">Time Wheel</tspan></tspan></text></g></g><g id="SvgjsG1192" transform="translate(155.8153533935547,704)"><path id="SvgjsPath1193" d="M 0 0L 200 0L 200 33L 0 33Z" stroke="rgba(50,50,50,1)" stroke-width="2" fill-opacity="1" fill="#ffffff"></path><g id="SvgjsG1194"><text id="SvgjsText1195" font-family="微软雅黑" text-anchor="middle" font-size="13px" width="180px" fill="#323232" font-weight="400" align="middle" lineHeight="125%" anchor="middle" family="微软雅黑" size="13px" weight="400" font-style="" opacity="1" y="6.875" transform="rotate(0)"></text></g></g><g id="SvgjsG1196" transform="translate(134.8125,694.8352203369141)"><path id="SvgjsPath1197" d="M 0 0L 120 0L 120 40L 0 40Z" stroke="none" fill="none"></path><g id="SvgjsG1198"><text id="SvgjsText1199" font-family="微软雅黑" text-anchor="middle" font-size="13px" width="120px" fill="#323232" font-weight="700" align="middle" lineHeight="125%" anchor="middle" family="微软雅黑" size="13px" weight="700" font-style="" opacity="1" y="10.375" transform="rotate(0)"><tspan id="SvgjsTspan1200" dy="16" x="60"><tspan id="SvgjsTspan1201" style="text-decoration:;">Sweeper</tspan></tspan></text></g></g><g id="SvgjsG1202" transform="translate(234.8153533935547,710)"><path id="SvgjsPath1203" d="M 0 0L 105 0L 105 21L 0 21Z" stroke="rgba(50,50,50,1)" stroke-width="2" fill-opacity="1" fill="#ffb74d"></path><g id="SvgjsG1204"><text id="SvgjsText1205" font-family="微软雅黑" text-anchor="middle" font-size="13px" width="85px" fill="#323232" font-weight="700" align="middle" lineHeight="125%" anchor="middle" family="微软雅黑" size="13px" weight="700" font-style="" opacity="1" y="0.875" transform="rotate(0)"><tspan id="SvgjsTspan1206" dy="16" x="52.5"><tspan id="SvgjsTspan1207" style="text-decoration:;">Reactor</tspan></tspan></text></g></g><g id="SvgjsG1208" transform="translate(383.8125,595)"><path id="SvgjsPath1209" d="M 0 4Q 0 0 4 0L 222.0028533935547 0Q 226.0028533935547 0 226.0028533935547 4L 226.0028533935547 132Q 226.0028533935547 136 222.0028533935547 136L 4 136Q 0 136 0 132Z" stroke="rgba(50,50,50,1)" stroke-width="2" fill-opacity="1" fill="#ffffff"></path><g id="SvgjsG1210"><text id="SvgjsText1211" font-family="微软雅黑" text-anchor="middle" font-size="13px" width="207px" fill="#323232" font-weight="400" align="middle" lineHeight="125%" anchor="middle" family="微软雅黑" size="13px" weight="400" font-style="" opacity="1" y="58.375" transform="rotate(0)"></text></g></g><g id="SvgjsG1212" transform="translate(409.01248931884766,613)"><path id="SvgjsPath1213" d="M 0 4Q 0 0 4 0L 217.80286407470703 0Q 221.80286407470703 0 221.80286407470703 4L 221.80286407470703 126.74430847167969Q 221.80286407470703 130.7443084716797 217.80286407470703 130.7443084716797L 4 130.7443084716797Q 0 130.7443084716797 0 126.74430847167969Z" stroke="rgba(50,50,50,1)" stroke-width="2" fill-opacity="1" fill="#ffffff"></path><g id="SvgjsG1214"><text id="SvgjsText1215" font-family="微软雅黑" text-anchor="middle" font-size="13px" width="202px" fill="#323232" font-weight="400" align="middle" lineHeight="125%" anchor="middle" family="微软雅黑" size="13px" weight="400" font-style="" opacity="1" y="55.747154235839844" transform="rotate(0)"></text></g></g><g id="SvgjsG1216" transform="translate(399.8125,610)"><path id="SvgjsPath1217" d="M 0 0L 120 0L 120 40L 0 40Z" stroke="none" fill="none"></path><g id="SvgjsG1218"><text id="SvgjsText1219" font-family="微软雅黑" text-anchor="middle" font-size="13px" width="120px" fill="#323232" font-weight="700" align="middle" lineHeight="125%" anchor="middle" family="微软雅黑" size="13px" weight="700" font-style="" opacity="1" y="10.375" transform="rotate(0)"><tspan id="SvgjsTspan1220" dy="16" x="60"><tspan id="SvgjsTspan1221" style="text-decoration:;">executor Clusters</tspan></tspan></text></g></g><g id="SvgjsG1222" transform="translate(416.61536407470703,664)"><path id="SvgjsPath1223" d="M 0 0L 196.19713592529297 0L 196.19713592529297 33L 0 33Z" stroke="rgba(50,50,50,1)" stroke-width="2" fill-opacity="1" fill="#ffffff"></path><g id="SvgjsG1224"><text id="SvgjsText1225" font-family="微软雅黑" text-anchor="middle" font-size="13px" width="177px" fill="#323232" font-weight="400" align="middle" lineHeight="125%" anchor="middle" family="微软雅黑" size="13px" weight="400" font-style="" opacity="1" y="6.875" transform="rotate(0)"></text></g></g><g id="SvgjsG1226" transform="translate(394.8125,654.8352203369141)"><path id="SvgjsPath1227" d="M 0 0L 120 0L 120 40L 0 40Z" stroke="none" fill="none"></path><g id="SvgjsG1228"><text id="SvgjsText1229" font-family="微软雅黑" text-anchor="middle" font-size="13px" width="120px" fill="#323232" font-weight="700" align="middle" lineHeight="125%" anchor="middle" family="微软雅黑" size="13px" weight="700" font-style="" opacity="1" y="10.375" transform="rotate(0)"><tspan id="SvgjsTspan1230" dy="16" x="60"><tspan id="SvgjsTspan1231" style="text-decoration:;">Task Instance</tspan></tspan></text></g></g><g id="SvgjsG1232" transform="translate(494.8153533935547,670)"><path id="SvgjsPath1233" d="M 0 0L 105 0L 105 21L 0 21Z" stroke="rgba(50,50,50,1)" stroke-width="2" fill-opacity="1" fill="#ffb74d"></path><g id="SvgjsG1234"><text id="SvgjsText1235" font-family="微软雅黑" text-anchor="middle" font-size="13px" width="85px" fill="#323232" font-weight="700" align="middle" lineHeight="125%" anchor="middle" family="微软雅黑" size="13px" weight="700" font-style="" opacity="1" y="0.875" transform="rotate(0)"><tspan id="SvgjsTspan1236" dy="16" x="52.5"><tspan id="SvgjsTspan1237" style="text-decoration:;">Time Wheel</tspan></tspan></text></g></g><g id="SvgjsG1238" transform="translate(418.8153533935547,704)"><path id="SvgjsPath1239" d="M 0 0L 196.19713592529297 0L 196.19713592529297 33L 0 33Z" stroke="rgba(50,50,50,1)" stroke-width="2" fill-opacity="1" fill="#ffffff"></path><g id="SvgjsG1240"><text id="SvgjsText1241" font-family="微软雅黑" text-anchor="middle" font-size="13px" width="177px" fill="#323232" font-weight="400" align="middle" lineHeight="125%" anchor="middle" family="微软雅黑" size="13px" weight="400" font-style="" opacity="1" y="6.875" transform="rotate(0)"></text></g></g><g id="SvgjsG1242" transform="translate(394.8125,694.8352203369141)"><path id="SvgjsPath1243" d="M 0 0L 120 0L 120 40L 0 40Z" stroke="none" fill="none"></path><g id="SvgjsG1244"><text id="SvgjsText1245" font-family="微软雅黑" text-anchor="middle" font-size="13px" width="120px" fill="#323232" font-weight="700" align="middle" lineHeight="125%" anchor="middle" family="微软雅黑" size="13px" weight="700" font-style="" opacity="1" y="10.375" transform="rotate(0)"><tspan id="SvgjsTspan1246" dy="16" x="60"><tspan id="SvgjsTspan1247" style="text-decoration:;">Sweeper</tspan></tspan></text></g></g><g id="SvgjsG1248" transform="translate(494.8153533935547,710)"><path id="SvgjsPath1249" d="M 0 0L 105 0L 105 21L 0 21Z" stroke="rgba(50,50,50,1)" stroke-width="2" fill-opacity="1" fill="#ffb74d"></path><g id="SvgjsG1250"><text id="SvgjsText1251" font-family="微软雅黑" text-anchor="middle" font-size="13px" width="85px" fill="#323232" font-weight="700" align="middle" lineHeight="125%" anchor="middle" family="微软雅黑" size="13px" weight="700" font-style="" opacity="1" y="0.875" transform="rotate(0)"><tspan id="SvgjsTspan1252" dy="16" x="52.5"><tspan id="SvgjsTspan1253" style="text-decoration:;">Reactor</tspan></tspan></text></g></g><g id="SvgjsG1254" transform="translate(643.8125,595)"><path id="SvgjsPath1255" d="M 0 4Q 0 0 4 0L 222.0028533935547 0Q 226.0028533935547 0 226.0028533935547 4L 226.0028533935547 132Q 226.0028533935547 136 222.0028533935547 136L 4 136Q 0 136 0 132Z" stroke="rgba(50,50,50,1)" stroke-width="2" fill-opacity="1" fill="#ffffff"></path><g id="SvgjsG1256"><text id="SvgjsText1257" font-family="微软雅黑" text-anchor="middle" font-size="13px" width="207px" fill="#323232" font-weight="400" align="middle" lineHeight="125%" anchor="middle" family="微软雅黑" size="13px" weight="400" font-style="" opacity="1" y="58.375" transform="rotate(0)"></text></g></g><g id="SvgjsG1258" transform="translate(669.0124893188477,613)"><path id="SvgjsPath1259" d="M 0 4Q 0 0 4 0L 217.80286407470703 0Q 221.80286407470703 0 221.80286407470703 4L 221.80286407470703 126.74430847167969Q 221.80286407470703 130.7443084716797 217.80286407470703 130.7443084716797L 4 130.7443084716797Q 0 130.7443084716797 0 126.74430847167969Z" stroke="rgba(50,50,50,1)" stroke-width="2" fill-opacity="1" fill="#ffffff"></path><g id="SvgjsG1260"><text id="SvgjsText1261" font-family="微软雅黑" text-anchor="middle" font-size="13px" width="202px" fill="#323232" font-weight="400" align="middle" lineHeight="125%" anchor="middle" family="微软雅黑" size="13px" weight="400" font-style="" opacity="1" y="55.747154235839844" transform="rotate(0)"></text></g></g><g id="SvgjsG1262" transform="translate(657.8125,610)"><path id="SvgjsPath1263" d="M 0 0L 120 0L 120 40L 0 40Z" stroke="none" fill="none"></path><g id="SvgjsG1264"><text id="SvgjsText1265" font-family="微软雅黑" text-anchor="middle" font-size="13px" width="120px" fill="#323232" font-weight="700" align="middle" lineHeight="125%" anchor="middle" family="微软雅黑" size="13px" weight="700" font-style="" opacity="1" y="10.375" transform="rotate(0)"><tspan id="SvgjsTspan1266" dy="16" x="60"><tspan id="SvgjsTspan1267" style="text-decoration:;">executor Clusters</tspan></tspan></text></g></g><g id="SvgjsG1268" transform="translate(674.8153533935547,661.9090881347656)"><path id="SvgjsPath1269" d="M 0 0L 195 0L 195 32.92613220214844L 0 32.92613220214844Z" stroke="rgba(50,50,50,1)" stroke-width="2" fill-opacity="1" fill="#ffffff"></path><g id="SvgjsG1270"><text id="SvgjsText1271" font-family="微软雅黑" text-anchor="middle" font-size="13px" width="175px" fill="#323232" font-weight="400" align="middle" lineHeight="125%" anchor="middle" family="微软雅黑" size="13px" weight="400" font-style="" opacity="1" y="6.838066101074219" transform="rotate(0)"></text></g></g><g id="SvgjsG1272" transform="translate(654.8125,658.3721542358398)"><path id="SvgjsPath1273" d="M 0 0L 120 0L 120 40L 0 40Z" stroke="none" fill="none"></path><g id="SvgjsG1274"><text id="SvgjsText1275" font-family="微软雅黑" text-anchor="middle" font-size="13px" width="120px" fill="#323232" font-weight="700" align="middle" lineHeight="125%" anchor="middle" family="微软雅黑" size="13px" weight="700" font-style="" opacity="1" y="10.375" transform="rotate(0)"><tspan id="SvgjsTspan1276" dy="16" x="60"><tspan id="SvgjsTspan1277" style="text-decoration:;">Task Instance</tspan></tspan></text></g></g><g id="SvgjsG1278" transform="translate(754.8153533935547,670)"><path id="SvgjsPath1279" d="M 0 0L 105 0L 105 21L 0 21Z" stroke="rgba(50,50,50,1)" stroke-width="2" fill-opacity="1" fill="#ffb74d"></path><g id="SvgjsG1280"><text id="SvgjsText1281" font-family="微软雅黑" text-anchor="middle" font-size="13px" width="85px" fill="#323232" font-weight="700" align="middle" lineHeight="125%" anchor="middle" family="微软雅黑" size="13px" weight="700" font-style="" opacity="1" y="0.875" transform="rotate(0)"><tspan id="SvgjsTspan1282" dy="16" x="52.5"><tspan id="SvgjsTspan1283" style="text-decoration:;">Time Wheel</tspan></tspan></text></g></g><g id="SvgjsG1284" transform="translate(674.8153533935547,701.8352203369141)"><path id="SvgjsPath1285" d="M 0 0L 196.19713592529297 0L 196.19713592529297 33L 0 33Z" stroke="rgba(50,50,50,1)" stroke-width="2" fill-opacity="1" fill="#ffffff"></path><g id="SvgjsG1286"><text id="SvgjsText1287" font-family="微软雅黑" text-anchor="middle" font-size="13px" width="177px" fill="#323232" font-weight="400" align="middle" lineHeight="125%" anchor="middle" family="微软雅黑" size="13px" weight="400" font-style="" opacity="1" y="6.875" transform="rotate(0)"></text></g></g><g id="SvgjsG1288" transform="translate(654.8125,694.8352203369141)"><path id="SvgjsPath1289" d="M 0 0L 120 0L 120 40L 0 40Z" stroke="none" fill="none"></path><g id="SvgjsG1290"><text id="SvgjsText1291" font-family="微软雅黑" text-anchor="middle" font-size="13px" width="120px" fill="#323232" font-weight="700" align="middle" lineHeight="125%" anchor="middle" family="微软雅黑" size="13px" weight="700" font-style="" opacity="1" y="10.375" transform="rotate(0)"><tspan id="SvgjsTspan1292" dy="16" x="60"><tspan id="SvgjsTspan1293" style="text-decoration:;">Sweeper</tspan></tspan></text></g></g><g id="SvgjsG1294" transform="translate(754.8153533935547,710)"><path id="SvgjsPath1295" d="M 0 0L 105 0L 105 21L 0 21Z" stroke="rgba(50,50,50,1)" stroke-width="2" fill-opacity="1" fill="#ffb74d"></path><g id="SvgjsG1296"><text id="SvgjsText1297" font-family="微软雅黑" text-anchor="middle" font-size="13px" width="85px" fill="#323232" font-weight="700" align="middle" lineHeight="125%" anchor="middle" family="微软雅黑" size="13px" weight="700" font-style="" opacity="1" y="0.875" transform="rotate(0)"><tspan id="SvgjsTspan1298" dy="16" x="52.5"><tspan id="SvgjsTspan1299" style="text-decoration:;">Reactor</tspan></tspan></text></g></g><g id="SvgjsG1300" transform="translate(271.3125,297)"><path id="SvgjsPath1301" d="M 0 4Q 0 0 4 0L 102 0Q 106 0 106 4L 106 26.835220336914062Q 106 30.835220336914062 102 30.835220336914062L 4 30.835220336914062Q 0 30.835220336914062 0 26.835220336914062Z" stroke="rgba(50,50,50,1)" stroke-width="2" fill-opacity="1" fill="#ffffff"></path><g id="SvgjsG1302"><text id="SvgjsText1303" font-family="微软雅黑" text-anchor="middle" font-size="13px" width="86px" fill="#323232" font-weight="700" align="middle" lineHeight="125%" anchor="middle" family="微软雅黑" size="13px" weight="700" font-style="" opacity="1" y="5.792610168457031" transform="rotate(0)"><tspan id="SvgjsTspan1304" dy="16" x="53"><tspan id="SvgjsTspan1305" style="text-decoration:;">ThreadPool</tspan></tspan></text></g></g><g id="SvgjsG1306"><path id="SvgjsPath1307" d="M519.9139213562012 743.7443084716797L519.9139213562012 762.7443084716797L82.8125 762.7443084716797L82.8125 315L198.8125 315" stroke-dasharray="8,5" stroke="#ff3333" stroke-width="2" fill="none" marker-end="url(#SvgjsMarker1308)"></path></g><g id="SvgjsG1310" transform="translate(25.012489318847656,502)"><path id="SvgjsPath1311" d="M 13.776001281738282 51.8C -11.480001068115236 37 4.592000427246094 25.9 10.332000961303711 22.2C 8.036000747680665 3.7 36.73600341796875 0 48.21600448608398 7.4C 57.40000534057617 -3.7 86.10000801086426 0 86.10000801086426 11.1C 109.06001014709472 7.4 118.24401100158691 22.2 109.06001014709472 40.7C 117.09601089477539 55.5 109.06001014709472 74 82.65600769042969 66.60000000000001C 76.91600715637207 76.22 53.956005020141596 76.22 48.21600448608398 66.60000000000001C 36.73600341796875 74 13.776001281738282 70.3 13.776001281738282 51.8Z" stroke="rgba(50,50,50,1)" stroke-width="2" fill-opacity="1" fill="#ffffff"></path><g id="SvgjsG1312"><text id="SvgjsText1313" font-family="微软雅黑" text-anchor="middle" font-size="13px" width="95px" fill="#323232" font-weight="700" align="middle" lineHeight="125%" anchor="middle" family="微软雅黑" size="13px" weight="700" font-style="" opacity="1" y="19.375" transform="rotate(0)"><tspan id="SvgjsTspan1314" dy="16" x="57.5"><tspan id="SvgjsTspan1315" style="text-decoration:;">heart</tspan></tspan><tspan id="SvgjsTspan1316" dy="16" x="57.5"><tspan id="SvgjsTspan1317" style="text-decoration:;">callback</tspan></tspan></text></g></g><g id="SvgjsG1318"><path id="SvgjsPath1319" d="M546.8125 54L546.8125 73.5L546.8125 73.5L546.8125 93" stroke="#323232" stroke-width="2" fill="none" marker-end="url(#SvgjsMarker1320)"></path></g><g id="SvgjsG1322" transform="translate(492.76534271240234,109)"><path id="SvgjsPath1323" d="M 0 4Q 0 0 4 0L 105.10002136230469 0Q 109.10002136230469 0 109.10002136230469 4L 109.10002136230469 25Q 109.10002136230469 29 105.10002136230469 29L 4 29Q 0 29 0 25Z" stroke="rgba(50,50,50,1)" stroke-width="2" fill-opacity="1" fill="#00ffff"></path><g id="SvgjsG1324"><text id="SvgjsText1325" font-family="微软雅黑" text-anchor="middle" font-size="13px" width="90px" fill="#323232" font-weight="400" align="middle" lineHeight="125%" anchor="middle" family="微软雅黑" size="13px" weight="400" font-style="" opacity="1" y="4.875" transform="rotate(0)"><tspan id="SvgjsTspan1326" dy="16" x="55"><tspan id="SvgjsTspan1327" style="text-decoration:;">nginx clusters</tspan></tspan></text></g></g></svg>