<svg id="SvgjsSvg1006" width="1306.84375" height="1171.765625" xmlns="http://www.w3.org/2000/svg" version="1.1" xmlns:xlink="http://www.w3.org/1999/xlink" xmlns:svgjs="http://svgjs.com/svgjs"><defs id="SvgjsDefs1007"><pattern id="SvgjsPattern1014" x="0" y="0" width="32.67369436715512" height="62.22884818533623" patternUnits="userSpaceOnUse"><image id="SvgjsImage1015" xlink:href="https://www.processon.com/assets/images/designer/network/iphone.svg" width="32.67369436715512" height="62.22884818533623" preserveAspectRatio="none" crossOrigin="anonymous" x="0" y="0"></image></pattern><pattern id="SvgjsPattern1020" x="0" y="0" width="44.62844802864464" height="65.12284692050349" patternUnits="userSpaceOnUse"><image id="SvgjsImage1021" xlink:href="https://www.processon.com/assets/images/designer/network/tab.svg" width="44.62844802864464" height="65.12284692050349" preserveAspectRatio="none" crossOrigin="anonymous" x="0" y="0"></image></pattern><pattern id="SvgjsPattern1026" x="0" y="0" width="78.91151610122542" height="72.62547905420207" patternUnits="userSpaceOnUse"><image id="SvgjsImage1027" xlink:href="https://www.processon.com/assets/images/designer/network/pc.svg" width="78.91151610122542" height="72.62547905420207" preserveAspectRatio="none" crossOrigin="anonymous" x="0" y="0"></image></pattern></defs><g id="SvgjsG1008" transform="translate(302.3890977778665,25)"><path id="SvgjsPath1009" d="M 0 4Q 0 0 4 0L 971.6645906768549 0Q 975.6645906768549 0 975.6645906768549 4L 975.6645906768549 134.08437999032793Q 975.6645906768549 138.08437999032793 971.6645906768549 138.08437999032793L 4 138.08437999032793Q 0 138.08437999032793 0 134.08437999032793Z" stroke="rgba(50,50,50,1)" stroke-width="2" fill-opacity="1" fill="#ffffff"></path><g id="SvgjsG1010"><text id="SvgjsText1011" font-family="微软雅黑" text-anchor="middle" font-size="23px" width="956px" fill="#323232" font-weight="400" align="middle" lineHeight="125%" anchor="middle" family="微软雅黑" size="23px" weight="400" font-style="" opacity="1" y="50.167189995163966" transform="rotate(0)"></text></g></g><g id="SvgjsG1012" transform="translate(465.84056541537643,40.733094888095025)"><path id="SvgjsPath1013" d="M 0 0L 32.67369436715512 0L 32.67369436715512 62.22884818533623L 0 62.22884818533623Z" stroke="none" fill="url(#SvgjsPattern1014)"></path><g id="SvgjsG1016"><text id="SvgjsText1017" font-family="微软雅黑" text-anchor="middle" font-size="13px" width="73px" fill="#323232" font-weight="400" align="middle" lineHeight="125%" anchor="middle" family="微软雅黑" size="13px" weight="400" font-style="" opacity="1" y="67.60384818533623" transform="rotate(0)"></text></g></g><g id="SvgjsG1018" transform="translate(555.0800571378545,39.28609552051137)"><path id="SvgjsPath1019" d="M 0 0L 44.62844802864464 0L 44.62844802864464 65.12284692050349L 0 65.12284692050349Z" stroke="none" fill="url(#SvgjsPattern1020)"></path><g id="SvgjsG1022"><text id="SvgjsText1023" font-family="微软雅黑" text-anchor="middle" font-size="13px" width="85px" fill="#323232" font-weight="400" align="middle" lineHeight="125%" anchor="middle" family="微软雅黑" size="13px" weight="400" font-style="" opacity="1" y="70.49784692050349" transform="rotate(0)"></text></g></g><g id="SvgjsG1024" transform="translate(805.1339263916016,47.733094888095025)"><path id="SvgjsPath1025" d="M 0 0L 78.91151610122542 0L 78.91151610122542 72.62547905420207L 0 72.62547905420207Z" stroke="none" fill="url(#SvgjsPattern1026)"></path><g id="SvgjsG1028"><text id="SvgjsText1029" font-family="微软雅黑" text-anchor="middle" font-size="23px" width="119px" fill="#323232" font-weight="400" align="middle" lineHeight="125%" anchor="middle" family="微软雅黑" size="23px" weight="400" font-style="" opacity="1" y="68.75047905420207" transform="rotate(0)"><tspan id="SvgjsTspan1030" dy="28" x="39.5"><tspan id="SvgjsTspan1031" style="text-decoration:;">PC</tspan></tspan></text></g></g><g id="SvgjsG1032" transform="translate(462.13792628016586,107.66642364787486)"><path id="SvgjsPath1033" d="M 0 0L 122.13398718111878 0L 122.13398718111878 50.641504702659134L 0 50.641504702659134Z" stroke="none" fill="none"></path><g id="SvgjsG1034"><text id="SvgjsText1035" font-family="微软雅黑" text-anchor="middle" font-size="23px" width="123px" fill="#323232" font-weight="400" align="middle" lineHeight="125%" anchor="middle" family="微软雅黑" size="23px" weight="400" font-style="" opacity="1" y="-7.554247648670433" transform="rotate(0)"><tspan id="SvgjsTspan1036" dy="28" x="61.5"><tspan id="SvgjsTspan1037" style="text-decoration:;">Mobile </tspan></tspan><tspan id="SvgjsTspan1038" dy="28" x="61.5"><tspan id="SvgjsTspan1039" style="text-decoration:;">Devices</tspan></tspan></text></g></g><g id="SvgjsG1040" transform="translate(53.37063079745252,42.929304615569094)"><path id="SvgjsPath1041" d="M 0 4Q 0 0 4 0L 117.35739520801516 0Q 121.35739520801516 0 121.35739520801516 4L 121.35739520801516 111.3786237349649Q 121.35739520801516 115.3786237349649 117.35739520801516 115.3786237349649L 4 115.3786237349649Q 0 115.3786237349649 0 111.3786237349649Z" stroke="rgba(50,50,50,1)" stroke-width="2" fill-opacity="1" fill="#99ff99"></path><g id="SvgjsG1042"><text id="SvgjsText1043" font-family="微软雅黑" text-anchor="middle" font-size="24px" width="102px" fill="#323232" font-weight="400" align="middle" lineHeight="125%" anchor="middle" family="微软雅黑" size="24px" weight="400" font-style="" opacity="1" y="22.689311867482452" transform="rotate(0)"><tspan id="SvgjsTspan1044" dy="30" x="61"><tspan id="SvgjsTspan1045" style="text-decoration:;">Access </tspan></tspan><tspan id="SvgjsTspan1046" dy="30" x="61"><tspan id="SvgjsTspan1047" style="text-decoration:;">layer</tspan></tspan></text></g></g><g id="SvgjsG1048" transform="translate(302.3890977778665,180.73253192784637)"><path id="SvgjsPath1049" d="M 0 4Q 0 0 4 0L 570.5621184188191 0Q 574.5621184188191 0 574.5621184188191 4L 574.5621184188191 67.28788104720184Q 574.5621184188191 71.28788104720184 570.5621184188191 71.28788104720184L 4 71.28788104720184Q 0 71.28788104720184 0 67.28788104720184Z" stroke="rgba(50,50,50,1)" stroke-width="2" fill-opacity="1" fill="#ccff99"></path><g id="SvgjsG1050"><text id="SvgjsText1051" font-family="宋体" text-anchor="start" font-size="13px" width="555px" fill="#323232" font-weight="700" align="top" lineHeight="125%" anchor="start" family="宋体" size="13px" weight="700" font-style="" opacity="1" y="-1.625" transform="rotate(0)"><tspan id="SvgjsTspan1052" dy="16" x="10"><tspan id="SvgjsTspan1053" style="text-decoration:;">PC WEB-end</tspan></tspan></text></g></g><g id="SvgjsG1054" transform="translate(53.37063079745258,177.73253192784637)"><path id="SvgjsPath1055" d="M 0 4Q 0 0 4 0L 117.35739520801508 0Q 121.35739520801508 0 121.35739520801508 4L 121.35739520801508 67.28788104720184Q 121.35739520801508 71.28788104720184 117.35739520801508 71.28788104720184L 4 71.28788104720184Q 0 71.28788104720184 0 67.28788104720184Z" stroke="rgba(50,50,50,1)" stroke-width="2" fill-opacity="1" fill="#99ff99"></path><g id="SvgjsG1056"><text id="SvgjsText1057" font-family="微软雅黑" text-anchor="middle" font-size="24px" width="102px" fill="#323232" font-weight="400" align="middle" lineHeight="125%" anchor="middle" family="微软雅黑" size="24px" weight="400" font-style="" opacity="1" y="0.6439405236009179" transform="rotate(0)"><tspan id="SvgjsTspan1058" dy="30" x="61"><tspan id="SvgjsTspan1059" style="text-decoration:;">Front-end </tspan></tspan><tspan id="SvgjsTspan1060" dy="30" x="61"><tspan id="SvgjsTspan1061" style="text-decoration:;">UI</tspan></tspan></text></g></g><g id="SvgjsG1062" transform="translate(324.1910446514746,197.76994475987487)"><path id="SvgjsPath1063" d="M 0 4Q 0 0 4 0L 108.6606437331334 0Q 112.6606437331334 0 112.6606437331334 4L 112.6606437331334 33.21305538314484Q 112.6606437331334 37.21305538314484 108.6606437331334 37.21305538314484L 4 37.21305538314484Q 0 37.21305538314484 0 33.21305538314484Z" stroke="rgba(50,50,50,1)" stroke-width="2" fill-opacity="1" fill="#ffffff"></path><g id="SvgjsG1064"><text id="SvgjsText1065" font-family="微软雅黑" text-anchor="middle" font-size="19px" width="93px" fill="#323232" font-weight="400" align="middle" lineHeight="125%" anchor="middle" family="微软雅黑" size="19px" weight="400" font-style="" opacity="1" y="4.7315276915724205" transform="rotate(0)"><tspan id="SvgjsTspan1066" dy="23" x="56.5"><tspan id="SvgjsTspan1067" style="text-decoration:;">ant-design</tspan></tspan></text></g></g><g id="SvgjsG1068" transform="translate(453.88226624463687,200.18552699137024)"><path id="SvgjsPath1069" d="M 0 4Q 0 0 4 0L 82.94757104509404 0Q 86.94757104509404 0 86.94757104509404 4L 86.94757104509404 33.21305538314484Q 86.94757104509404 37.21305538314484 82.94757104509404 37.21305538314484L 4 37.21305538314484Q 0 37.21305538314484 0 33.21305538314484Z" stroke="rgba(50,50,50,1)" stroke-width="2" fill-opacity="1" fill="#ffffff"></path><g id="SvgjsG1070"><text id="SvgjsText1071" font-family="微软雅黑" text-anchor="middle" font-size="19px" width="67px" fill="#323232" font-weight="400" align="middle" lineHeight="125%" anchor="middle" family="微软雅黑" size="19px" weight="400" font-style="" opacity="1" y="4.7315276915724205" transform="rotate(0)"><tspan id="SvgjsTspan1072" dy="23" x="43.5"><tspan id="SvgjsTspan1073" style="text-decoration:;">Html5</tspan></tspan></text></g></g><g id="SvgjsG1074" transform="translate(566.538475708093,200.18552699137024)"><path id="SvgjsPath1075" d="M 0 4Q 0 0 4 0L 73.02560247124686 0Q 77.02560247124686 0 77.02560247124686 4L 77.02560247124686 33.21305538314484Q 77.02560247124686 37.21305538314484 73.02560247124686 37.21305538314484L 4 37.21305538314484Q 0 37.21305538314484 0 33.21305538314484Z" stroke="rgba(50,50,50,1)" stroke-width="2" fill-opacity="1" fill="#ffffff"></path><g id="SvgjsG1076"><text id="SvgjsText1077" font-family="微软雅黑" text-anchor="middle" font-size="19px" width="58px" fill="#323232" font-weight="400" align="middle" lineHeight="125%" anchor="middle" family="微软雅黑" size="19px" weight="400" font-style="" opacity="1" y="4.7315276915724205" transform="rotate(0)"><tspan id="SvgjsTspan1078" dy="23" x="39"><tspan id="SvgjsTspan1079" style="text-decoration:;">CSS3</tspan></tspan></text></g></g><g id="SvgjsG1080" transform="translate(766.4547610416962,200.17153844360746)"><path id="SvgjsPath1081" d="M 0 4Q 0 0 4 0L 69.59637353185914 0Q 73.59637353185914 0 73.59637353185914 4L 73.59637353185914 33.24103247867035Q 73.59637353185914 37.24103247867035 69.59637353185914 37.24103247867035L 4 37.24103247867035Q 0 37.24103247867035 0 33.24103247867035Z" stroke="rgba(50,50,50,1)" stroke-width="2" fill-opacity="1" fill="#ffffff"></path><g id="SvgjsG1082"><text id="SvgjsText1083" font-family="微软雅黑" text-anchor="middle" font-size="19px" width="54px" fill="#323232" font-weight="400" align="middle" lineHeight="125%" anchor="middle" family="微软雅黑" size="19px" weight="400" font-style="" opacity="1" y="4.745516239335174" transform="rotate(0)"><tspan id="SvgjsTspan1084" dy="23" x="37"><tspan id="SvgjsTspan1085" style="text-decoration:;">Ajax</tspan></tspan></text></g></g><g id="SvgjsG1086" transform="translate(665.1048044499992,200.18552699137024)"><path id="SvgjsPath1087" d="M 0 4Q 0 0 4 0L 70.2671647736507 0Q 74.2671647736507 0 74.2671647736507 4L 74.2671647736507 33.21305538314484Q 74.2671647736507 37.21305538314484 70.2671647736507 37.21305538314484L 4 37.21305538314484Q 0 37.21305538314484 0 33.21305538314484Z" stroke="rgba(50,50,50,1)" stroke-width="2" fill-opacity="1" fill="#ffffff"></path><g id="SvgjsG1088"><text id="SvgjsText1089" font-family="微软雅黑" text-anchor="middle" font-size="19px" width="55px" fill="#323232" font-weight="400" align="middle" lineHeight="125%" anchor="middle" family="微软雅黑" size="19px" weight="400" font-style="" opacity="1" y="4.7315276915724205" transform="rotate(0)"><tspan id="SvgjsTspan1090" dy="23" x="37.5"><tspan id="SvgjsTspan1091" style="text-decoration:;">React</tspan></tspan></text></g></g><g id="SvgjsG1092" transform="translate(894.1977885766578,180.73253192784637)"><path id="SvgjsPath1093" d="M 0 4Q 0 0 4 0L 378.9272114233422 0Q 382.9272114233422 0 382.9272114233422 4L 382.9272114233422 67.28788104720184Q 382.9272114233422 71.28788104720184 378.9272114233422 71.28788104720184L 4 71.28788104720184Q 0 71.28788104720184 0 67.28788104720184Z" stroke="rgba(50,50,50,1)" stroke-width="2" fill-opacity="1" fill="#ccff99"></path><g id="SvgjsG1094"><text id="SvgjsText1095" font-family="微软雅黑" text-anchor="start" font-size="13px" width="363px" fill="#323232" font-weight="700" align="top" lineHeight="125%" anchor="start" family="微软雅黑" size="13px" weight="700" font-style="" opacity="1" y="-1.625" transform="rotate(0)"><tspan id="SvgjsTspan1096" dy="16" x="10"><tspan id="SvgjsTspan1097" style="text-decoration:;">Mobile Devices</tspan></tspan></text></g></g><g id="SvgjsG1098" transform="translate(928.7773732462297,200.7717490143034)"><path id="SvgjsPath1099" d="M 0 4Q 0 0 4 0L 138.8973863261514 0Q 142.8973863261514 0 142.8973863261514 4L 142.8973863261514 32.04061133727859Q 142.8973863261514 36.04061133727859 138.8973863261514 36.04061133727859L 4 36.04061133727859Q 0 36.04061133727859 0 32.04061133727859Z" stroke="rgba(50,50,50,1)" stroke-width="2" fill-opacity="1" fill="#ffffff"></path><g id="SvgjsG1100"><text id="SvgjsText1101" font-family="微软雅黑" text-anchor="middle" font-size="19px" width="123px" fill="#323232" font-weight="400" align="middle" lineHeight="125%" anchor="middle" family="微软雅黑" size="19px" weight="400" font-style="" opacity="1" y="4.1453056686392955" transform="rotate(0)"><tspan id="SvgjsTspan1102" dy="23" x="71.5"><tspan id="SvgjsTspan1103" style="text-decoration:;">Android</tspan></tspan></text></g></g><g id="SvgjsG1104" transform="translate(1110.2474538557408,200.7717490143034)"><path id="SvgjsPath1105" d="M 0 4Q 0 0 4 0L 128.96538904853946 0Q 132.96538904853946 0 132.96538904853946 4L 132.96538904853946 32.04061133727859Q 132.96538904853946 36.04061133727859 128.96538904853946 36.04061133727859L 4 36.04061133727859Q 0 36.04061133727859 0 32.04061133727859Z" stroke="rgba(50,50,50,1)" stroke-width="2" fill-opacity="1" fill="#ffffff"></path><g id="SvgjsG1106"><text id="SvgjsText1107" font-family="微软雅黑" text-anchor="middle" font-size="19px" width="113px" fill="#323232" font-weight="400" align="middle" lineHeight="125%" anchor="middle" family="微软雅黑" size="19px" weight="400" font-style="" opacity="1" y="4.1453056686392955" transform="rotate(0)"><tspan id="SvgjsTspan1108" dy="23" x="66.5"><tspan id="SvgjsTspan1109" style="text-decoration:;">Html5</tspan></tspan></text></g></g><g id="SvgjsG1110" transform="translate(53.37063079745252,280.9435813809512)"><path id="SvgjsPath1111" d="M 0 4Q 0 0 4 0L 125.19225078372841 0Q 129.1922507837284 0 129.1922507837284 4L 129.1922507837284 61.09912995786539Q 129.1922507837284 65.09912995786539 125.19225078372841 65.09912995786539L 4 65.09912995786539Q 0 65.09912995786539 0 61.09912995786539Z" stroke="rgba(50,50,50,1)" stroke-width="2" fill-opacity="1" fill="#99ff99"></path><g id="SvgjsG1112"><text id="SvgjsText1113" font-family="微软雅黑" text-anchor="middle" font-size="24px" width="110px" fill="#323232" font-weight="400" align="middle" lineHeight="125%" anchor="middle" family="微软雅黑" size="24px" weight="400" font-style="" opacity="1" y="-2.4504350210673067" transform="rotate(0)"><tspan id="SvgjsTspan1114" dy="30" x="65"><tspan id="SvgjsTspan1115" style="text-decoration:;">Display </tspan></tspan><tspan id="SvgjsTspan1116" dy="30" x="65"><tspan id="SvgjsTspan1117" style="text-decoration:;">layer</tspan></tspan></text></g></g><g id="SvgjsG1118" transform="translate(854.7064255817729,280.9435813809513)"><path id="SvgjsPath1119" d="M 0 4Q 0 0 4 0L 228.5694601051107 0Q 232.5694601051107 0 232.5694601051107 4L 232.5694601051107 63.527949336174515Q 232.5694601051107 67.52794933617452 228.5694601051107 67.52794933617452L 4 67.52794933617452Q 0 67.52794933617452 0 63.527949336174515Z" stroke="rgba(50,50,50,1)" stroke-width="2" fill-opacity="1" fill="#ffff99"></path><g id="SvgjsG1120"><text id="SvgjsText1121" font-family="微软雅黑" text-anchor="middle" font-size="24px" width="213px" fill="#323232" font-weight="400" align="middle" lineHeight="125%" anchor="middle" family="微软雅黑" size="24px" weight="400" font-style="" opacity="1" y="13.763974668087258" transform="rotate(0)"><tspan id="SvgjsTspan1122" dy="30" x="116.5"><tspan id="SvgjsTspan1123" style="text-decoration:;">Http/Websocket</tspan></tspan></text></g></g><g id="SvgjsG1124" transform="translate(1157.2128429042803,294.9804572470524)"><path id="SvgjsPath1125" d="M 0 4Q 0 0 4 0L 115.91215709571975 0Q 119.91215709571975 0 119.91215709571975 4L 119.91215709571975 343.78559031084535Q 119.91215709571975 347.78559031084535 115.91215709571975 347.78559031084535L 4 347.78559031084535Q 0 347.78559031084535 0 343.78559031084535Z" stroke="rgba(50,50,50,1)" stroke-width="2" fill-opacity="1" fill="#ff9999"></path><g id="SvgjsG1126"><text id="SvgjsText1127" font-family="微软雅黑" text-anchor="middle" font-size="26px" width="100px" fill="#323232" font-weight="400" align="middle" lineHeight="125%" anchor="middle" family="微软雅黑" size="26px" weight="400" font-style="" opacity="1" y="120.64279515542268" transform="rotate(0)"><tspan id="SvgjsTspan1128" dy="32" x="60"><tspan id="SvgjsTspan1129" style="text-decoration:;">Permissi</tspan></tspan><tspan id="SvgjsTspan1130" dy="32" x="60"><tspan id="SvgjsTspan1131" style="text-decoration:;">on</tspan></tspan><tspan id="SvgjsTspan1132" dy="32" x="60"><tspan id="SvgjsTspan1133" style="text-decoration:;">Control</tspan></tspan></text></g></g><g id="SvgjsG1134" transform="translate(346.0174755316748,280.47585510603665)"><path id="SvgjsPath1135" d="M 0 4Q 0 0 4 0L 489.5509527824315 0Q 493.5509527824315 0 493.5509527824315 4L 493.5509527824315 70.21496629933472Q 493.5509527824315 74.21496629933472 489.5509527824315 74.21496629933472L 4 74.21496629933472Q 0 74.21496629933472 0 70.21496629933472Z" stroke="rgba(50,50,50,1)" stroke-width="2" fill-opacity="1" fill="#ffcc99"></path><g id="SvgjsG1136"><text id="SvgjsText1137" font-family="微软雅黑" text-anchor="start" font-size="23px" width="474px" fill="#323232" font-weight="400" align="middle" lineHeight="125%" anchor="start" family="微软雅黑" size="23px" weight="400" font-style="" opacity="1" y="18.23248314966736" transform="rotate(0)"><tspan id="SvgjsTspan1138" dy="28" x="10"><tspan id="SvgjsTspan1139" style="text-decoration:;">Async Interaction</tspan></tspan></text></g></g><g id="SvgjsG1140" transform="translate(617.125,298.8163491728245)"><path id="SvgjsPath1141" d="M 0 4Q 0 0 4 0L 68.57711060498525 0Q 72.57711060498525 0 72.57711060498525 4L 72.57711060498525 29.911512544853167Q 72.57711060498525 33.91151254485317 68.57711060498525 33.91151254485317L 4 33.91151254485317Q 0 33.91151254485317 0 29.911512544853167Z" stroke="rgba(50,50,50,1)" stroke-width="2" fill-opacity="1" fill="#ffffff"></path><g id="SvgjsG1142"><text id="SvgjsText1143" font-family="微软雅黑" text-anchor="middle" font-size="19px" width="53px" fill="#323232" font-weight="400" align="middle" lineHeight="125%" anchor="middle" family="微软雅黑" size="19px" weight="400" font-style="" opacity="1" y="3.0807562724265836" transform="rotate(0)"><tspan id="SvgjsTspan1144" dy="23" x="36.5"><tspan id="SvgjsTspan1145" style="text-decoration:;">POST</tspan></tspan></text></g></g><g id="SvgjsG1146" transform="translate(700.1341904176936,296.68725038039906)"><path id="SvgjsPath1147" d="M 0 4Q 0 0 4 0L 91.19242124289819 0Q 95.19242124289819 0 95.19242124289819 4L 95.19242124289819 32.04061133727859Q 95.19242124289819 36.04061133727859 91.19242124289819 36.04061133727859L 4 36.04061133727859Q 0 36.04061133727859 0 32.04061133727859Z" stroke="rgba(50,50,50,1)" stroke-width="2" fill-opacity="1" fill="#ffffff"></path><g id="SvgjsG1148"><text id="SvgjsText1149" font-family="微软雅黑" text-anchor="middle" font-size="19px" width="76px" fill="#323232" font-weight="400" align="middle" lineHeight="125%" anchor="middle" family="微软雅黑" size="19px" weight="400" font-style="" opacity="1" y="4.1453056686392955" transform="rotate(0)"><tspan id="SvgjsTspan1150" dy="23" x="48"><tspan id="SvgjsTspan1151" style="text-decoration:;">Get</tspan></tspan></text></g></g><g id="SvgjsG1152" transform="translate(588.9722276269758,259.14605856567437)"><path id="SvgjsPath1153" d="M 22.70908537615213 0L 46.106324854611906 0L 46.106324854611906 14.49549254230639L 68.81541023076403 14.49549254230639L 34.407705115382015 26.35544098601162L 0 14.49549254230639L 22.70908537615213 14.49549254230639L 22.70908537615213 0Z" stroke="rgba(50,50,50,1)" stroke-width="2" fill-opacity="1" fill="#ffffff"></path><g id="SvgjsG1154"><text id="SvgjsText1155" font-family="微软雅黑" text-anchor="middle" font-size="13px" width="97px" fill="#323232" font-weight="400" align="middle" lineHeight="125%" anchor="middle" family="微软雅黑" size="13px" weight="400" font-style="" opacity="1" y="2.2349484437052283" transform="rotate(0)"></text></g></g><g id="SvgjsG1156" transform="translate(56.43745185182689,158.30792835053398)"><path id="SvgjsPath1157" d="M 0 12.466227823258647L 1085.3972289594576 12.466227823258647" stroke-dasharray="10,6" stroke="rgba(136,136,136,1)" stroke-width="1" fill="none"></path><path id="SvgjsPath1158" d="M 0 0L 1085.3972289594576 0L 1085.3972289594576 24.932455646517294L 0 24.932455646517294Z" stroke="none" fill="none"></path></g><g id="SvgjsG1159" transform="translate(43.751223034496945,256.011125734434)"><path id="SvgjsPath1160" d="M 0 12.466227823258647L 1098.0834577767873 12.466227823258647" stroke-dasharray="10,6" stroke="rgba(136,136,136,1)" stroke-width="1" fill="none"></path><path id="SvgjsPath1161" d="M 0 0L 1098.0834577767873 0L 1098.0834577767873 24.932455646517294L 0 24.932455646517294Z" stroke="none" fill="none"></path></g><g id="SvgjsG1162" transform="translate(1032.1349394506474,378)"><path id="SvgjsPath1163" d="M 0 4Q 0 0 4 0L 90.99006054935262 0Q 94.99006054935262 0 94.99006054935262 4L 94.99006054935262 259.76604755789776Q 94.99006054935262 263.76604755789776 90.99006054935262 263.76604755789776L 4 263.76604755789776Q 0 263.76604755789776 0 259.76604755789776Z" stroke="rgba(50,50,50,1)" stroke-width="2" fill-opacity="1" fill="#ccff99"></path><g id="SvgjsG1164"><text id="SvgjsText1165" font-family="微软雅黑" text-anchor="middle" font-size="26px" width="75px" fill="#323232" font-weight="400" align="middle" lineHeight="125%" anchor="middle" family="微软雅黑" size="26px" weight="400" font-style="" opacity="1" y="78.63302377894888" transform="rotate(0)"><tspan id="SvgjsTspan1166" dy="32" x="47.5"><tspan id="SvgjsTspan1167" style="text-decoration:;">Log </tspan></tspan><tspan id="SvgjsTspan1168" dy="32" x="47.5"><tspan id="SvgjsTspan1169" style="text-decoration:;">Recor</tspan></tspan><tspan id="SvgjsTspan1170" dy="32" x="47.5"><tspan id="SvgjsTspan1171" style="text-decoration:;">d</tspan></tspan></text></g></g><g id="SvgjsG1172" transform="translate(53.37063079745252,381.40686123199873)"><path id="SvgjsPath1173" d="M 0 4Q 0 0 4 0L 128.25907183810278 0Q 132.25907183810278 0 132.25907183810278 4L 132.25907183810278 262.59313876800104Q 132.25907183810278 266.59313876800104 128.25907183810278 266.59313876800104L 4 266.59313876800104Q 0 266.59313876800104 0 262.59313876800104Z" stroke="rgba(50,50,50,1)" stroke-width="2" fill-opacity="1" fill="#99ff99"></path><g id="SvgjsG1174"><text id="SvgjsText1175" font-family="微软雅黑" text-anchor="middle" font-size="24px" width="113px" fill="#323232" font-weight="400" align="middle" lineHeight="125%" anchor="middle" family="微软雅黑" size="24px" weight="400" font-style="" opacity="1" y="38.29656938400052" transform="rotate(0)"><tspan id="SvgjsTspan1176" dy="30" x="66.5"><tspan id="SvgjsTspan1177" style="text-decoration:;">Applicatio</tspan></tspan><tspan id="SvgjsTspan1178" dy="30" x="66.5"><tspan id="SvgjsTspan1179" style="text-decoration:;">n </tspan></tspan><tspan id="SvgjsTspan1180" dy="30" x="66.5"><tspan id="SvgjsTspan1181" style="text-decoration:;">Business L</tspan></tspan><tspan id="SvgjsTspan1182" dy="30" x="66.5"><tspan id="SvgjsTspan1183" style="text-decoration:;">ayer</tspan></tspan><tspan id="SvgjsTspan1184" dy="30" x="66.5"><tspan id="SvgjsTspan1185" style="text-decoration:;">（actix-</tspan></tspan><tspan id="SvgjsTspan1186" dy="30" x="66.5"><tspan id="SvgjsTspan1187" style="text-decoration:;">web）</tspan></tspan></text></g></g><g id="SvgjsG1188" transform="translate(588.9722276269758,354.69082140537137)"><path id="SvgjsPath1189" d="M 22.70908537615213 0L 46.106324854611906 0L 46.106324854611906 14.49549254230639L 68.81541023076403 14.49549254230639L 34.407705115382015 26.35544098601162L 0 14.49549254230639L 22.70908537615213 14.49549254230639L 22.70908537615213 0Z" stroke="rgba(50,50,50,1)" stroke-width="2" fill-opacity="1" fill="#ffffff"></path><g id="SvgjsG1190"><text id="SvgjsText1191" font-family="微软雅黑" text-anchor="middle" font-size="13px" width="97px" fill="#323232" font-weight="400" align="middle" lineHeight="125%" anchor="middle" family="微软雅黑" size="13px" weight="400" font-style="" opacity="1" y="2.2349484437052283" transform="rotate(0)"></text></g></g><g id="SvgjsG1192" transform="translate(53.37063079745252,350.60062950955125)"><path id="SvgjsPath1193" d="M 0 12.466227823258647L 1028.6776813971146 12.466227823258647" stroke-dasharray="10,6" stroke="rgba(136,136,136,1)" stroke-width="1" fill="none"></path><path id="SvgjsPath1194" d="M 0 0L 1028.6776813971146 0L 1028.6776813971146 24.932455646517294L 0 24.932455646517294Z" stroke="none" fill="none"></path></g><g id="SvgjsG1195" transform="translate(53.37063079745252,668.4778290096854)"><path id="SvgjsPath1196" d="M 0 4Q 0 0 4 0L 125.19225078372841 0Q 129.1922507837284 0 129.1922507837284 4L 129.1922507837284 68.16346264486107Q 129.1922507837284 72.16346264486107 125.19225078372841 72.16346264486107L 4 72.16346264486107Q 0 72.16346264486107 0 68.16346264486107Z" stroke="rgba(50,50,50,1)" stroke-width="2" fill-opacity="1" fill="#99ff99"></path><g id="SvgjsG1197"><text id="SvgjsText1198" font-family="微软雅黑" text-anchor="middle" font-size="24px" width="110px" fill="#323232" font-weight="400" align="middle" lineHeight="125%" anchor="middle" family="微软雅黑" size="24px" weight="400" font-style="" opacity="1" y="1.0817313224305352" transform="rotate(0)"><tspan id="SvgjsTspan1199" dy="30" x="65"><tspan id="SvgjsTspan1200" style="text-decoration:;">Data Layer</tspan></tspan><tspan id="SvgjsTspan1201" dy="30" x="65"><tspan id="SvgjsTspan1202" style="text-decoration:;">（diesel）</tspan></tspan></text></g></g><g id="SvgjsG1203" transform="translate(295.125,667.3994622128312)"><path id="SvgjsPath1204" d="M 0 4Q 0 0 4 0L 978.9286884547209 0Q 982.9286884547209 0 982.9286884547209 4L 982.9286884547209 68.06326646315392Q 982.9286884547209 72.06326646315392 978.9286884547209 72.06326646315392L 4 72.06326646315392Q 0 72.06326646315392 0 68.06326646315392Z" stroke="rgba(50,50,50,1)" stroke-width="2" fill-opacity="1" fill="#99ff99"></path><g id="SvgjsG1205"><text id="SvgjsText1206" font-family="微软雅黑" text-anchor="middle" font-size="13px" width="963px" fill="#323232" font-weight="400" align="middle" lineHeight="125%" anchor="middle" family="微软雅黑" size="13px" weight="400" font-style="" opacity="1" y="26.40663323157696" transform="rotate(0)"></text></g></g><g id="SvgjsG1207" transform="translate(364.2268625572493,683.9172576229105)"><path id="SvgjsPath1208" d="M 0 4Q 0 0 4 0L 114.89813744275068 0Q 118.89813744275068 0 118.89813744275068 4L 118.89813744275068 46.08274237708952Q 118.89813744275068 50.08274237708952 114.89813744275068 50.08274237708952L 4 50.08274237708952Q 0 50.08274237708952 0 46.08274237708952Z" stroke="rgba(50,50,50,1)" stroke-width="2" fill-opacity="1" fill="#ffffff"></path><g id="SvgjsG1209"><text id="SvgjsText1210" font-family="微软雅黑" text-anchor="middle" font-size="21px" width="99px" fill="#323232" font-weight="400" align="middle" lineHeight="125%" anchor="middle" family="微软雅黑" size="21px" weight="400" font-style="" opacity="1" y="7.416371188544758" transform="rotate(0)"><tspan id="SvgjsTspan1211" dy="26" x="59.5"><tspan id="SvgjsTspan1212" style="text-decoration:;">Data Cache</tspan></tspan></text></g></g><g id="SvgjsG1213" transform="translate(511.9201499970243,679.5004975731133)"><path id="SvgjsPath1214" d="M 0 4Q 0 0 4 0L 151.50001398050335 0Q 155.50001398050335 0 155.50001398050335 4L 155.50001398050335 48.27795579238682Q 155.50001398050335 52.27795579238682 151.50001398050335 52.27795579238682L 4 52.27795579238682Q 0 52.27795579238682 0 48.27795579238682Z" stroke="rgba(50,50,50,1)" stroke-width="2" fill-opacity="1" fill="#ffffff"></path><g id="SvgjsG1215"><text id="SvgjsText1216" font-family="微软雅黑" text-anchor="middle" font-size="21px" width="136px" fill="#323232" font-weight="400" align="middle" lineHeight="125%" anchor="middle" family="微软雅黑" size="21px" weight="400" font-style="" opacity="1" y="-4.48602210380659" transform="rotate(0)"><tspan id="SvgjsTspan1217" dy="26" x="78"><tspan id="SvgjsTspan1218" style="text-decoration:;">Custom </tspan></tspan><tspan id="SvgjsTspan1219" dy="26" x="78"><tspan id="SvgjsTspan1220" style="text-decoration:;">Functions</tspan></tspan></text></g></g><g id="SvgjsG1221" transform="translate(699.549255822623,683.9172576229105)"><path id="SvgjsPath1222" d="M 0 4Q 0 0 4 0L 139.57574417737703 0Q 143.57574417737703 0 143.57574417737703 4L 143.57574417737703 35.02767564299529Q 143.57574417737703 39.02767564299529 139.57574417737703 39.02767564299529L 4 39.02767564299529Q 0 39.02767564299529 0 35.02767564299529Z" stroke="rgba(50,50,50,1)" stroke-width="2" fill-opacity="1" fill="#ffffff"></path><g id="SvgjsG1223"><text id="SvgjsText1224" font-family="微软雅黑" text-anchor="middle" font-size="21px" width="124px" fill="#323232" font-weight="400" align="middle" lineHeight="125%" anchor="middle" family="微软雅黑" size="21px" weight="400" font-style="" opacity="1" y="1.8888378214976456" transform="rotate(0)"><tspan id="SvgjsTspan1225" dy="26" x="72"><tspan id="SvgjsTspan1226" style="text-decoration:;">Transaction</tspan></tspan></text></g></g><g id="SvgjsG1227" transform="translate(872.3719692236498,676.1813442309651)"><path id="SvgjsPath1228" d="M 0 4Q 0 0 4 0L 134.75303077635022 0Q 138.75303077635022 0 138.75303077635022 4L 138.75303077635022 50.49950242688601Q 138.75303077635022 54.49950242688601 134.75303077635022 54.49950242688601L 4 54.49950242688601Q 0 54.49950242688601 0 50.49950242688601Z" stroke="rgba(50,50,50,1)" stroke-width="2" fill-opacity="1" fill="#ffffff"></path><g id="SvgjsG1229"><text id="SvgjsText1230" font-family="微软雅黑" text-anchor="middle" font-size="21px" width="119px" fill="#323232" font-weight="400" align="middle" lineHeight="125%" anchor="middle" family="微软雅黑" size="21px" weight="400" font-style="" opacity="1" y="-3.3752487865569947" transform="rotate(0)"><tspan id="SvgjsTspan1231" dy="26" x="69.5"><tspan id="SvgjsTspan1232" style="text-decoration:;">Read-write </tspan></tspan><tspan id="SvgjsTspan1233" dy="26" x="69.5"><tspan id="SvgjsTspan1234" style="text-decoration:;">separation</tspan></tspan></text></g></g><g id="SvgjsG1235" transform="translate(1052.8987053694618,683.9172576229106)"><path id="SvgjsPath1236" d="M 0 4Q 0 0 4 0L 106.38261186540376 0Q 110.38261186540376 0 110.38261186540376 4L 110.38261186540376 35.02767564299511Q 110.38261186540376 39.02767564299511 106.38261186540376 39.02767564299511L 4 39.02767564299511Q 0 39.02767564299511 0 35.02767564299511Z" stroke="rgba(50,50,50,1)" stroke-width="2" fill-opacity="1" fill="#ffffff"></path><g id="SvgjsG1237"><text id="SvgjsText1238" font-family="微软雅黑" text-anchor="middle" font-size="21px" width="91px" fill="#323232" font-weight="400" align="middle" lineHeight="125%" anchor="middle" family="微软雅黑" size="21px" weight="400" font-style="" opacity="1" y="1.8888378214975567" transform="rotate(0)"><tspan id="SvgjsTspan1239" dy="26" x="55.5"><tspan id="SvgjsTspan1240" style="text-decoration:;">... ...</tspan></tspan></text></g></g><g id="SvgjsG1241" transform="translate(56.43745185182689,765.573747301064)"><path id="SvgjsPath1242" d="M 0 4Q 0 0 4 0L 125.19225078372841 0Q 129.1922507837284 0 129.1922507837284 4L 129.1922507837284 68.16346264486107Q 129.1922507837284 72.16346264486107 125.19225078372841 72.16346264486107L 4 72.16346264486107Q 0 72.16346264486107 0 68.16346264486107Z" stroke="rgba(50,50,50,1)" stroke-width="2" fill-opacity="1" fill="#99ff99"></path><g id="SvgjsG1243"><text id="SvgjsText1244" font-family="微软雅黑" text-anchor="middle" font-size="24px" width="110px" fill="#323232" font-weight="400" align="middle" lineHeight="125%" anchor="middle" family="微软雅黑" size="24px" weight="400" font-style="" opacity="1" y="16.081731322430535" transform="rotate(0)"><tspan id="SvgjsTspan1245" dy="30" x="65"><tspan id="SvgjsTspan1246" style="text-decoration:;">DB</tspan></tspan></text></g></g><g id="SvgjsG1247" transform="translate(295.125,776.217195743613)"><path id="SvgjsPath1248" d="M 0 4Q 0 0 4 0L 978.9286884547212 0Q 982.9286884547212 0 982.9286884547212 4L 982.9286884547212 63.78280425638695Q 982.9286884547212 67.78280425638695 978.9286884547212 67.78280425638695L 4 67.78280425638695Q 0 67.78280425638695 0 63.78280425638695Z" stroke="rgba(50,50,50,1)" stroke-width="2" fill-opacity="1" fill="#ccffcc"></path><g id="SvgjsG1249"><text id="SvgjsText1250" font-family="微软雅黑" text-anchor="middle" font-size="13px" width="963px" fill="#323232" font-weight="400" align="middle" lineHeight="125%" anchor="middle" family="微软雅黑" size="13px" weight="400" font-style="" opacity="1" y="24.266402128193477" transform="rotate(0)"></text></g></g><g id="SvgjsG1251" transform="translate(56.43745185182689,880.0103866021477)"><path id="SvgjsPath1252" d="M 0 4Q 0 0 4 0L 125.19225078372841 0Q 129.1922507837284 0 129.1922507837284 4L 129.1922507837284 68.16346264486107Q 129.1922507837284 72.16346264486107 125.19225078372841 72.16346264486107L 4 72.16346264486107Q 0 72.16346264486107 0 68.16346264486107Z" stroke="rgba(50,50,50,1)" stroke-width="2" fill-opacity="1" fill="#99ff99"></path><g id="SvgjsG1253"><text id="SvgjsText1254" font-family="微软雅黑" text-anchor="middle" font-size="24px" width="110px" fill="#323232" font-weight="400" align="middle" lineHeight="125%" anchor="middle" family="微软雅黑" size="24px" weight="400" font-style="" opacity="1" y="1.0817313224305352" transform="rotate(0)"><tspan id="SvgjsTspan1255" dy="30" x="65"><tspan id="SvgjsTspan1256" style="text-decoration:;">Infrastruct</tspan></tspan><tspan id="SvgjsTspan1257" dy="30" x="65"><tspan id="SvgjsTspan1258" style="text-decoration:;">ure</tspan></tspan></text></g></g><g id="SvgjsG1259" transform="translate(295.125,883.0103866021484)"><path id="SvgjsPath1260" d="M 0 4Q 0 0 4 0L 978.9286884547214 0Q 982.9286884547214 0 982.9286884547214 4L 982.9286884547214 62.16346264485992Q 982.9286884547214 66.16346264485992 978.9286884547214 66.16346264485992L 4 66.16346264485992Q 0 66.16346264485992 0 62.16346264485992Z" stroke="rgba(50,50,50,1)" stroke-width="2" fill-opacity="1" fill="#99ccff"></path><g id="SvgjsG1261"><text id="SvgjsText1262" font-family="微软雅黑" text-anchor="middle" font-size="13px" width="963px" fill="#323232" font-weight="400" align="middle" lineHeight="125%" anchor="middle" family="微软雅黑" size="13px" weight="400" font-style="" opacity="1" y="23.45673132242996" transform="rotate(0)"></text></g></g><g id="SvgjsG1263" transform="translate(560.8298372897309,899.5782801030816)"><path id="SvgjsPath1264" d="M 0 4Q 0 0 4 0L 127.21377639457728 0Q 131.21377639457728 0 131.21377639457728 4L 131.21377639457728 35.027675642994836Q 131.21377639457728 39.027675642994836 127.21377639457728 39.027675642994836L 4 39.027675642994836Q 0 39.027675642994836 0 35.027675642994836Z" stroke="rgba(50,50,50,1)" stroke-width="2" fill-opacity="1" fill="#ffffff"></path><g id="SvgjsG1265"><text id="SvgjsText1266" font-family="微软雅黑" text-anchor="middle" font-size="21px" width="112px" fill="#323232" font-weight="400" align="middle" lineHeight="125%" anchor="middle" family="微软雅黑" size="21px" weight="400" font-style="" opacity="1" y="1.8888378214974182" transform="rotate(0)"><tspan id="SvgjsTspan1267" dy="26" x="66"><tspan id="SvgjsTspan1268" style="text-decoration:;">OS</tspan></tspan></text></g></g><g id="SvgjsG1269" transform="translate(918.0158846356112,899.5782801030814)"><path id="SvgjsPath1270" d="M 0 4Q 0 0 4 0L 165.26000105127238 0Q 169.26000105127238 0 169.26000105127238 4L 169.26000105127238 35.02767564299511Q 169.26000105127238 39.02767564299511 165.26000105127238 39.02767564299511L 4 39.02767564299511Q 0 39.02767564299511 0 35.02767564299511Z" stroke="rgba(50,50,50,1)" stroke-width="2" fill-opacity="1" fill="#ffffff"></path><g id="SvgjsG1271"><text id="SvgjsText1272" font-family="微软雅黑" text-anchor="middle" font-size="21px" width="150px" fill="#323232" font-weight="400" align="middle" lineHeight="125%" anchor="middle" family="微软雅黑" size="21px" weight="400" font-style="" opacity="1" y="1.8888378214975567" transform="rotate(0)"><tspan id="SvgjsTspan1273" dy="26" x="85"><tspan id="SvgjsTspan1274" style="text-decoration:;">Containers</tspan></tspan></text></g></g><g id="SvgjsG1275" transform="translate(355.42455344778716,787.7661827985521)"><path id="SvgjsPath1276" d="M 0 4Q 0 0 4 0L 611.8229004079536 0Q 615.8229004079536 0 615.8229004079536 4L 615.8229004079536 29.91889151819879Q 615.8229004079536 33.91889151819879 611.8229004079536 33.91889151819879L 4 33.91889151819879Q 0 33.91889151819879 0 29.91889151819879Z" stroke="rgba(50,50,50,1)" stroke-width="2" fill-opacity="1" fill="#ffffff"></path><g id="SvgjsG1277"><text id="SvgjsText1278" font-family="微软雅黑" text-anchor="middle" font-size="19px" width="596px" fill="#323232" font-weight="400" align="middle" lineHeight="125%" anchor="middle" family="微软雅黑" size="19px" weight="400" font-style="" opacity="1" y="3.0844457590993954" transform="rotate(0)"><tspan id="SvgjsTspan1279" dy="23" x="308"><tspan id="SvgjsTspan1280" style="text-decoration:;">Persistent Storage Database：  Mysql or Postgres</tspan></tspan></text></g></g><g id="SvgjsG1281" transform="translate(720.2536915381925,616.4106065718861)"><path id="SvgjsPath1282" d="M 22.70908537615213 0L 46.106324854611906 0L 46.106324854611906 14.49549254230639L 68.81541023076403 14.49549254230639L 34.407705115382015 26.35544098601162L 0 14.49549254230639L 22.70908537615213 14.49549254230639L 22.70908537615213 0Z" stroke="rgba(50,50,50,1)" stroke-width="2" fill-opacity="1" fill="#ffffff"></path><g id="SvgjsG1283"><text id="SvgjsText1284" font-family="微软雅黑" text-anchor="middle" font-size="13px" width="97px" fill="#323232" font-weight="400" align="middle" lineHeight="125%" anchor="middle" family="微软雅黑" size="13px" weight="400" font-style="" opacity="1" y="2.2349484437052283" transform="rotate(0)"></text></g></g><g id="SvgjsG1285" transform="translate(716.9722276269758,749.8617547576014)"><path id="SvgjsPath1286" d="M 22.70908537615213 0L 46.106324854611906 0L 46.106324854611906 14.49549254230639L 68.81541023076403 14.49549254230639L 34.407705115382015 26.35544098601162L 0 14.49549254230639L 22.70908537615213 14.49549254230639L 22.70908537615213 0Z" stroke="rgba(50,50,50,1)" stroke-width="2" fill-opacity="1" fill="#ffffff"></path><g id="SvgjsG1287"><text id="SvgjsText1288" font-family="微软雅黑" text-anchor="middle" font-size="13px" width="97px" fill="#323232" font-weight="400" align="middle" lineHeight="125%" anchor="middle" family="微软雅黑" size="13px" weight="400" font-style="" opacity="1" y="2.2349484437052283" transform="rotate(0)"></text></g></g><g id="SvgjsG1289" transform="translate(716.9722276269758,853.654945616136)"><path id="SvgjsPath1290" d="M 22.70908537615213 0L 46.106324854611906 0L 46.106324854611906 14.49549254230639L 68.81541023076403 14.49549254230639L 34.407705115382015 26.35544098601162L 0 14.49549254230639L 22.70908537615213 14.49549254230639L 22.70908537615213 0Z" stroke="rgba(50,50,50,1)" stroke-width="2" fill-opacity="1" fill="#ffffff"></path><g id="SvgjsG1291"><text id="SvgjsText1292" font-family="微软雅黑" text-anchor="middle" font-size="13px" width="97px" fill="#323232" font-weight="400" align="middle" lineHeight="125%" anchor="middle" family="微软雅黑" size="13px" weight="400" font-style="" opacity="1" y="2.2349484437052283" transform="rotate(0)"></text></g></g><g id="SvgjsG1293" transform="translate(25.01085701628108,1121.7660475578978)"><path id="SvgjsPath1294" d="M 0 12.466227823258647L 1085.3972289594576 12.466227823258647" stroke-dasharray="10,6" stroke="rgba(136,136,136,1)" stroke-width="1" fill="none"></path><path id="SvgjsPath1295" d="M 0 0L 1085.3972289594576 0L 1085.3972289594576 24.932455646517294L 0 24.932455646517294Z" stroke="none" fill="none"></path></g><g id="SvgjsG1296" transform="translate(83.73811100729074,972.6412916545464)"><path id="SvgjsPath1297" d="M 0 12.466227823258647L 1085.3972289594576 12.466227823258647" stroke-dasharray="10,6" stroke="rgba(136,136,136,1)" stroke-width="1" fill="none"></path><path id="SvgjsPath1298" d="M 0 0L 1085.3972289594576 0L 1085.3972289594576 24.932455646517294L 0 24.932455646517294Z" stroke="none" fill="none"></path></g><g id="SvgjsG1299" transform="translate(190.85142874943085,1007.3806583884743)"><path id="SvgjsPath1300" d="M 0 12.466227823258647L 1091.5308710682061 12.466227823258647" stroke-dasharray="10,6" stroke="rgba(136,136,136,1)" stroke-width="1" fill="none"></path><path id="SvgjsPath1301" d="M 0 0L 1091.5308710682061 0L 1091.5308710682061 24.932455646517294L 0 24.932455646517294Z" stroke="none" fill="none"></path></g><g id="SvgjsG1302" transform="translate(295.125,399.3837648980325)"><path id="SvgjsPath1303" d="M 0 4Q 0 0 4 0L 202.79514999702428 0Q 206.79514999702428 0 206.79514999702428 4L 206.79514999702428 64.3960279638045Q 206.79514999702428 68.3960279638045 202.79514999702428 68.3960279638045L 4 68.3960279638045Q 0 68.3960279638045 0 64.3960279638045Z" stroke="rgba(50,50,50,1)" stroke-width="2" fill-opacity="1" fill="#ccff99"></path><g id="SvgjsG1304"><text id="SvgjsText1305" font-family="微软雅黑" text-anchor="middle" font-size="25px" width="187px" fill="#323232" font-weight="400" align="middle" lineHeight="125%" anchor="middle" family="微软雅黑" size="25px" weight="400" font-style="" opacity="1" y="13.57301398190225" transform="rotate(0)"><tspan id="SvgjsTspan1306" dy="31" x="103.5"><tspan id="SvgjsTspan1307" style="text-decoration:;">Task Management</tspan></tspan></text></g></g><g id="SvgjsG1308" transform="translate(521.30631240721,399.3837648980325)"><path id="SvgjsPath1309" d="M 0 4Q 0 0 4 0L 218.97327903136113 0Q 222.97327903136113 0 222.97327903136113 4L 222.97327903136113 64.3960279638045Q 222.97327903136113 68.3960279638045 218.97327903136113 68.3960279638045L 4 68.3960279638045Q 0 68.3960279638045 0 64.3960279638045Z" stroke="rgba(50,50,50,1)" stroke-width="2" fill-opacity="1" fill="#ccff99"></path><g id="SvgjsG1310"><text id="SvgjsText1311" font-family="微软雅黑" text-anchor="middle" font-size="25px" width="203px" fill="#323232" font-weight="400" align="middle" lineHeight="125%" anchor="middle" family="微软雅黑" size="25px" weight="400" font-style="" opacity="1" y="-1.9269860180977503" transform="rotate(0)"><tspan id="SvgjsTspan1312" dy="31" x="111.5"><tspan id="SvgjsTspan1313" style="text-decoration:;">Executor </tspan></tspan><tspan id="SvgjsTspan1314" dy="31" x="111.5"><tspan id="SvgjsTspan1315" style="text-decoration:;">Management</tspan></tspan></text></g></g><g id="SvgjsG1316" transform="translate(757.125,399.3837648980325)"><path id="SvgjsPath1317" d="M 0 4Q 0 0 4 0L 230 0Q 234 0 234 4L 234 57.616235101967504Q 234 61.616235101967504 230 61.616235101967504L 4 61.616235101967504Q 0 61.616235101967504 0 57.616235101967504Z" stroke="rgba(50,50,50,1)" stroke-width="2" fill-opacity="1" fill="#ccff99"></path><g id="SvgjsG1318"><text id="SvgjsText1319" font-family="微软雅黑" text-anchor="middle" font-size="25px" width="214px" fill="#323232" font-weight="400" align="middle" lineHeight="125%" anchor="middle" family="微软雅黑" size="25px" weight="400" font-style="" opacity="1" y="10.183117550983752" transform="rotate(0)"><tspan id="SvgjsTspan1320" dy="31" x="117"><tspan id="SvgjsTspan1321" style="text-decoration:;">Execution Group</tspan></tspan></text></g></g><g id="SvgjsG1322" transform="translate(295.125,510.6036374592925)"><path id="SvgjsPath1323" d="M 0 4Q 0 0 4 0L 202.79514999702428 0Q 206.79514999702428 0 206.79514999702428 4L 206.79514999702428 59.17615540254451Q 206.79514999702428 63.17615540254451 202.79514999702428 63.17615540254451L 4 63.17615540254451Q 0 63.17615540254451 0 59.17615540254451Z" stroke="rgba(50,50,50,1)" stroke-width="2" fill-opacity="1" fill="#ccff99"></path><g id="SvgjsG1324"><text id="SvgjsText1325" font-family="微软雅黑" text-anchor="middle" font-size="25px" width="187px" fill="#323232" font-weight="400" align="middle" lineHeight="125%" anchor="middle" family="微软雅黑" size="25px" weight="400" font-style="" opacity="1" y="10.963077701272255" transform="rotate(0)"><tspan id="SvgjsTspan1326" dy="31" x="103.5"><tspan id="SvgjsTspan1327" style="text-decoration:;">Home Reports</tspan></tspan></text></g></g><g id="SvgjsG1328" transform="translate(519.3791903408352,510.383597609581)"><path id="SvgjsPath1329" d="M 0 4Q 0 0 4 0L 222.82752316411074 0Q 226.82752316411074 0 226.82752316411074 4L 226.82752316411074 59.616235101967504Q 226.82752316411074 63.616235101967504 222.82752316411074 63.616235101967504L 4 63.616235101967504Q 0 63.616235101967504 0 59.616235101967504Z" stroke="rgba(50,50,50,1)" stroke-width="2" fill-opacity="1" fill="#ccff99"></path><g id="SvgjsG1330"><text id="SvgjsText1331" font-family="微软雅黑" text-anchor="middle" font-size="25px" width="207px" fill="#323232" font-weight="400" align="middle" lineHeight="125%" anchor="middle" family="微软雅黑" size="25px" weight="400" font-style="" opacity="1" y="11.183117550983752" transform="rotate(0)"><tspan id="SvgjsTspan1332" dy="31" x="113.5"><tspan id="SvgjsTspan1333" style="text-decoration:;">Data Analysis</tspan></tspan></text></g></g><g id="SvgjsG1334" transform="translate(761.9742904423165,510.6036374592925)"><path id="SvgjsPath1335" d="M 0 4Q 0 0 4 0L 225.1507095576835 0Q 229.1507095576835 0 229.1507095576835 4L 229.1507095576835 59.17615540254451Q 229.1507095576835 63.17615540254451 225.1507095576835 63.17615540254451L 4 63.17615540254451Q 0 63.17615540254451 0 59.17615540254451Z" stroke="rgba(50,50,50,1)" stroke-width="2" fill-opacity="1" fill="#ccff99"></path><g id="SvgjsG1336"><text id="SvgjsText1337" font-family="微软雅黑" text-anchor="middle" font-size="25px" width="210px" fill="#323232" font-weight="400" align="middle" lineHeight="125%" anchor="middle" family="微软雅黑" size="25px" weight="400" font-style="" opacity="1" y="10.963077701272255" transform="rotate(0)"><tspan id="SvgjsTspan1338" dy="31" x="115"><tspan id="SvgjsTspan1339" style="text-decoration:;">........</tspan></tspan></text></g></g></svg>